<svg xmlns="http://www.w3.org/2000/svg" xmlns:xlink="http://www.w3.org/1999/xlink" viewBox="0 0 1198 1198"><defs><style>.cls-1{fill:url(#linear-gradient);}.cls-2{fill:#fff;}.cls-2,.cls-3,.cls-4,.cls-5,.cls-6,.cls-7,.cls-8,.cls-9{stroke:#4b5a73;stroke-linecap:round;stroke-linejoin:round;stroke-width:14px;}.cls-3{fill:url(#linear-gradient-3);}.cls-4{fill:url(#linear-gradient-4);}.cls-5{fill:none;}.cls-6{fill:url(#linear-gradient-5);}.cls-7{fill:url(#linear-gradient-6);}.cls-8{fill:url(#linear-gradient-7);}.cls-9{fill:url(#linear-gradient-8);}</style><linearGradient id="linear-gradient" x1="601.08" y1="7.44" x2="596.92" y2="1192.97" gradientUnits="userSpaceOnUse"><stop offset="0" stop-color="#60b3fd"/><stop offset="0.8" stop-color="#5287df"/><stop offset="0.89" stop-color="#5287df"/></linearGradient><linearGradient id="linear-gradient-3" x1="1759.1" y1="90.38" x2="2862.22" y2="779.82" gradientTransform="matrix(-1, 0, 0, 1, 2590.66, 0)" gradientUnits="userSpaceOnUse"><stop offset="0" stop-color="#5287df"/><stop offset="1" stop-color="#60b3fd"/></linearGradient><linearGradient id="linear-gradient-4" x1="1708.69" y1="170.84" x2="2811.96" y2="860.39" xlink:href="#linear-gradient-3"/><linearGradient id="linear-gradient-5" x1="1424.53" y1="90.42" x2="2527.5" y2="779.78" xlink:href="#linear-gradient-3"/><linearGradient id="linear-gradient-6" x1="1374.07" y1="170.86" x2="2477.29" y2="860.38" xlink:href="#linear-gradient-3"/><linearGradient id="linear-gradient-7" x1="1089.82" y1="90.4" x2="2192.86" y2="779.8" xlink:href="#linear-gradient-3"/><linearGradient id="linear-gradient-8" x1="1039.39" y1="170.86" x2="2142.62" y2="860.38" xlink:href="#linear-gradient-3"/></defs><title>About Us</title><g id="Background"><rect class="cls-1" width="1198" height="1198"/></g><g id="Background_copy" data-name="Background copy"><rect class="cls-1" width="1198" height="1198"/></g><g id="About_Us" data-name="About Us"><rect class="cls-2" x="119" y="336.46" width="290.68" height="525.09"/><path class="cls-3" d="M228,443.64a38.31,38.31,0,1,0,38.31-38.32A38.32,38.32,0,0,0,228,443.64Z" transform="translate(-2 -1)"/><path class="cls-4" d="M203.41,585.14H329.28v-38.9c0-19.68-18.32-35.63-40.91-35.63H239.92c-20.17,0-36.51,14.24-36.51,31.78Z" transform="translate(-2 -1)"/><line class="cls-5" x1="219.78" y1="709.23" x2="308.92" y2="709.23"/><line class="cls-5" x1="183.5" y1="767.43" x2="345.17" y2="767.43"/><line class="cls-5" x1="183.5" y1="801.86" x2="345.17" y2="801.86"/><line class="cls-5" x1="119" y1="644.57" x2="409.68" y2="644.57"/><rect class="cls-2" x="453.65" y="336.46" width="290.67" height="525.09"/><path class="cls-6" d="M562.7,443.64A38.3,38.3,0,1,0,601,405.32,38.31,38.31,0,0,0,562.7,443.64Z" transform="translate(-2 -1)"/><path class="cls-7" d="M538.06,585.14H663.92v-38.9c0-19.68-18.32-35.63-40.9-35.63H574.56c-20.16,0-36.5,14.24-36.5,31.78Z" transform="translate(-2 -1)"/><line class="cls-5" x1="554.42" y1="709.23" x2="643.56" y2="709.23"/><line class="cls-5" x1="518.15" y1="767.43" x2="679.82" y2="767.43"/><line class="cls-5" x1="518.15" y1="801.86" x2="679.82" y2="801.86"/><line class="cls-5" x1="453.65" y1="644.57" x2="744.32" y2="644.57"/><rect class="cls-2" x="788.32" y="336.46" width="290.68" height="525.09"/><path class="cls-8" d="M897.37,443.64a38.3,38.3,0,1,0,38.31-38.32A38.31,38.31,0,0,0,897.37,443.64Z" transform="translate(-2 -1)"/><path class="cls-9" d="M872.73,585.14H998.59v-38.9c0-19.68-18.31-35.63-40.9-35.63H909.24c-20.16,0-36.51,14.24-36.51,31.78Z" transform="translate(-2 -1)"/><line class="cls-5" x1="889.1" y1="709.23" x2="978.24" y2="709.23"/><line class="cls-5" x1="852.83" y1="767.43" x2="1014.5" y2="767.43"/><line class="cls-5" x1="852.83" y1="801.86" x2="1014.5" y2="801.86"/><line class="cls-5" x1="788.32" y1="644.57" x2="1079" y2="644.57"/></g></svg>