<svg xmlns="http://www.w3.org/2000/svg" xmlns:xlink="http://www.w3.org/1999/xlink" viewBox="0 0 1198 1198"><defs><style>.cls-1{fill:url(#linear-gradient);}.cls-2{fill:#fff;}.cls-2,.cls-3,.cls-4,.cls-5,.cls-6,.cls-7{stroke:#4b5a73;stroke-linecap:round;stroke-linejoin:round;stroke-width:14px;}.cls-3{fill:none;}.cls-4{fill:url(#linear-gradient-3);}.cls-5{fill:url(#linear-gradient-4);}.cls-6{fill:url(#linear-gradient-5);}.cls-7{fill:url(#linear-gradient-6);}</style><linearGradient id="linear-gradient" x1="601.08" y1="7.44" x2="596.92" y2="1192.97" gradientUnits="userSpaceOnUse"><stop offset="0" stop-color="#60b3fd"/><stop offset="0.8" stop-color="#5287df"/><stop offset="0.89" stop-color="#5287df"/></linearGradient><linearGradient id="linear-gradient-3" x1="605.42" y1="715.85" x2="605.42" y2="333.3" gradientUnits="userSpaceOnUse"><stop offset="0" stop-color="#5287df"/><stop offset="1" stop-color="#60b3fd"/></linearGradient><linearGradient id="linear-gradient-4" x1="417.03" y1="715.85" x2="417.03" y2="525.59" xlink:href="#linear-gradient-3"/><linearGradient id="linear-gradient-5" x1="662.89" y1="715.85" x2="662.89" y2="396.49" xlink:href="#linear-gradient-3"/><linearGradient id="linear-gradient-6" x1="470.51" y1="448.47" x2="470.51" y2="379.12" xlink:href="#linear-gradient-3"/></defs><title>Banner Slider</title><g id="Background"><rect class="cls-1" width="1198" height="1198"/></g><g id="Background_copy" data-name="Background copy"><rect class="cls-1" width="1198" height="1198"/></g><g id="Banner_Slider" data-name="Banner Slider"><path class="cls-2" d="M1034.62,887.59c0,13.68-12.43,24.77-27.77,24.77H193.15c-15.34,0-27.77-11.09-27.77-24.77V162c0-13.69,12.43-24.77,27.77-24.77h813.7c15.34,0,27.77,11.08,27.77,24.77Z" transform="translate(-2 -1)"/><polyline class="cls-3" points="267.11 566.2 224.49 523.59 267.11 480.99"/><polyline class="cls-3" points="928.89 566.2 971.5 523.59 928.89 480.99"/><rect class="cls-2" x="427.9" y="993.23" width="70.62" height="70.64"/><rect class="cls-2" x="562.88" y="993.23" width="70.62" height="70.64"/><rect class="cls-2" x="697.86" y="993.23" width="70.62" height="70.64"/><path class="cls-4" d="M884.72,355.62V693.53a42.3,42.3,0,0,1-.46,4.51,22.33,22.33,0,0,1-21.87,17.81h-514a22.31,22.31,0,0,1-22.31-22.32V355.62a22.31,22.31,0,0,1,22.31-22.32h514A22.29,22.29,0,0,1,884.72,355.62Z" transform="translate(-2 -1)"/><path class="cls-5" d="M508,715.85H348.43a22.31,22.31,0,0,1-22.31-22.32V525.59l150.8,157.8Z" transform="translate(-2 -1)"/><path class="cls-6" d="M884.26,698V698a22.33,22.33,0,0,1-21.87,17.81H441.53l35.39-32.46,302.66-286.9L882.84,517.1Z" transform="translate(-2 -1)"/><path class="cls-7" d="M505.19,413.8a34.68,34.68,0,1,1-34.68-34.68A34.68,34.68,0,0,1,505.19,413.8Z" transform="translate(-2 -1)"/><rect class="cls-2" x="522.66" y="594.65" width="181.12" height="50.14"/><rect class="cls-2" x="433.83" y="496.38" width="358.78" height="58.79"/></g></svg>