<svg xmlns="http://www.w3.org/2000/svg" xmlns:xlink="http://www.w3.org/1999/xlink" viewBox="0 0 1344 1343"><defs><style>.cls-1{fill:url(#linear-gradient);}.cls-2,.cls-3{fill:#fff;stroke:#4b5a73;stroke-width:15px;}.cls-2{stroke-linecap:round;stroke-linejoin:round;}.cls-3{stroke-miterlimit:10;}.cls-4{fill:#4b5a73;}</style><linearGradient id="linear-gradient" x1="674.33" y1="8.34" x2="669.66" y2="1337.36" gradientUnits="userSpaceOnUse"><stop offset="0" stop-color="#60b3fd"/><stop offset="0.8" stop-color="#5287df"/><stop offset="0.89" stop-color="#5287df"/></linearGradient></defs><title>Button</title><g id="Layer_1" data-name="Layer 1"><rect class="cls-1" width="1344" height="1343"/></g><g id="Button"><rect class="cls-2" x="219" y="424" width="886" height="318" rx="28"/><path class="cls-3" d="M779.15,876.37a10.58,10.58,0,0,1-6.81,3.14,10.37,10.37,0,0,0,5.57-2.18Z" transform="translate(72 71)"/><path class="cls-3" d="M1026.06,742l-84.26,30,65.74,103.34,1.79,2.81a10.37,10.37,0,0,1,1.62,5.58,9.63,9.63,0,0,1-.13,1.61v0a10.47,10.47,0,0,1-4.59,6.59l-2.88,1.83-60.69,38.6a10.47,10.47,0,0,1-15.25-4.78,10.88,10.88,0,0,1-1.07-1.41l-70-110.1-77.16,60.33-1.24,1a10.37,10.37,0,0,1-5.57,2.18l-.39,0h-.38a11.38,11.38,0,0,1-2-.21l-.28-.06-.3-.08-.47-.13-.42-.14-.28-.11-.28-.11,0,0-.39-.18-.39-.2-.35-.2-.05,0-.25-.15a3.28,3.28,0,0,1-.31-.2,2.83,2.83,0,0,1-.28-.2l-.36-.27-.36-.3,0,0-.3-.27-.09-.08-.28-.28-.06-.06-.25-.28a.52.52,0,0,1-.1-.11l-.21-.25-.12-.15-.2-.27-.07-.09-.21-.31-.08-.13c-.06-.08-.11-.17-.16-.25l-.22-.38c-.07-.13-.14-.25-.2-.39l0-.1a2.71,2.71,0,0,1-.13-.3,10.33,10.33,0,0,1-.79-2.64c0-.33-.08-.68-.11-1h0c0-.18,0-.36,0-.54V575.9a10.52,10.52,0,0,1,3-7.37,9.64,9.64,0,0,1,.85-1.62,10.58,10.58,0,0,1,8.93-4.85,10.47,10.47,0,0,1,5.68,1.66l246.7,158.19a10.11,10.11,0,0,1,1.41,1.08,10.44,10.44,0,0,1-1.56,19Z" transform="translate(72 71)"/><path class="cls-3" d="M771.57,879.54h-.07a10.41,10.41,0,0,1-10.45-10c0,.35.06.69.11,1a10.33,10.33,0,0,0,.79,2.64,2.71,2.71,0,0,0,.13.3l0,.1c.06.14.13.26.2.39l.22.38c.05.08.1.17.16.25l.08.13.21.31.07.09.2.27.12.15.21.25a.52.52,0,0,0,.1.11l.25.28.06.06.28.28.09.08.3.27,0,0,.36.3.36.27a2.83,2.83,0,0,0,.28.2,3.28,3.28,0,0,0,.31.2l.25.15.05,0,.35.2.39.2.39.18,0,0,.28.11.28.11.42.14.47.13.3.08.28.06A11.38,11.38,0,0,0,771.57,879.54Z" transform="translate(72 71)"/><path class="cls-3" d="M1010.82,885.31a10.46,10.46,0,0,1-4.7,7.19,10.35,10.35,0,0,1-2.77,1.23l2.88-1.83A10.47,10.47,0,0,0,1010.82,885.31Z" transform="translate(72 71)"/><path class="cls-3" d="M1010.82,885.26a9.63,9.63,0,0,0,.13-1.61,10.37,10.37,0,0,0-1.62-5.58l-1.79-2.81a9.92,9.92,0,0,1,1.89,2.22A10.35,10.35,0,0,1,1010.82,885.26Z" transform="translate(72 71)"/><rect class="cls-4" x="301.96" y="583" width="720.07" height="10.88"/></g></svg>