<svg xmlns="http://www.w3.org/2000/svg" xmlns:xlink="http://www.w3.org/1999/xlink" viewBox="0 0 1198 1198"><defs><style>.cls-1{fill:url(#linear-gradient);}.cls-2{fill:#fff;}.cls-2,.cls-3,.cls-4{stroke:#4b5a73;stroke-linecap:round;stroke-linejoin:round;stroke-width:14px;}.cls-3{fill:none;}.cls-4{fill:url(#linear-gradient-3);}</style><linearGradient id="linear-gradient" x1="601.08" y1="7.44" x2="596.92" y2="1192.97" gradientUnits="userSpaceOnUse"><stop offset="0" stop-color="#60b3fd"/><stop offset="0.8" stop-color="#5287df"/><stop offset="0.89" stop-color="#5287df"/></linearGradient><linearGradient id="linear-gradient-3" x1="855.38" y1="996.67" x2="855.38" y2="867.14" gradientUnits="userSpaceOnUse"><stop offset="0" stop-color="#5287df"/><stop offset="1" stop-color="#60b3fd"/></linearGradient></defs><title>Facebook Chat</title><g id="Background"><rect class="cls-1" width="1198" height="1198"/></g><g id="Background_copy" data-name="Background copy"><rect class="cls-1" width="1198" height="1198"/></g><g id="Facebook_Chat" data-name="Facebook Chat"><path class="cls-2" d="M261.85,150.11H942.2c22.08,0,40,19.23,40,43V626.58c0,23.72-17.89,42.94-40,42.94H736.38l4.78,116.64L570.81,669.52h-309c-22.07,0-40-19.22-40-42.94V193.07C221.89,169.34,239.78,150.11,261.85,150.11Z" transform="translate(-2 -1)"/><line class="cls-3" x1="341.36" y1="278.67" x2="852.64" y2="278.67"/><line class="cls-3" x1="341.36" y1="358.17" x2="852.64" y2="358.17"/><line class="cls-3" x1="341.36" y1="437.68" x2="852.64" y2="437.68"/><line class="cls-3" x1="341.36" y1="516.69" x2="741.02" y2="516.69"/><path class="cls-2" d="M984.14,924.24A128.76,128.76,0,1,1,855.38,795.48,128.76,128.76,0,0,1,984.14,924.24Z" transform="translate(-2 -1)"/><path class="cls-4" d="M906.9,918.66a51.47,51.47,0,0,1-20.6,41.22c-4.1,3.09,3.18,36.79,3.18,36.79s-28-26.49-34.1-26.49a51.52,51.52,0,1,1,51.52-51.52Z" transform="translate(-2 -1)"/></g></svg>