<svg xmlns="http://www.w3.org/2000/svg" xmlns:xlink="http://www.w3.org/1999/xlink" viewBox="0 0 1198 1198"><defs><style>.cls-1{fill:url(#linear-gradient);}.cls-2{fill:#fff;}.cls-10,.cls-11,.cls-12,.cls-13,.cls-2,.cls-3,.cls-4,.cls-5,.cls-6,.cls-7,.cls-8,.cls-9{stroke:#4b5a73;stroke-linecap:round;stroke-linejoin:round;stroke-width:14px;}.cls-3{fill:url(#linear-gradient-3);}.cls-4{fill:url(#linear-gradient-4);}.cls-5{fill:none;}.cls-6{fill:url(#linear-gradient-5);}.cls-7{fill:url(#linear-gradient-6);}.cls-8{fill:url(#linear-gradient-7);}.cls-9{fill:url(#linear-gradient-8);}.cls-10{fill:url(#linear-gradient-9);}.cls-11{fill:url(#linear-gradient-10);}.cls-12{fill:url(#linear-gradient-11);}.cls-13{fill:url(#linear-gradient-12);}</style><linearGradient id="linear-gradient" x1="601.08" y1="7.44" x2="596.92" y2="1192.97" gradientUnits="userSpaceOnUse"><stop offset="0" stop-color="#60b3fd"/><stop offset="0.8" stop-color="#5287df"/><stop offset="0.89" stop-color="#5287df"/></linearGradient><linearGradient id="linear-gradient-3" x1="331.95" y1="335.32" x2="331.95" y2="267.4" gradientUnits="userSpaceOnUse"><stop offset="0" stop-color="#5287df"/><stop offset="1" stop-color="#60b3fd"/></linearGradient><linearGradient id="linear-gradient-4" x1="331.96" y1="426.82" x2="331.96" y2="359.93" xlink:href="#linear-gradient-3"/><linearGradient id="linear-gradient-5" x1="331.95" y1="849.56" x2="331.95" y2="781.65" xlink:href="#linear-gradient-3"/><linearGradient id="linear-gradient-6" x1="331.96" y1="941.06" x2="331.96" y2="874.17" xlink:href="#linear-gradient-3"/><linearGradient id="linear-gradient-7" x1="2254.29" y1="591.52" x2="2254.29" y2="518.23" gradientTransform="matrix(-1, 0, 0, 1, 2590.66, 0)" xlink:href="#linear-gradient-3"/><linearGradient id="linear-gradient-8" x1="2254.3" y1="690.23" x2="2254.3" y2="618.94" gradientTransform="matrix(-1, 0, 0, 1, 2590.66, 0)" xlink:href="#linear-gradient-3"/><linearGradient id="linear-gradient-9" x1="490.66" y1="570.08" x2="566.95" y2="570.08" xlink:href="#linear-gradient-3"/><linearGradient id="linear-gradient-10" x1="603.26" y1="570.08" x2="679.55" y2="570.08" xlink:href="#linear-gradient-3"/><linearGradient id="linear-gradient-11" x1="715.86" y1="570.08" x2="792.16" y2="570.08" xlink:href="#linear-gradient-3"/><linearGradient id="linear-gradient-12" x1="828.47" y1="570.08" x2="904.76" y2="570.08" xlink:href="#linear-gradient-3"/></defs><title>Comments</title><g id="Background"><rect class="cls-1" width="1198" height="1198"/></g><g id="Background_copy" data-name="Background copy"><rect class="cls-1" width="1198" height="1198"/></g><g id="Comments"><rect class="cls-2" x="127.13" y="128.13" width="941.73" height="941.73" rx="32.98"/><path class="cls-3" d="M365.91,301.37a34,34,0,1,1-34-34A34,34,0,0,1,365.91,301.37Z" transform="translate(-2 -1)"/><path class="cls-4" d="M387.75,426.82H276.16V391.9c0-17.66,16.24-32,36.27-32h43c17.87,0,32.36,12.77,32.36,28.52Z" transform="translate(-2 -1)"/><line class="cls-5" x1="484.29" y1="323.63" x2="900.17" y2="323.63"/><line class="cls-5" x1="484.29" y1="390.04" x2="724.71" y2="390.04"/><line class="cls-5" x1="776.84" y1="390.04" x2="820.62" y2="390.04"/><path class="cls-6" d="M365.91,815.61a34,34,0,1,1-34-34A34,34,0,0,1,365.91,815.61Z" transform="translate(-2 -1)"/><path class="cls-7" d="M387.75,941.06H276.16V906.14c0-17.66,16.24-32,36.27-32h43c17.87,0,32.36,12.77,32.36,28.52Z" transform="translate(-2 -1)"/><line class="cls-5" x1="492.53" y1="833.04" x2="749.13" y2="833.04"/><line class="cls-5" x1="492.53" y1="899.46" x2="635.77" y2="899.46"/><path class="cls-2" d="M914.42,863.8a60.73,60.73,0,1,1-60.73-60.74A60.72,60.72,0,0,1,914.42,863.8Z" transform="translate(-2 -1)"/><path class="cls-2" d="M836.37,855.17a3.32,3.32,0,1,1-3.32-3.32A3.32,3.32,0,0,1,836.37,855.17Z" transform="translate(-2 -1)"/><path class="cls-2" d="M876.86,855.17a3.32,3.32,0,1,1-3.33-3.32A3.33,3.33,0,0,1,876.86,855.17Z" transform="translate(-2 -1)"/><path class="cls-5" d="M877.66,882.55c-12,15.16-35.64,15.16-47.62,0" transform="translate(-2 -1)"/><path class="cls-8" d="M299.73,554.88a36.64,36.64,0,1,0,36.64-36.65A36.65,36.65,0,0,0,299.73,554.88Z" transform="translate(-2 -1)"/><path class="cls-9" d="M276.16,690.23h120.4V653c0-18.82-17.53-34.08-39.13-34.08H311.08c-19.29,0-34.92,13.61-34.92,30.4Z" transform="translate(-2 -1)"/><line class="cls-5" x1="493.77" y1="663.65" x2="781.67" y2="663.65"/><polygon class="cls-10" points="528.8 533.81 540.59 557.69 566.95 561.52 547.88 580.12 552.38 606.36 528.8 593.97 505.23 606.36 509.73 580.12 490.66 561.52 517.02 557.69 528.8 533.81"/><polygon class="cls-11" points="641.41 533.81 653.2 557.69 679.55 561.52 660.48 580.12 664.98 606.36 641.41 593.97 617.83 606.36 622.33 580.12 603.26 561.52 629.62 557.69 641.41 533.81"/><polygon class="cls-12" points="754.01 533.81 765.8 557.69 792.16 561.52 773.08 580.12 777.59 606.36 754.01 593.97 730.44 606.36 734.94 580.12 715.86 561.52 742.22 557.69 754.01 533.81"/><polygon class="cls-13" points="866.61 533.81 878.4 557.69 904.76 561.52 885.69 580.12 890.19 606.36 866.61 593.97 843.04 606.36 847.54 580.12 828.47 561.52 854.83 557.69 866.61 533.81"/></g></svg>