<svg xmlns="http://www.w3.org/2000/svg" xmlns:xlink="http://www.w3.org/1999/xlink" viewBox="0 0 1198 1198"><defs><style>.cls-1{fill:url(#linear-gradient);}.cls-2{fill:#fff;}.cls-2,.cls-3,.cls-4,.cls-5{stroke:#4b5a73;stroke-linecap:round;stroke-linejoin:round;stroke-width:14px;}.cls-3{fill:none;}.cls-4{fill:url(#linear-gradient-3);}.cls-5{fill:url(#linear-gradient-4);}</style><linearGradient id="linear-gradient" x1="601.08" y1="7.44" x2="596.92" y2="1192.97" gradientUnits="userSpaceOnUse"><stop offset="0" stop-color="#60b3fd"/><stop offset="0.8" stop-color="#5287df"/><stop offset="0.89" stop-color="#5287df"/></linearGradient><linearGradient id="linear-gradient-3" x1="586.86" y1="918.54" x2="586.86" y2="848.09" gradientUnits="userSpaceOnUse"><stop offset="0" stop-color="#5287df"/><stop offset="1" stop-color="#60b3fd"/></linearGradient><linearGradient id="linear-gradient-4" x1="606.98" y1="387.32" x2="606.98" y2="184.62" xlink:href="#linear-gradient-3"/></defs><title>Contact Form</title><g id="Background"><rect class="cls-1" width="1198" height="1198"/></g><g id="Background_copy" data-name="Background copy"><rect class="cls-1" width="1198" height="1198"/></g><g id="Contact_Form" data-name="Contact Form"><path class="cls-2" d="M984.12,1048.43c0,13.57-12.33,24.57-27.54,24.57H239.77c-15.21,0-27.54-11-27.54-24.57V151.57c0-13.58,12.33-24.57,27.54-24.57H956.58c15.21,0,27.54,11,27.54,24.57Z" transform="translate(-2 -1)"/><rect class="cls-3" x="375.8" y="573.01" width="425" height="58.35"/><rect class="cls-2" x="375.8" y="667.99" width="425" height="139.01"/><rect class="cls-4" x="374.36" y="848.09" width="425" height="70.45"/><line class="cls-3" x1="375.8" y1="542.52" x2="483.82" y2="542.52"/><rect class="cls-3" x="375.8" y="450.63" width="425" height="58.36"/><line class="cls-3" x1="375.8" y1="417.07" x2="483.82" y2="417.07"/><path class="cls-5" d="M551.22,184.88c11.95-2.27,19.79,11.2,25.75,20.5,5.82,9.06,12.93,19.65,10.06,31.39-1.6,6.59-7.56,10.2-12.08,14.08s-11.21,7.38-12.87,13.27c-2.67,9.59,3.18,19.64,6.85,25.37a144.83,144.83,0,0,0,31,35c6.17,5.05,14.71,11.8,23.34,10.06,12.8-2.6,16.18-18.4,30.17-20.52,13.29-2,22.27,7.61,29.78,14.08,7.24,6.27,18.89,14.26,18.1,25-.46,6.15-5.4,9.94-9.68,13.66s-8.15,8.06-12.45,10.86c-10.42,6.82-23.18,10.13-37.84,9.68-14.37-.45-25.81-5.33-36.21-10.87-20.3-10.83-36.36-26.06-51.48-43.07C538.77,316.63,525,296.87,517.42,275c-9.49-27.28-4.45-55.31,10.88-72.81,2.6-3,6.7-6.07,10.46-9.25S546,185.86,551.22,184.88Z" transform="translate(-2 -1)"/></g></svg>