<svg xmlns="http://www.w3.org/2000/svg" xmlns:xlink="http://www.w3.org/1999/xlink" viewBox="0 0 1198 1198"><defs><style>.cls-1{fill:url(#linear-gradient);}.cls-2{fill:#fff;}.cls-2,.cls-3,.cls-4,.cls-5{stroke:#4b5a73;stroke-width:15px;}.cls-2,.cls-3,.cls-4{stroke-linecap:round;}.cls-2,.cls-4{stroke-linejoin:round;}.cls-3{fill:none;}.cls-3,.cls-5{stroke-miterlimit:10;}.cls-4{fill:url(#New_Gradient_Swatch);}.cls-5{fill:url(#New_Gradient_Swatch-2);}</style><linearGradient id="linear-gradient" x1="601.08" y1="7.44" x2="596.92" y2="1192.97" gradientUnits="userSpaceOnUse"><stop offset="0" stop-color="#60b3fd"/><stop offset="0.8" stop-color="#5287df"/><stop offset="0.89" stop-color="#5287df"/></linearGradient><linearGradient id="New_Gradient_Swatch" x1="474.68" y1="335.82" x2="465.58" y2="598.3" gradientUnits="userSpaceOnUse"><stop offset="0" stop-color="#60b3fd"/><stop offset="1" stop-color="#5287df"/></linearGradient><linearGradient id="New_Gradient_Swatch-2" x1="597.15" y1="619.86" x2="597.15" y2="674.44" xlink:href="#New_Gradient_Swatch"/></defs><title>Countdown Timer</title><g id="Background"><rect class="cls-1" width="1198" height="1198"/></g><g id="Background_copy" data-name="Background copy"><rect class="cls-1" width="1198" height="1198"/></g><g id="Countdown_Timer" data-name="Countdown Timer"><rect class="cls-2" x="562.31" y="156.88" width="69.42" height="84.27"/><rect class="cls-2" x="529.48" y="129.6" width="135.09" height="48.34" rx="22.31"/><circle class="cls-2" cx="600" cy="646.82" r="422.64" transform="translate(-283.64 612.71) rotate(-45)"/><line class="cls-3" x1="597.99" y1="1009.59" x2="597.99" y2="951.36"/><line class="cls-3" x1="597.99" y1="340.29" x2="597.99" y2="284.52"/><line class="cls-3" x1="967.52" y1="645.85" x2="903.49" y2="645.85"/><line class="cls-3" x1="292.49" y1="645.85" x2="229.44" y2="645.85"/><line class="cls-3" x1="773.28" y1="949.42" x2="750.74" y2="910.46"/><line class="cls-3" x1="445.25" y1="381.19" x2="422.72" y2="342.22"/><line class="cls-3" x1="901.63" y1="821.14" x2="862.59" y2="798.61"/><line class="cls-3" x1="333.4" y1="493.04" x2="294.35" y2="470.5"/><line class="cls-3" x1="901.63" y1="470.5" x2="862.59" y2="493.04"/><line class="cls-3" x1="333.4" y1="798.61" x2="294.35" y2="821.14"/><line class="cls-3" x1="773.28" y1="342.22" x2="750.74" y2="381.19"/><line class="cls-3" x1="445.25" y1="910.46" x2="422.72" y2="949.42"/><line class="cls-3" x1="324.76" y1="645.85" x2="341.48" y2="645.85"/><line class="cls-3" x1="855.41" y1="645.81" x2="873.18" y2="645.82"/><line class="cls-3" x1="597.03" y1="912.82" x2="597.03" y2="924.21"/><path class="cls-4" d="M597.15,581c1,0,1.91.1,2.87.15V340.16C475.39,342.76,386.89,405.47,335.35,494l209.07,121.2C551.55,596,576.82,581,597.15,581Z" transform="translate(-2 -1)"/><path class="cls-5" d="M622.74,646.81a25.59,25.59,0,1,1-25.59-25.59A25.6,25.6,0,0,1,622.74,646.81Z" transform="translate(-2 -1)"/></g></svg>