<svg xmlns="http://www.w3.org/2000/svg" xmlns:xlink="http://www.w3.org/1999/xlink" viewBox="0 0 1344 1343"><defs><style>.cls-1{fill:url(#linear-gradient);}.cls-2,.cls-3{fill:#fff;}.cls-2,.cls-3,.cls-4{stroke:#4b5a73;}.cls-2{stroke-miterlimit:10;stroke-width:9px;}.cls-3,.cls-4{stroke-linecap:round;stroke-linejoin:round;stroke-width:14px;}.cls-4{fill:none;}</style><linearGradient id="linear-gradient" x1="674.33" y1="8.34" x2="669.66" y2="1337.36" gradientUnits="userSpaceOnUse"><stop offset="0" stop-color="#60b3fd"/><stop offset="0.8" stop-color="#5287df"/><stop offset="0.89" stop-color="#5287df"/></linearGradient></defs><title>Digital Download</title><g id="Layer_1" data-name="Layer 1"><rect class="cls-1" width="1344" height="1343"/></g><g id="Digital_Download" data-name="Digital Download"><polygon class="cls-2" points="1217.87 873.06 1217.87 1204.87 128.76 1204.87 128.76 873.06 149.77 873.06 149.77 1183.87 1196.87 1183.87 1196.87 873.06 1217.87 873.06"/><polygon class="cls-2" points="788.65 855.63 681.1 963.18 680.91 962.99 680.72 963.18 573.17 855.63 585.77 843.03 672.5 929.76 672.5 605.81 690.32 605.81 690.32 928.76 776.05 843.03 788.65 855.63"/><path class="cls-3" d="M971.86,376.73c0-107.07-86.8-193.86-193.86-193.86-4.44,0-8.77.36-13.13.64a238.19,238.19,0,0,0-193.58-99.2c-115.36,0-211.57,81.86-233.74,190.69a150.66,150.66,0,0,0,41.33,295.57H797.2v-1C895.25,560,971.86,477.3,971.86,376.73Z" transform="translate(72 71)"/><path class="cls-4" d="M378.88,570.57A150.74,150.74,0,1,1,429.9,278" transform="translate(72 71)"/><path class="cls-4" d="M705,197.07a193.25,193.25,0,0,1,73-14.2c107.06,0,193.86,86.79,193.86,193.86S885.06,570.57,778,570.57" transform="translate(72 71)"/></g></svg>