<svg xmlns="http://www.w3.org/2000/svg" xmlns:xlink="http://www.w3.org/1999/xlink" viewBox="0 0 1198 1198"><defs><style>.cls-1{fill:url(#linear-gradient);}.cls-2{fill:#fff;}.cls-2,.cls-3,.cls-4,.cls-5,.cls-6{stroke:#4b5a73;stroke-linecap:round;stroke-linejoin:round;stroke-width:14px;}.cls-3{fill:none;}.cls-4{fill:url(#linear-gradient-3);}.cls-5{fill:url(#linear-gradient-4);}.cls-6{fill:url(#linear-gradient-5);}</style><linearGradient id="linear-gradient" x1="601.08" y1="7.44" x2="596.92" y2="1192.97" gradientUnits="userSpaceOnUse"><stop offset="0" stop-color="#60b3fd"/><stop offset="0.8" stop-color="#5287df"/><stop offset="0.89" stop-color="#5287df"/></linearGradient><linearGradient id="linear-gradient-3" x1="603.13" y1="661.8" x2="603.13" y2="443" gradientUnits="userSpaceOnUse"><stop offset="0" stop-color="#5287df"/><stop offset="1" stop-color="#60b3fd"/></linearGradient><linearGradient id="linear-gradient-4" x1="520.95" y1="865.21" x2="520.95" y2="789.4" xlink:href="#linear-gradient-3"/><linearGradient id="linear-gradient-5" x1="710.9" y1="865.21" x2="710.9" y2="789.4" xlink:href="#linear-gradient-3"/></defs><title>eCommerce</title><g id="Background"><rect class="cls-1" width="1198" height="1198"/></g><g id="Background_copy" data-name="Background copy"><rect class="cls-1" width="1198" height="1198"/></g><g id="eCommerce"><rect class="cls-2" x="149.16" y="151.19" width="897.67" height="897.67" rx="31.43"/><path class="cls-3" d="M316.84,375.23H365a22.13,22.13,0,0,1,21.72,17.88L451,722.92a22.11,22.11,0,0,0,21.72,17.89H808.48" transform="translate(-2 -1)"/><path class="cls-4" d="M439.11,661.8H769.26l40.1-192.16A22.12,22.12,0,0,0,787.7,443H396.44Z" transform="translate(-2 -1)"/><path class="cls-5" d="M558.85,827.3A37.91,37.91,0,1,1,521,789.4,37.9,37.9,0,0,1,558.85,827.3Z" transform="translate(-2 -1)"/><path class="cls-6" d="M748.81,827.3a37.91,37.91,0,1,1-37.9-37.9A37.9,37.9,0,0,1,748.81,827.3Z" transform="translate(-2 -1)"/><line class="cls-3" x1="412.17" y1="510.37" x2="798.07" y2="510.37"/><line class="cls-3" x1="422.81" y1="587.48" x2="781.19" y2="587.48"/></g></svg>