<svg xmlns="http://www.w3.org/2000/svg" xmlns:xlink="http://www.w3.org/1999/xlink" viewBox="0 0 1344 1343"><defs><style>.cls-1{fill:url(#linear-gradient);}.cls-13,.cls-2,.cls-6{fill:#fff;}.cls-10,.cls-11,.cls-14,.cls-15,.cls-16,.cls-17,.cls-18,.cls-19,.cls-2,.cls-20,.cls-3,.cls-4,.cls-5,.cls-6,.cls-7,.cls-9{stroke:#4b5a73;}.cls-2{stroke-linecap:round;stroke-linejoin:round;}.cls-2,.cls-9{stroke-width:10px;}.cls-12,.cls-3,.cls-8{fill:#4b5a73;}.cls-10,.cls-11,.cls-14,.cls-15,.cls-16,.cls-17,.cls-18,.cls-19,.cls-20,.cls-3,.cls-4,.cls-5,.cls-6,.cls-7,.cls-9{stroke-miterlimit:10;}.cls-10,.cls-3,.cls-4,.cls-5{stroke-width:4px;}.cls-4{fill:url(#New_Gradient_Swatch_1);}.cls-5{fill:url(#New_Gradient_Swatch_1-2);}.cls-6,.cls-7{stroke-width:18px;}.cls-10,.cls-7,.cls-9{fill:none;}.cls-8{font-size:368.12px;font-family:Roboto-Medium, Roboto;font-weight:500;}.cls-11,.cls-19,.cls-20{stroke-width:5px;}.cls-11{fill:url(#New_Gradient_Swatch_1-3);}.cls-14,.cls-15,.cls-16,.cls-17,.cls-18{stroke-width:3px;}.cls-14{fill:url(#New_Gradient_Swatch_1-4);}.cls-15{fill:url(#New_Gradient_Swatch_1-5);}.cls-16{fill:url(#New_Gradient_Swatch_1-6);}.cls-17{fill:url(#New_Gradient_Swatch_1-7);}.cls-18{fill:url(#New_Gradient_Swatch_1-8);}.cls-19{fill:url(#New_Gradient_Swatch_1-9);}.cls-20{fill:url(#New_Gradient_Swatch_1-10);}</style><linearGradient id="linear-gradient" x1="674.33" y1="8.34" x2="669.66" y2="1337.36" gradientUnits="userSpaceOnUse"><stop offset="0" stop-color="#60b3fd"/><stop offset="0.8" stop-color="#5287df"/><stop offset="0.89" stop-color="#5287df"/></linearGradient><linearGradient id="New_Gradient_Swatch_1" x1="198.3" y1="252.07" x2="284.19" y2="252.07" gradientUnits="userSpaceOnUse"><stop offset="0" stop-color="#5287df"/><stop offset="1" stop-color="#60b3fd"/></linearGradient><linearGradient id="New_Gradient_Swatch_1-2" x1="144.19" y1="353.31" x2="225.65" y2="353.31" xlink:href="#New_Gradient_Swatch_1"/><linearGradient id="New_Gradient_Swatch_1-3" x1="80.4" y1="573.68" x2="258.09" y2="573.68" xlink:href="#New_Gradient_Swatch_1"/><linearGradient id="New_Gradient_Swatch_1-4" x1="525.84" y1="308.25" x2="558.6" y2="308.25" xlink:href="#New_Gradient_Swatch_1"/><linearGradient id="New_Gradient_Swatch_1-5" x1="549.31" y1="329.69" x2="582.07" y2="329.69" xlink:href="#New_Gradient_Swatch_1"/><linearGradient id="New_Gradient_Swatch_1-6" x1="579.78" y1="341.56" x2="612.53" y2="341.56" xlink:href="#New_Gradient_Swatch_1"/><linearGradient id="New_Gradient_Swatch_1-7" x1="611.53" y1="329.67" x2="644.28" y2="329.67" xlink:href="#New_Gradient_Swatch_1"/><linearGradient id="New_Gradient_Swatch_1-8" x1="638.12" y1="307.75" x2="670.88" y2="307.75" xlink:href="#New_Gradient_Swatch_1"/><linearGradient id="New_Gradient_Swatch_1-9" x1="76.97" y1="927.12" x2="216.07" y2="927.12" xlink:href="#New_Gradient_Swatch_1"/><linearGradient id="New_Gradient_Swatch_1-10" x1="839.58" y1="236.43" x2="1011.69" y2="236.43" xlink:href="#New_Gradient_Swatch_1"/></defs><title>Event Gallery</title><g id="Layer_1" data-name="Layer 1"><rect class="cls-1" width="1344" height="1343"/></g><g id="Event_Gallery" data-name="Event Gallery"><path class="cls-2" d="M386.6,71.2V355.33a13.41,13.41,0,0,1-13.42,13.44H64.53A13.45,13.45,0,0,1,51.1,355.33V71.2A13.43,13.43,0,0,1,64.53,57.76H373.18A13.4,13.4,0,0,1,386.6,71.2Z" transform="translate(72 71)"/><polygon class="cls-3" points="190.46 225.57 164.61 196.03 153.53 210.8 165.84 231.11 166.46 253.88 172 266.81 183.07 288.35 180.61 307.43 237.85 307.43 190.46 225.57"/><polygon class="cls-4" points="247.03 225.62 273.36 196.51 284.19 211.46 271.55 231.56 270.56 254.32 264.81 267.15 253.38 288.51 255.53 307.63 198.3 306.69 247.03 225.62"/><polygon class="cls-5" points="179.5 314.74 144.19 390.36 224.19 391.89 225.65 315.62 179.5 314.74"/><polygon class="cls-3" points="253.5 315.53 287.75 399.08 204.21 397.98 205.3 314.9 253.5 315.53"/><rect class="cls-6" x="575" y="595.83" width="595.07" height="555.89" rx="28"/><rect class="cls-6" x="575" y="595.83" width="595.07" height="134.65" rx="22.26"/><line class="cls-7" x1="692.28" y1="517.65" x2="692.28" y2="643.61"/><line class="cls-7" x1="1031.07" y1="517.65" x2="1031.07" y2="643.61"/><text class="cls-8" transform="translate(663.31 1085.84)">17</text><line class="cls-9" x1="735.57" y1="663.16" x2="987.5" y2="663.16"/><line class="cls-10" x1="310.03" y1="261.04" x2="434.46" y2="261.04"/><line class="cls-10" x1="310.03" y1="293.23" x2="412.3" y2="293.23"/><path class="cls-2" d="M386.6,431.62V715.75a13.41,13.41,0,0,1-13.42,13.44H64.53A13.45,13.45,0,0,1,51.1,715.75V431.62a13.44,13.44,0,0,1,13.43-13.44H373.18A13.41,13.41,0,0,1,386.6,431.62Z" transform="translate(72 71)"/><path class="cls-2" d="M383.5,792v284.13a13.41,13.41,0,0,1-13.42,13.44H61.43A13.45,13.45,0,0,1,48,1076.17V792A13.44,13.44,0,0,1,61.43,778.6H370.08A13.4,13.4,0,0,1,383.5,792Z" transform="translate(72 71)"/><path class="cls-2" d="M771.18,71.2V355.33a13.41,13.41,0,0,1-13.42,13.44H449.11a13.45,13.45,0,0,1-13.42-13.44V71.2a13.43,13.43,0,0,1,13.42-13.44H757.76A13.39,13.39,0,0,1,771.18,71.2Z" transform="translate(72 71)"/><path class="cls-2" d="M1152,71.2V355.33a13.41,13.41,0,0,1-13.41,13.44H829.93a13.45,13.45,0,0,1-13.43-13.44V71.2a13.43,13.43,0,0,1,13.43-13.44h308.65A13.39,13.39,0,0,1,1152,71.2Z" transform="translate(72 71)"/><path class="cls-11" d="M80.58,551.45c-.32,5.93-.38,12,1.32,17.69,1,3.23,2.49,6.29,3.25,9.58a43.06,43.06,0,0,1,.76,8.86l.84,53.63H98.4l.1-12.45V595.07c1.83-2.66,1.81-6.14,2.54-9.28s2.83-6.54,6-6.65c1.84-.06,3.51,1,5,2,20,13,41,27.26,50.74,49.08,1.6,3.6,3.27,7.77,7,9.1a13.17,13.17,0,0,0,4.81.45l83.42-2.44q-8.67-13.55-17.8-26.78c-3.06-4.43-6.29-9-10.88-11.8-6.42-4-14.44-3.94-22-3.81l-38.17.68a32.11,32.11,0,0,1-8.87-.66,24.82,24.82,0,0,1-9.24-5.24c-19.55-16.27-24.72-42.83-35.78-64.55-2.71-5.31-5.71-11.29-9.83-15.67-5.75-6.13-9-3.05-13.59,3.12C83.72,523.55,81.29,538.11,80.58,551.45Z" transform="translate(72 71)"/><line class="cls-10" x1="310.03" y1="612.49" x2="434.46" y2="612.49"/><line class="cls-10" x1="310.03" y1="644.68" x2="412.3" y2="644.68"/><circle class="cls-12" cx="596.34" cy="275.48" r="68.58"/><circle class="cls-13" cx="596.34" cy="275.48" r="56.05"/><circle class="cls-14" cx="542.22" cy="308.25" r="16.38"/><circle class="cls-15" cx="565.69" cy="329.69" r="16.38"/><circle class="cls-16" cx="596.16" cy="341.56" r="16.38"/><circle class="cls-17" cx="627.9" cy="329.67" r="16.38"/><circle class="cls-18" cx="654.5" cy="307.75" r="16.38"/><line class="cls-10" x1="690.31" y1="259.38" x2="814.73" y2="259.38"/><line class="cls-10" x1="690.31" y1="291.58" x2="792.58" y2="291.58"/><path class="cls-19" d="M123.62,863.65c-10.88-1.93-22.08,3.33-29.77,11.26S81.43,893.12,77.38,903.4a2.59,2.59,0,0,0,.82,3.67,258.54,258.54,0,0,0,23.89,18.75l4.67-3.43c.37,22,.44,44.52,0,66.46a489.33,489.33,0,0,0,79.2,1l0-69.11a22.13,22.13,0,0,0,5.82,3.25,48.36,48.36,0,0,0,6.59-4.52l17.76-14c-6.18-11.19-9.73-24-19-32.72a35,35,0,0,0-28.1-9.14c-2,4.76-7.8,7.15-12.75,8.64a35.87,35.87,0,0,1-18.2,1.11C132,872,126.71,869,123.62,863.65Z" transform="translate(72 71)"/><line class="cls-10" x1="310.03" y1="996.13" x2="434.46" y2="996.13"/><line class="cls-10" x1="310.03" y1="1028.33" x2="412.3" y2="1028.33"/><path class="cls-20" d="M844.25,276.91l32.27,4.1c4,.51,8.81.73,11.34-2.43,2.87-3.58,1.13-9.65,4.5-12.76,3.58-3.29,9.21-.43,13.33,2.17a92.05,92.05,0,0,0,83.67,6.65c10.71-4.57,21.54-12.9,22.3-24.52.19-3-.42-6.17-2.54-8.25-3.17-3.13-8.33-2.63-12.7-1.71-9,1.87-18.3,4.56-27.08,2-13-3.86-19.92-17.58-28.54-28.11a75.39,75.39,0,0,0-32-22.85,59.43,59.43,0,0,1-32.34,11.44,58.62,58.62,0,0,1-17.8-1.75c-6.88-1.81-8.46-2.32-13.29,3.74-6.68,8.39-5.7,20.46-5.7,30.73C839.63,239.79,840.4,276.41,844.25,276.91Z" transform="translate(72 71)"/><line class="cls-10" x1="1069.64" y1="253.38" x2="1194.07" y2="253.38"/><line class="cls-10" x1="1069.64" y1="285.58" x2="1171.91" y2="285.58"/></g></svg>