<svg xmlns="http://www.w3.org/2000/svg" xmlns:xlink="http://www.w3.org/1999/xlink" viewBox="0 0 1200.89 1200"><defs><style>.cls-1{fill:url(#linear-gradient);}.cls-2{fill:#fff;}.cls-2,.cls-3,.cls-4,.cls-5,.cls-6,.cls-7,.cls-8{stroke:#4b5a73;stroke-linecap:round;stroke-linejoin:round;stroke-width:18px;}.cls-3{fill:none;}.cls-4{fill:url(#linear-gradient-2);}.cls-5{fill:url(#linear-gradient-3);}.cls-6{fill:url(#linear-gradient-4);}.cls-7{fill:url(#linear-gradient-5);}.cls-8{fill:url(#linear-gradient-6);}</style><linearGradient id="linear-gradient" x1="602.53" y1="7.46" x2="598.36" y2="1194.96" gradientUnits="userSpaceOnUse"><stop offset="0" stop-color="#60b3fd"/><stop offset="0.8" stop-color="#5287df"/><stop offset="0.89" stop-color="#5287df"/></linearGradient><linearGradient id="linear-gradient-2" x1="786.79" y1="921.84" x2="786.79" y2="705.93" gradientUnits="userSpaceOnUse"><stop offset="0" stop-color="#5287df"/><stop offset="1" stop-color="#60b3fd"/></linearGradient><linearGradient id="linear-gradient-3" x1="1602.07" y1="18.25" x2="2732.94" y2="725.05" gradientTransform="matrix(-1, 0, 0, 1, 2590.66, 0)" xlink:href="#linear-gradient-2"/><linearGradient id="linear-gradient-4" x1="1550.33" y1="100.73" x2="2681.46" y2="807.68" gradientTransform="matrix(-1, 0, 0, 1, 2590.66, 0)" xlink:href="#linear-gradient-2"/><linearGradient id="linear-gradient-5" x1="1602.07" y1="306.46" x2="2732.94" y2="1013.26" gradientTransform="matrix(-1, 0, 0, 1, 2590.66, 0)" xlink:href="#linear-gradient-2"/><linearGradient id="linear-gradient-6" x1="1550.34" y1="388.93" x2="2681.46" y2="1095.89" gradientTransform="matrix(-1, 0, 0, 1, 2590.66, 0)" xlink:href="#linear-gradient-2"/></defs><title>Facebook Feed</title><g id="Layer_1" data-name="Layer 1"><rect class="cls-1" width="1200.89" height="1200"/></g><g id="Facebook_Feed" data-name="Facebook Feed"><rect class="cls-2" x="226.94" y="224.69" width="703.66" height="703.66" rx="26.56"/><line class="cls-3" x1="572.31" y1="433.3" x2="821.7" y2="433.3"/><line class="cls-3" x1="572.31" y1="382.85" x2="821.7" y2="382.85"/><line class="cls-3" x1="572.31" y1="483.74" x2="712.27" y2="483.74"/><line class="cls-3" x1="572.31" y1="785.61" x2="721.98" y2="785.61"/><line class="cls-3" x1="572.31" y1="685.49" x2="843.22" y2="685.49"/><line class="cls-3" x1="572.31" y1="737.57" x2="670.96" y2="737.57"/><path class="cls-2" d="M974.54,813.89c0,103.68-84.07,187.74-187.76,187.74S599,917.57,599,813.89s84.07-187.75,187.74-187.75S974.54,710.21,974.54,813.89Z" transform="translate(0.95)"/><path id="path3176" class="cls-4" d="M755,917.66V814H736.15a4.19,4.19,0,0,1-4.18-4.19v-31a4,4,0,0,1,4.18-4.13l18.81,0v-16.7c0-30.78,13.42-52,41.25-52,29.37,0,42,3.94,42.48,4.05a4.22,4.22,0,0,1,2.85,4.73l-5.74,31.81a4.23,4.23,0,0,1-5.22,3.29,77.86,77.86,0,0,0-17.43-2.45c-5.08,0-12.8,1.08-12.8,7.15v20.06h32.5a4.15,4.15,0,0,1,4.15,4.51l-2.54,31.06a4.15,4.15,0,0,1-4.14,3.83h-30V917.66a4.18,4.18,0,0,1-4.17,4.18h-37A4.18,4.18,0,0,1,755,917.66Z" transform="translate(0.95)"/><path class="cls-5" d="M369.89,380.4a39.27,39.27,0,1,0,39.28-39.29A39.28,39.28,0,0,0,369.89,380.4Z" transform="translate(0.95)"/><path class="cls-6" d="M344.63,525.48H473.68V485.6c0-20.18-18.78-36.53-41.94-36.53H382.06c-20.67,0-37.43,14.59-37.43,32.58Z" transform="translate(0.95)"/><path class="cls-7" d="M369.89,668.61a39.27,39.27,0,1,0,39.27-39.29A39.28,39.28,0,0,0,369.89,668.61Z" transform="translate(0.95)"/><path class="cls-8" d="M344.63,813.69H473.68V773.81c0-20.18-18.79-36.54-41.94-36.54H382.06c-20.67,0-37.43,14.6-37.43,32.59Z" transform="translate(0.95)"/></g></svg>