<svg xmlns="http://www.w3.org/2000/svg" xmlns:xlink="http://www.w3.org/1999/xlink" viewBox="0 0 1198 1198"><defs><style>.cls-1{fill:url(#linear-gradient);}.cls-2{fill:#fff;}.cls-2,.cls-3{stroke:#4b5a73;stroke-linecap:round;stroke-linejoin:round;stroke-width:14px;}.cls-3{fill:url(#linear-gradient-3);}</style><linearGradient id="linear-gradient" x1="601.08" y1="7.44" x2="596.92" y2="1192.97" gradientUnits="userSpaceOnUse"><stop offset="0" stop-color="#60b3fd"/><stop offset="0.8" stop-color="#5287df"/><stop offset="0.89" stop-color="#5287df"/></linearGradient><linearGradient id="linear-gradient-3" x1="607.55" y1="814.7" x2="607.55" y2="259.57" gradientUnits="userSpaceOnUse"><stop offset="0" stop-color="#5287df"/><stop offset="1" stop-color="#60b3fd"/></linearGradient></defs><title>FAQ</title><g id="Background"><rect class="cls-1" width="1198" height="1198"/></g><g id="Background_copy" data-name="Background copy"><rect class="cls-1" width="1198" height="1198"/></g><g id="FAQ"><path class="cls-2" d="M973.69,110.19H226.32c-29.1,0-52.69,25.35-52.69,56.62v714.7c0,31.27,23.59,56.61,52.69,56.61H518.79l88.76,153.75,88.76-153.75H973.69c29.09,0,52.68-25.34,52.68-56.61V166.81C1026.37,135.54,1002.78,110.19,973.69,110.19Z" transform="translate(-2 -1)"/><path class="cls-3" d="M612.62,259.57c104.25,0,168.8,49,168.8,136.16,0,117.45-119.8,133-119.8,224H558.17c0-119.78,95.67-126.78,95.67-201.48,0-32.67-20.21-47.46-54.46-47.46-38.12,0-58.33,22.58-59.12,69.24H433.68C434.47,325.7,501.36,259.57,612.62,259.57ZM667.31,753.9c0,35.63-25.17,60.8-60.11,60.8s-59.42-25.17-59.42-60.8,24.49-60.13,59.42-60.13S667.31,718.25,667.31,753.9Z" transform="translate(-2 -1)"/></g></svg>