<svg xmlns="http://www.w3.org/2000/svg" xmlns:xlink="http://www.w3.org/1999/xlink" viewBox="0 0 1344 1343"><defs><style>.cls-1{fill:url(#linear-gradient);}.cls-2,.cls-33{fill:#fff;}.cls-10,.cls-11,.cls-12,.cls-2,.cls-3,.cls-33,.cls-34,.cls-35,.cls-4,.cls-5,.cls-6,.cls-7,.cls-8,.cls-9{stroke:#4b5a73;}.cls-10,.cls-11,.cls-12,.cls-2,.cls-33,.cls-34,.cls-35,.cls-8,.cls-9{stroke-linecap:round;stroke-linejoin:round;}.cls-2,.cls-35{stroke-width:18px;}.cls-3,.cls-4,.cls-5,.cls-6,.cls-7{stroke-miterlimit:10;}.cls-3,.cls-34,.cls-4,.cls-5,.cls-6,.cls-7{stroke-width:7px;}.cls-3{fill:url(#New_Gradient_Swatch_1);}.cls-4{fill:url(#New_Gradient_Swatch_1-2);}.cls-5{fill:url(#New_Gradient_Swatch_1-3);}.cls-6{fill:url(#New_Gradient_Swatch_1-4);}.cls-7{fill:url(#New_Gradient_Swatch_1-5);}.cls-35,.cls-8{fill:none;}.cls-10,.cls-11,.cls-12,.cls-33,.cls-8,.cls-9{stroke-width:10px;}.cls-9{fill:url(#linear-gradient-2);}.cls-10{fill:url(#linear-gradient-3);}.cls-11{fill:url(#linear-gradient-4);}.cls-12{fill:url(#linear-gradient-5);}.cls-13{opacity:0.8;}.cls-14{fill:url(#New_Gradient_Swatch_1-6);}.cls-15{fill:#f9fbfe;}.cls-16{fill:url(#New_Gradient_Swatch_1-7);}.cls-17{fill:url(#New_Gradient_Swatch_1-8);}.cls-18{fill:url(#New_Gradient_Swatch_1-9);}.cls-19{fill:url(#New_Gradient_Swatch_1-10);}.cls-20{fill:url(#New_Gradient_Swatch_1-11);}.cls-21{fill:url(#New_Gradient_Swatch_1-12);}.cls-22{fill:url(#New_Gradient_Swatch_1-13);}.cls-23{fill:url(#New_Gradient_Swatch_1-14);}.cls-24{fill:url(#New_Gradient_Swatch_1-15);}.cls-25{fill:url(#New_Gradient_Swatch_1-16);}.cls-26{fill:url(#New_Gradient_Swatch_1-17);}.cls-27{fill:url(#New_Gradient_Swatch_1-18);}.cls-28{fill:url(#New_Gradient_Swatch_1-19);}.cls-29{fill:url(#New_Gradient_Swatch_1-20);}.cls-30{fill:url(#New_Gradient_Swatch_1-21);}.cls-31{fill:url(#New_Gradient_Swatch_1-22);}.cls-32{fill:url(#New_Gradient_Swatch_1-23);}.cls-34{fill:url(#New_Gradient_Swatch_1-24);}.cls-36{fill:url(#New_Gradient_Swatch_1-25);}.cls-37{fill:url(#New_Gradient_Swatch_1-26);}.cls-38{fill:url(#New_Gradient_Swatch_1-27);}.cls-39{fill:url(#New_Gradient_Swatch_1-28);}.cls-40{fill:url(#New_Gradient_Swatch_1-29);}.cls-41{fill:url(#New_Gradient_Swatch_1-30);}.cls-42{fill:url(#New_Gradient_Swatch_1-31);}.cls-43{fill:url(#New_Gradient_Swatch_1-32);}.cls-44{fill:url(#New_Gradient_Swatch_1-33);}.cls-45{fill:#4b5a73;}.cls-46{fill:url(#New_Gradient_Swatch_1-34);}</style><linearGradient id="linear-gradient" x1="674.33" y1="8.34" x2="669.66" y2="1337.36" gradientUnits="userSpaceOnUse"><stop offset="0" stop-color="#60b3fd"/><stop offset="0.8" stop-color="#5287df"/><stop offset="0.89" stop-color="#5287df"/></linearGradient><linearGradient id="New_Gradient_Swatch_1" x1="140.67" y1="378.69" x2="240.71" y2="378.69" gradientUnits="userSpaceOnUse"><stop offset="0" stop-color="#5287df"/><stop offset="1" stop-color="#60b3fd"/></linearGradient><linearGradient id="New_Gradient_Swatch_1-2" x1="244.25" y1="361.36" x2="272.08" y2="361.36" xlink:href="#New_Gradient_Swatch_1"/><linearGradient id="New_Gradient_Swatch_1-3" x1="276.32" y1="370.57" x2="316.52" y2="370.57" xlink:href="#New_Gradient_Swatch_1"/><linearGradient id="New_Gradient_Swatch_1-4" x1="321.4" y1="387.37" x2="377.42" y2="387.37" xlink:href="#New_Gradient_Swatch_1"/><linearGradient id="New_Gradient_Swatch_1-5" x1="380.36" y1="368.41" x2="441" y2="368.41" xlink:href="#New_Gradient_Swatch_1"/><linearGradient id="linear-gradient-2" x1="162.5" y1="588.9" x2="273.85" y2="588.9" xlink:href="#linear-gradient"/><linearGradient id="linear-gradient-3" x1="449.37" y1="294.51" x2="578.55" y2="294.51" xlink:href="#linear-gradient"/><linearGradient id="linear-gradient-4" x1="476.25" y1="267.05" x2="751" y2="267.05" xlink:href="#linear-gradient"/><linearGradient id="linear-gradient-5" x1="508.68" y1="183.63" x2="561.35" y2="183.63" xlink:href="#linear-gradient"/><linearGradient id="New_Gradient_Swatch_1-6" x1="192" y1="193.13" x2="218.31" y2="193.13" xlink:href="#New_Gradient_Swatch_1"/><linearGradient id="New_Gradient_Swatch_1-7" x1="208.02" y1="187.53" x2="238.42" y2="187.53" xlink:href="#New_Gradient_Swatch_1"/><linearGradient id="New_Gradient_Swatch_1-8" x1="228.97" y1="189.2" x2="255.5" y2="189.2" xlink:href="#New_Gradient_Swatch_1"/><linearGradient id="New_Gradient_Swatch_1-9" x1="181.12" y1="128.6" x2="220.43" y2="128.6" xlink:href="#New_Gradient_Swatch_1"/><linearGradient id="New_Gradient_Swatch_1-10" x1="88.09" y1="128.6" x2="148.17" y2="128.6" xlink:href="#New_Gradient_Swatch_1"/><linearGradient id="New_Gradient_Swatch_1-11" x1="246.7" y1="197.07" x2="272.4" y2="197.07" xlink:href="#New_Gradient_Swatch_1"/><linearGradient id="New_Gradient_Swatch_1-12" x1="181.8" y1="196.43" x2="201.97" y2="196.43" xlink:href="#New_Gradient_Swatch_1"/><linearGradient id="New_Gradient_Swatch_1-13" x1="214.77" y1="193.05" x2="239.39" y2="193.05" xlink:href="#New_Gradient_Swatch_1"/><linearGradient id="New_Gradient_Swatch_1-14" x1="193.33" y1="198.29" x2="208.02" y2="198.29" xlink:href="#New_Gradient_Swatch_1"/><linearGradient id="New_Gradient_Swatch_1-15" x1="325.53" y1="223.88" x2="351.85" y2="223.88" xlink:href="#New_Gradient_Swatch_1"/><linearGradient id="New_Gradient_Swatch_1-16" x1="341.55" y1="218.27" x2="371.95" y2="218.27" xlink:href="#New_Gradient_Swatch_1"/><linearGradient id="New_Gradient_Swatch_1-17" x1="362.5" y1="219.94" x2="389.03" y2="219.94" xlink:href="#New_Gradient_Swatch_1"/><linearGradient id="New_Gradient_Swatch_1-18" x1="314.65" y1="159.34" x2="353.96" y2="159.34" xlink:href="#New_Gradient_Swatch_1"/><linearGradient id="New_Gradient_Swatch_1-19" x1="221.62" y1="159.34" x2="281.7" y2="159.34" xlink:href="#New_Gradient_Swatch_1"/><linearGradient id="New_Gradient_Swatch_1-20" x1="380.23" y1="227.82" x2="405.93" y2="227.82" xlink:href="#New_Gradient_Swatch_1"/><linearGradient id="New_Gradient_Swatch_1-21" x1="315.33" y1="227.17" x2="335.5" y2="227.17" xlink:href="#New_Gradient_Swatch_1"/><linearGradient id="New_Gradient_Swatch_1-22" x1="348.3" y1="223.8" x2="372.93" y2="223.8" xlink:href="#New_Gradient_Swatch_1"/><linearGradient id="New_Gradient_Swatch_1-23" x1="326.86" y1="229.03" x2="341.55" y2="229.03" xlink:href="#New_Gradient_Swatch_1"/><linearGradient id="New_Gradient_Swatch_1-24" x1="276.74" y1="1029.5" x2="304.74" y2="1029.5" xlink:href="#New_Gradient_Swatch_1"/><linearGradient id="New_Gradient_Swatch_1-25" x1="187.3" y1="256" x2="213.61" y2="256" xlink:href="#New_Gradient_Swatch_1"/><linearGradient id="New_Gradient_Swatch_1-26" x1="203.31" y1="250.4" x2="233.71" y2="250.4" xlink:href="#New_Gradient_Swatch_1"/><linearGradient id="New_Gradient_Swatch_1-27" x1="224.27" y1="252.07" x2="250.79" y2="252.07" xlink:href="#New_Gradient_Swatch_1"/><linearGradient id="New_Gradient_Swatch_1-28" x1="176.42" y1="191.47" x2="215.73" y2="191.47" xlink:href="#New_Gradient_Swatch_1"/><linearGradient id="New_Gradient_Swatch_1-29" x1="83.39" y1="191.47" x2="143.46" y2="191.47" xlink:href="#New_Gradient_Swatch_1"/><linearGradient id="New_Gradient_Swatch_1-30" x1="241.99" y1="259.95" x2="267.7" y2="259.95" xlink:href="#New_Gradient_Swatch_1"/><linearGradient id="New_Gradient_Swatch_1-31" x1="177.09" y1="259.3" x2="197.27" y2="259.3" xlink:href="#New_Gradient_Swatch_1"/><linearGradient id="New_Gradient_Swatch_1-32" x1="210.06" y1="255.93" x2="234.69" y2="255.93" xlink:href="#New_Gradient_Swatch_1"/><linearGradient id="New_Gradient_Swatch_1-33" x1="188.63" y1="261.16" x2="203.31" y2="261.16" xlink:href="#New_Gradient_Swatch_1"/><linearGradient id="New_Gradient_Swatch_1-34" x1="886.74" y1="841.89" x2="1151.19" y2="841.89" xlink:href="#New_Gradient_Swatch_1"/></defs><title>Flickr Gallery</title><g id="Layer_1" data-name="Layer 1"><rect class="cls-1" width="1344" height="1343"/></g><g id="Flickr_Gallery" data-name="Flickr Gallery"><path class="cls-2" d="M376.46,89.78V360a12.7,12.7,0,0,1-12.66,12.79H72.58A12.74,12.74,0,0,1,59.91,360V89.78A12.73,12.73,0,0,1,72.58,77H363.8A12.69,12.69,0,0,1,376.46,89.78Z" transform="translate(72 71)"/><path class="cls-2" d="M758.46,89.78V360a12.7,12.7,0,0,1-12.66,12.79H454.58A12.74,12.74,0,0,1,441.91,360V89.78A12.73,12.73,0,0,1,454.58,77H745.8A12.69,12.69,0,0,1,758.46,89.78Z" transform="translate(72 71)"/><path class="cls-2" d="M1134.09,89.78V360a12.7,12.7,0,0,1-12.65,12.79H830.21A12.74,12.74,0,0,1,817.54,360V89.78A12.73,12.73,0,0,1,830.21,77h291.23A12.69,12.69,0,0,1,1134.09,89.78Z" transform="translate(72 71)"/><path class="cls-2" d="M376.46,453.78V724a12.7,12.7,0,0,1-12.66,12.79H72.58A12.74,12.74,0,0,1,59.91,724V453.78A12.73,12.73,0,0,1,72.58,441H363.8A12.69,12.69,0,0,1,376.46,453.78Z" transform="translate(72 71)"/><path class="cls-2" d="M376.46,817.78V1088a12.7,12.7,0,0,1-12.66,12.79H72.58A12.74,12.74,0,0,1,59.91,1088V817.78A12.73,12.73,0,0,1,72.58,805H363.8A12.69,12.69,0,0,1,376.46,817.78Z" transform="translate(72 71)"/><polygon class="cls-3" points="240.71 339.75 240.71 435 140.67 435 140.67 322.38 190.69 322.38 190.69 339.75 240.71 339.75"/><polygon class="cls-4" points="272.08 325.97 272.08 435 244.25 435 244.25 325.97 248.82 325.97 248.82 312.11 251.49 312.11 251.49 301.82 256.22 301.82 256.22 287.71 260.2 287.71 260.2 301.82 264.31 301.82 264.31 312.11 266.95 312.11 266.95 325.97 272.08 325.97"/><rect class="cls-5" x="276.32" y="306.13" width="40.21" height="128.86"/><polygon class="cls-6" points="377.42 343.62 377.42 435 321.4 435 321.4 343.62 324.01 343.62 324.01 339.75 374.91 339.75 374.91 343.62 377.42 343.62"/><polygon class="cls-7" points="441 335 441 435 380.36 435 380.36 316.32 413.18 301.82 413.18 335 441 335"/><line class="cls-8" x1="290.18" y1="759.13" x2="290.18" y2="739.1"/><line class="cls-8" x1="329.8" y1="591.28" x2="339.8" y2="573.95"/><line class="cls-8" x1="329.8" y1="728.51" x2="339.8" y2="745.83"/><line class="cls-8" x1="369.39" y1="659.89" x2="389.42" y2="659.89"/><line class="cls-8" x1="250.57" y1="591.28" x2="240.57" y2="573.95"/><line class="cls-8" x1="376.12" y1="709.51" x2="358.8" y2="699.51"/><line class="cls-8" x1="221.57" y1="620.27" x2="204.25" y2="610.28"/><line class="cls-8" x1="210.97" y1="659.89" x2="190.95" y2="659.89"/><line class="cls-8" x1="376.12" y1="610.28" x2="358.79" y2="620.28"/><line class="cls-8" x1="204.24" y1="709.51" x2="221.57" y2="699.5"/><line class="cls-8" x1="290.18" y1="580.68" x2="290.18" y2="560.66"/><line class="cls-8" x1="250.56" y1="728.5" x2="240.56" y2="745.83"/><path class="cls-9" d="M273.85,588.9a55.68,55.68,0,1,1-55.67-55.68A55.67,55.67,0,0,1,273.85,588.9Z" transform="translate(72 71)"/><path class="cls-10" d="M578.55,362.1H461.45A12.08,12.08,0,0,1,449.37,350V226.91Z" transform="translate(72 71)"/><path class="cls-11" d="M750,222.31,751,350a12,12,0,0,1-12.06,12.06H476.25L683.84,172Z" transform="translate(72 71)"/><path class="cls-12" d="M561.35,183.63A26.34,26.34,0,1,1,535,157.3,26.32,26.32,0,0,1,561.35,183.63Z" transform="translate(72 71)"/><g class="cls-13"><ellipse class="cls-14" cx="205.16" cy="193.13" rx="13.16" ry="12.77"/><ellipse class="cls-15" cx="205.55" cy="193.51" rx="12.76" ry="12.39"/><ellipse class="cls-15" cx="223.22" cy="187.53" rx="15.2" ry="17.8"/><ellipse class="cls-16" cx="223.22" cy="187.53" rx="15.2" ry="17.8"/><ellipse class="cls-15" cx="223.22" cy="188.46" rx="15.2" ry="16.88"/><ellipse class="cls-17" cx="242.23" cy="189.2" rx="13.26" ry="11.18"/><ellipse class="cls-15" cx="241.73" cy="189.92" rx="12.76" ry="10.46"/><path class="cls-18" d="M220.43,134.87c-21.75,0-31.55.2-34.31.2s-5-2.9-5-6.47,2.24-6.47,5-6.47S205.66,129.41,220.43,134.87Z" transform="translate(72 71)"/><path class="cls-19" d="M88.09,134.87c14,0,58.23.2,60,.2s-30.76-2.9-30.76-6.47-1.44-6.47-3.21-6.47S97.6,129.41,88.09,134.87Z" transform="translate(72 71)"/><ellipse class="cls-15" cx="260.47" cy="197.67" rx="10.65" ry="8.4"/><ellipse class="cls-20" cx="259.55" cy="197.07" rx="12.85" ry="8.99"/><ellipse class="cls-15" cx="258.65" cy="197.67" rx="12.47" ry="8.4"/><path class="cls-15" d="M223.79,135.75c-22.85,0-33.15.17-36,.17a5.52,5.52,0,0,1,0-11C190.64,124.89,208.27,131.09,223.79,135.75Z" transform="translate(72 71)"/><ellipse class="cls-21" cx="191.88" cy="196.43" rx="10.09" ry="9.17"/><ellipse class="cls-15" cx="192.12" cy="196.84" rx="9.85" ry="8.76"/><rect class="cls-15" x="182.32" y="196.05" width="77.42" height="10.87"/><path class="cls-15" d="M84.73,135.75c14.69,0,61.19.17,63.06.17s-32.32-2.47-32.32-5.52-1.51-5.51-3.38-5.51S94.72,131.09,84.73,135.75Z" transform="translate(72 71)"/><ellipse class="cls-22" cx="227.08" cy="193.05" rx="12.31" ry="11.93"/><ellipse class="cls-15" cx="227.04" cy="193.85" rx="12.27" ry="11.49"/><ellipse class="cls-23" cx="200.67" cy="198.29" rx="7.34" ry="6.68"/><ellipse class="cls-15" cx="200.96" cy="199.03" rx="7.62" ry="6.53"/></g><g class="cls-13"><ellipse class="cls-24" cx="338.69" cy="223.88" rx="13.16" ry="12.77"/><ellipse class="cls-15" cx="339.08" cy="224.26" rx="12.76" ry="12.39"/><ellipse class="cls-15" cx="356.75" cy="218.27" rx="15.2" ry="17.8"/><ellipse class="cls-25" cx="356.75" cy="218.27" rx="15.2" ry="17.8"/><ellipse class="cls-15" cx="356.75" cy="219.2" rx="15.2" ry="16.88"/><ellipse class="cls-26" cx="375.77" cy="219.94" rx="13.26" ry="11.18"/><ellipse class="cls-15" cx="375.26" cy="220.66" rx="12.76" ry="10.46"/><path class="cls-27" d="M354,165.61c-21.75,0-31.55.2-34.31.2s-5-2.9-5-6.47,2.24-6.46,5-6.46S339.2,160.15,354,165.61Z" transform="translate(72 71)"/><path class="cls-28" d="M221.62,165.61c14,0,58.23.2,60,.2s-30.76-2.9-30.76-6.47-1.44-6.46-3.21-6.46S231.13,160.15,221.62,165.61Z" transform="translate(72 71)"/><ellipse class="cls-15" cx="394" cy="228.41" rx="10.65" ry="8.4"/><ellipse class="cls-29" cx="393.08" cy="227.82" rx="12.85" ry="8.99"/><ellipse class="cls-15" cx="392.18" cy="228.41" rx="12.47" ry="8.4"/><path class="cls-15" d="M357.32,166.49c-22.85,0-33.15.17-36.05.17a5.52,5.52,0,0,1,0-11C324.17,155.63,341.8,161.83,357.32,166.49Z" transform="translate(72 71)"/><ellipse class="cls-30" cx="325.42" cy="227.17" rx="10.09" ry="9.17"/><ellipse class="cls-15" cx="325.65" cy="227.58" rx="9.85" ry="8.76"/><rect class="cls-15" x="315.85" y="226.79" width="77.42" height="10.87"/><path class="cls-15" d="M218.26,166.49c14.69,0,61.19.17,63.06.17S249,164.19,249,161.15s-1.51-5.52-3.38-5.52S228.25,161.83,218.26,166.49Z" transform="translate(72 71)"/><ellipse class="cls-31" cx="360.61" cy="223.8" rx="12.31" ry="11.93"/><ellipse class="cls-15" cx="360.57" cy="224.59" rx="12.27" ry="11.49"/><ellipse class="cls-32" cx="334.21" cy="229.03" rx="7.34" ry="6.68"/><ellipse class="cls-15" cx="334.49" cy="229.77" rx="7.62" ry="6.53"/></g><path class="cls-33" d="M316,929.29c-5.38-16.59-38.63-21.21-61.2-18.58-4.48-22.29-19.16-52.48-36.61-52.48s-32.12,30.19-36.6,52.46c-22.57-2.63-55.83,2-61.22,18.61s18.79,39.87,38.6,51c-9.48,20.65-15.36,53.71-1.23,64s43.73-5.55,60.45-20.94c16.71,15.4,46.33,31.2,60.46,20.93s8.24-43.3-1.24-63.95C297.21,969.19,321.39,945.9,316,929.29Z" transform="translate(72 71)"/><line class="cls-8" x1="290.74" y1="1002.85" x2="290.74" y2="1015.94"/><line class="cls-8" x1="264.52" y1="1021.97" x2="277.35" y2="1025.12"/><line class="cls-8" x1="274.98" y1="1051.91" x2="281.94" y2="1040.68"/><line class="cls-8" x1="306.69" y1="1051.22" x2="298.16" y2="1041.13"/><line class="cls-8" x1="316.79" y1="1021.97" x2="303.61" y2="1025.84"/><circle class="cls-34" cx="290.74" cy="1029.5" r="14"/><path class="cls-2" d="M1021.48,313.53a66.95,66.95,0,0,0,45.46-116.14,36.34,36.34,0,0,0-36.39-43c-.43,0-.83.12-1.26.14a56.47,56.47,0,0,0-110.58,7.13c-1-.09-1.89-.29-2.87-.29a29.77,29.77,0,0,0-29.77,29.77,29.28,29.28,0,0,0,1.68,9.45A68.3,68.3,0,0,0,925.16,326.1" transform="translate(72 71)"/><line class="cls-35" x1="1052.99" y1="256.11" x2="1052.99" y2="433.45"/><line class="cls-35" x1="998.55" y1="299.38" x2="1052.99" y2="357.06"/><line class="cls-35" x1="1052.99" y1="323.11" x2="1104.64" y2="290.31"/><g class="cls-13"><ellipse class="cls-36" cx="200.45" cy="256" rx="13.16" ry="12.77"/><ellipse class="cls-15" cx="200.85" cy="256.39" rx="12.76" ry="12.39"/><ellipse class="cls-15" cx="218.51" cy="250.4" rx="15.2" ry="17.8"/><ellipse class="cls-37" cx="218.51" cy="250.4" rx="15.2" ry="17.8"/><ellipse class="cls-15" cx="218.51" cy="251.33" rx="15.2" ry="16.88"/><ellipse class="cls-38" cx="237.53" cy="252.07" rx="13.26" ry="11.18"/><ellipse class="cls-15" cx="237.03" cy="252.79" rx="12.76" ry="10.46"/><path class="cls-39" d="M215.73,197.74c-21.75,0-31.56.2-34.31.2s-5-2.9-5-6.47,2.24-6.46,5-6.46S201,192.28,215.73,197.74Z" transform="translate(72 71)"/><path class="cls-40" d="M83.39,197.74c14,0,58.23.2,60,.2s-30.75-2.9-30.75-6.47S111.2,185,109.42,185,92.89,192.28,83.39,197.74Z" transform="translate(72 71)"/><ellipse class="cls-15" cx="255.77" cy="260.54" rx="10.65" ry="8.4"/><ellipse class="cls-41" cx="254.84" cy="259.95" rx="12.85" ry="8.99"/><ellipse class="cls-15" cx="253.95" cy="260.54" rx="12.47" ry="8.4"/><path class="cls-15" d="M219.08,198.62c-22.85,0-33.15.17-36.05.17a5.52,5.52,0,0,1,0-11C185.93,187.76,203.57,194,219.08,198.62Z" transform="translate(72 71)"/><ellipse class="cls-42" cx="187.18" cy="259.3" rx="10.09" ry="9.17"/><ellipse class="cls-15" cx="187.41" cy="259.71" rx="9.85" ry="8.76"/><rect class="cls-15" x="177.62" y="258.92" width="77.42" height="10.87"/><path class="cls-15" d="M80,198.62c14.69,0,61.19.17,63.05.17s-32.31-2.47-32.31-5.52-1.52-5.51-3.38-5.51S90,194,80,198.62Z" transform="translate(72 71)"/><ellipse class="cls-43" cx="222.38" cy="255.93" rx="12.31" ry="11.93"/><ellipse class="cls-15" cx="222.33" cy="256.72" rx="12.27" ry="11.49"/><ellipse class="cls-44" cx="195.97" cy="261.16" rx="7.34" ry="6.68"/><ellipse class="cls-15" cx="196.25" cy="261.9" rx="7.62" ry="6.53"/></g><path class="cls-2" d="M1134.09,469.51v602.76c0,15.72-12.16,28.52-27.38,28.52H476.77c-15.11,0-27.4-12.8-27.4-28.52V469.51c0-15.74,12.29-28.51,27.4-28.51h629.94C1121.93,441,1134.09,453.77,1134.09,469.51Z" transform="translate(72 71)"/><ellipse class="cls-45" cx="708.5" cy="841.89" rx="132.23" ry="131.95"/><ellipse class="cls-46" cx="1018.96" cy="841.89" rx="132.23" ry="131.95"/></g></svg>