<svg xmlns="http://www.w3.org/2000/svg" xmlns:xlink="http://www.w3.org/1999/xlink" viewBox="0 0 1198 1198"><defs><style>.cls-1{fill:url(#linear-gradient);}.cls-2{fill:#fff;}.cls-2,.cls-7{stroke:#4b5a73;stroke-linecap:round;stroke-linejoin:round;stroke-width:14px;}.cls-3{fill:url(#linear-gradient-3);}.cls-4{fill:url(#linear-gradient-4);}.cls-5{fill:url(#linear-gradient-5);}.cls-6{fill:url(#linear-gradient-6);}.cls-7{fill:none;}.cls-8{fill:url(#linear-gradient-7);}</style><linearGradient id="linear-gradient" x1="601.08" y1="7.44" x2="596.92" y2="1192.97" gradientUnits="userSpaceOnUse"><stop offset="0" stop-color="#60b3fd"/><stop offset="0.8" stop-color="#5287df"/><stop offset="0.89" stop-color="#5287df"/></linearGradient><linearGradient id="linear-gradient-3" x1="417.37" y1="411.71" x2="417.37" y2="349.44" gradientUnits="userSpaceOnUse"><stop offset="0" stop-color="#5287df"/><stop offset="1" stop-color="#60b3fd"/></linearGradient><linearGradient id="linear-gradient-4" x1="768.24" y1="411.71" x2="768.24" y2="349.44" xlink:href="#linear-gradient-3"/><linearGradient id="linear-gradient-5" x1="590.51" y1="530.48" x2="590.51" y2="468.22" xlink:href="#linear-gradient-3"/><linearGradient id="linear-gradient-6" x1="590.51" y1="782.87" x2="590.51" y2="596.89" xlink:href="#linear-gradient-3"/><linearGradient id="linear-gradient-7" x1="764.33" y1="919.26" x2="764.33" y2="846.82" xlink:href="#linear-gradient-3"/></defs><title>Form Builder</title><g id="Background"><rect class="cls-1" width="1198" height="1198"/></g><g id="Background_copy" data-name="Background copy"><rect class="cls-1" width="1198" height="1198"/></g><g id="Form_Builder" data-name="Form Builder"><path class="cls-2" d="M180.32,157.54A23.46,23.46,0,0,0,156.86,181v840a23.46,23.46,0,0,0,23.46,23.46h840a23.46,23.46,0,0,0,23.46-23.46V181a23.46,23.46,0,0,0-23.46-23.46Z" transform="translate(-2 -1)"/><rect class="cls-3" x="270.92" y="349.44" width="292.9" height="62.27"/><rect class="cls-4" x="626.37" y="349.44" width="283.73" height="62.27"/><rect class="cls-5" x="270.92" y="468.22" width="639.18" height="62.26"/><rect class="cls-6" x="270.92" y="596.89" width="639.18" height="185.98"/><rect class="cls-7" x="270.92" y="349.44" width="295.5" height="62.27"/><rect class="cls-7" x="626.37" y="349.44" width="283.73" height="62.27"/><rect class="cls-7" x="270.92" y="468.22" width="639.18" height="62.26"/><rect class="cls-7" x="270.92" y="596.89" width="639.18" height="185.98"/><rect class="cls-8" x="630.6" y="846.82" width="267.46" height="72.45" rx="21.52"/><rect class="cls-7" x="630.6" y="846.82" width="267.46" height="72.45" rx="21.52"/></g></svg>