<svg xmlns="http://www.w3.org/2000/svg" xmlns:xlink="http://www.w3.org/1999/xlink" viewBox="0 0 1198 1327.62"><defs><style>.cls-1,.cls-5,.cls-9{fill:none;}.cls-2{fill:url(#linear-gradient);}.cls-3{fill:#fff;}.cls-3,.cls-4,.cls-5,.cls-7,.cls-8,.cls-9{stroke:#4b5a73;stroke-linecap:round;stroke-linejoin:round;}.cls-3,.cls-4,.cls-5,.cls-7,.cls-8{stroke-width:14px;}.cls-4{fill:url(#linear-gradient-3);}.cls-6{clip-path:url(#clip-path);}.cls-7{fill:url(#linear-gradient-4);}.cls-8{fill:url(#linear-gradient-5);}.cls-9{stroke-width:2px;}</style><linearGradient id="linear-gradient" x1="601.08" y1="137.06" x2="596.92" y2="1322.58" gradientUnits="userSpaceOnUse"><stop offset="0" stop-color="#60b3fd"/><stop offset="0.8" stop-color="#5287df"/><stop offset="0.89" stop-color="#5287df"/></linearGradient><linearGradient id="linear-gradient-3" x1="342.66" y1="849.3" x2="342.66" y2="352.75" gradientUnits="userSpaceOnUse"><stop offset="0" stop-color="#5287df"/><stop offset="1" stop-color="#60b3fd"/></linearGradient><clipPath id="clip-path" transform="translate(-2 128.62)"><rect class="cls-1" x="634.31" y="184.2" width="460.56" height="833.65" rx="27.38"/></clipPath><linearGradient id="linear-gradient-4" x1="864.59" y1="1083.37" x2="864.59" y2="612.47" xlink:href="#linear-gradient-3"/><linearGradient id="linear-gradient-5" x1="875.1" y1="374.69" x2="875.1" y2="-121.62" xlink:href="#linear-gradient-3"/></defs><title>Hit Counter</title><g id="Background"><rect class="cls-2" y="129.62" width="1198" height="1198"/></g><g id="Background_copy" data-name="Background copy"><rect class="cls-2" y="129.62" width="1198" height="1198"/></g><g id="Hit_Counter" data-name="Hit Counter"><rect class="cls-3" x="105.13" y="312.82" width="460.56" height="833.65" rx="27.38"/><path class="cls-4" d="M460.13,470.22V731.83c0,70.49-45.72,117.47-117.47,117.47s-117.47-47-117.47-117.47v-25.4h85.72v25.4c0,19,11.43,31.75,31.75,31.75s31.75-12.7,31.75-31.75V667.06q-15.24,9.53-38.1,9.53c-65.4,0-111.12-47-111.12-117.47v-88.9c0-70.48,45.72-117.47,117.47-117.47S460.13,399.74,460.13,470.22Zm-85.72,88.9v-88.9c0-19.05-11.43-31.75-31.75-31.75s-31.75,12.7-31.75,31.75v88.9c0,19,11.43,31.75,31.75,31.75S374.41,578.17,374.41,559.12Z" transform="translate(-2 128.62)"/><rect class="cls-3" x="632.31" y="312.82" width="460.56" height="833.65" rx="27.38"/><line class="cls-5" x1="734.47" y1="608.57" x2="1081.61" y2="608.57"/><g class="cls-6"><path class="cls-7" d="M979.17,612.47v79.12L864.89,1083.37H777L895.67,697.24H750V612.47Z" transform="translate(-2 128.62)"/><path class="cls-8" d="M906.83,21.18V-4.21c0-19-11.42-31.73-31.74-31.73s-31.72,12.7-31.72,31.73V60.53Q858.6,51,881.44,51c65.37,0,111.08,47,111.08,117.42v88.84c0,70.45-45.71,117.42-117.43,117.42s-117.4-47-117.4-117.42V-4.21c0-70.44,45.69-117.41,117.4-117.41s117.43,47,117.43,117.41V21.18ZM843.37,168.43v88.84c0,19,11.42,31.74,31.72,31.74s31.74-12.7,31.74-31.74V168.43c0-19.05-11.42-31.74-31.74-31.74S843.37,149.38,843.37,168.43Z" transform="translate(-2 128.62)"/></g><rect class="cls-9" x="632.31" y="312.82" width="460.56" height="833.65" rx="27.38"/><line class="cls-5" x1="668.79" y1="608.57" x2="695.06" y2="608.57"/></g></svg>