<svg xmlns="http://www.w3.org/2000/svg" xmlns:xlink="http://www.w3.org/1999/xlink" viewBox="0 0 1344 1343"><defs><style>.cls-1{fill:url(#linear-gradient);}.cls-2{fill:#fff;}.cls-2,.cls-3,.cls-4,.cls-5,.cls-6{stroke:#4b5a73;stroke-linecap:round;stroke-linejoin:round;stroke-width:18px;}.cls-3{fill:url(#linear-gradient-2);}.cls-4{fill:url(#linear-gradient-3);}.cls-5{fill:url(#linear-gradient-4);}.cls-6{fill:none;}</style><linearGradient id="linear-gradient" x1="674.33" y1="8.34" x2="669.66" y2="1337.36" gradientUnits="userSpaceOnUse"><stop offset="0" stop-color="#60b3fd"/><stop offset="0.8" stop-color="#5287df"/><stop offset="0.89" stop-color="#5287df"/></linearGradient><linearGradient id="linear-gradient-2" x1="136.82" y1="836.92" x2="533.55" y2="836.92" xlink:href="#linear-gradient"/><linearGradient id="linear-gradient-3" x1="219.37" y1="752.58" x2="1063.18" y2="752.58" xlink:href="#linear-gradient"/><linearGradient id="linear-gradient-4" x1="318.98" y1="496.38" x2="480.73" y2="496.38" xlink:href="#linear-gradient"/></defs><title>Image Resizer</title><g id="Layer_1" data-name="Layer 1"><rect class="cls-1" width="1344" height="1343"/></g><g id="Image_Resizer" data-name="Image Resizer"><path class="cls-2" d="M1063.18,222.85v784.62a37,37,0,0,1-37,37H173.92a37.1,37.1,0,0,1-37.1-37V222.85a37.08,37.08,0,0,1,37.1-37h852.21A37,37,0,0,1,1063.18,222.85Z" transform="translate(72 71)"/><path class="cls-3" d="M533.55,1044.52H173.92a37.1,37.1,0,0,1-37.1-37V629.32Z" transform="translate(72 71)"/><path class="cls-4" d="M1060.05,615.18l3.13,392.29a37,37,0,0,1-37,37H219.37L856.93,460.64Z" transform="translate(72 71)"/><path class="cls-5" d="M480.73,496.39a80.88,80.88,0,1,1-80.85-80.87A80.85,80.85,0,0,1,480.73,496.39Z" transform="translate(72 71)"/><path class="cls-6" d="M80.77,200.78c0-84.69,9.66-93,108-93" transform="translate(72 71)"/><path class="cls-6" d="M1037.07,107.77c84.47,6.06,92.08,16.3,85,114.39" transform="translate(72 71)"/><path class="cls-6" d="M173.78,1121c-84.69,0-93-9.66-93-108" transform="translate(72 71)"/><path class="cls-6" d="M1134.61,1020.53c0,84.69-9.67,93-108,93" transform="translate(72 71)"/></g></svg>