<svg xmlns="http://www.w3.org/2000/svg" xmlns:xlink="http://www.w3.org/1999/xlink" viewBox="0 0 1198 1198"><defs><style>.cls-1{fill:url(#linear-gradient);}.cls-2{fill:#fff;}.cls-2,.cls-3,.cls-4{stroke:#4b5a73;stroke-linecap:round;stroke-linejoin:round;stroke-width:14px;}.cls-3{fill:url(#linear-gradient-3);}.cls-4{fill:none;}</style><linearGradient id="linear-gradient" x1="601.08" y1="7.44" x2="596.92" y2="1192.97" gradientUnits="userSpaceOnUse"><stop offset="0" stop-color="#60b3fd"/><stop offset="0.8" stop-color="#5287df"/><stop offset="0.89" stop-color="#5287df"/></linearGradient><linearGradient id="linear-gradient-3" x1="601" y1="732.35" x2="601" y2="298" gradientUnits="userSpaceOnUse"><stop offset="0" stop-color="#5287df"/><stop offset="1" stop-color="#60b3fd"/></linearGradient></defs><title>Image Slider</title><g id="Background"><rect class="cls-1" width="1198" height="1198"/></g><g id="Background_copy" data-name="Background copy"><rect class="cls-1" width="1198" height="1198"/></g><g id="Image_Slider" data-name="Image Slider"><path class="cls-2" d="M1082.05,916.75c0,15.14-13.76,27.42-30.74,27.42H150.68c-17,0-30.73-12.28-30.73-27.42V113.6c0-15.15,13.76-27.42,30.73-27.42h900.63c17,0,30.74,12.27,30.74,27.42Z" transform="translate(-2 -1)"/><path class="cls-3" d="M835.28,316.77V713.61a18.7,18.7,0,0,1-18.74,18.74H385.47a18.75,18.75,0,0,1-18.74-18.74V316.77A18.75,18.75,0,0,1,385.47,298H816.54A18.7,18.7,0,0,1,835.28,316.77Z" transform="translate(-2 -1)"/><path class="cls-2" d="M567.39,732.35H385.47a18.75,18.75,0,0,1-18.74-18.74V522.33Z" transform="translate(-2 -1)"/><path class="cls-2" d="M833.69,515.17l1.59,198.44a18.7,18.7,0,0,1-18.74,18.74H408.47L731,437Z" transform="translate(-2 -1)"/><path class="cls-2" d="M527.65,437a40.91,40.91,0,1,1-40.9-40.9A40.9,40.9,0,0,1,527.65,437Z" transform="translate(-2 -1)"/><polyline class="cls-4" points="249.4 561.34 202.22 514.19 249.4 467.03"/><polyline class="cls-4" points="948.61 561.34 995.78 514.19 948.61 467.03"/><rect class="cls-2" x="410.52" y="1036.69" width="78.17" height="78.18"/><rect class="cls-2" x="559.91" y="1036.69" width="78.17" height="78.18"/><rect class="cls-2" x="709.31" y="1036.69" width="78.17" height="78.18"/></g></svg>