<svg xmlns="http://www.w3.org/2000/svg" xmlns:xlink="http://www.w3.org/1999/xlink" viewBox="0 0 1200.89 1200"><defs><style>.cls-1{fill:url(#linear-gradient);}.cls-2,.cls-6,.cls-8{fill:#fff;}.cls-10,.cls-2,.cls-3,.cls-6,.cls-7,.cls-8,.cls-9{stroke:#4b5a73;stroke-linecap:round;stroke-linejoin:round;}.cls-10,.cls-2,.cls-3{stroke-width:18px;}.cls-3,.cls-9{fill:none;}.cls-4{fill:url(#New_Gradient_Swatch_1);}.cls-5{fill:#4b5a73;}.cls-6{stroke-width:5px;}.cls-7,.cls-8,.cls-9{stroke-width:10px;}.cls-7{fill:url(#New_Gradient_Swatch_1-2);}.cls-10{fill:url(#New_Gradient_Swatch_1-3);}</style><linearGradient id="linear-gradient" x1="602.53" y1="7.46" x2="598.36" y2="1194.96" gradientUnits="userSpaceOnUse"><stop offset="0" stop-color="#60b3fd"/><stop offset="0.8" stop-color="#5287df"/><stop offset="0.89" stop-color="#5287df"/></linearGradient><linearGradient id="New_Gradient_Swatch_1" x1="805.96" y1="963.88" x2="805.96" y2="705.15" gradientUnits="userSpaceOnUse"><stop offset="0" stop-color="#5287df"/><stop offset="1" stop-color="#60b3fd"/></linearGradient><linearGradient id="New_Gradient_Swatch_1-2" x1="364.91" y1="493.58" x2="364.91" y2="469.54" xlink:href="#New_Gradient_Swatch_1"/><linearGradient id="New_Gradient_Swatch_1-3" x1="360.79" y1="862.93" x2="360.79" y2="637.78" xlink:href="#New_Gradient_Swatch_1"/></defs><title>Instagram Feed</title><g id="Layer_1" data-name="Layer 1"><rect class="cls-1" width="1200.89" height="1200"/></g><g id="Instagram_Feed" data-name="Instagram Feed"><rect class="cls-2" x="188.48" y="184.77" width="775.97" height="775.97" rx="29.29"/><line class="cls-3" x1="569.34" y1="414.81" x2="844.36" y2="414.81"/><line class="cls-3" x1="569.34" y1="359.19" x2="844.36" y2="359.19"/><line class="cls-3" x1="569.34" y1="470.44" x2="723.68" y2="470.44"/><line class="cls-3" x1="569.34" y1="803.33" x2="734.39" y2="803.33"/><line class="cls-3" x1="569.34" y1="692.92" x2="868.09" y2="692.92"/><line class="cls-3" x1="569.34" y1="750.35" x2="678.12" y2="750.35"/><path class="cls-2" d="M1013,834.52c0,114.33-92.7,207-207,207s-207-92.7-207-207,92.7-207,207-207S1013,720.18,1013,834.52Z" transform="translate(0.95)"/><path class="cls-4" d="M736.27,963.88a59.73,59.73,0,0,1-59.67-59.67V764.79a59.73,59.73,0,0,1,59.67-59.64H875.68a59.71,59.71,0,0,1,59.64,59.64V904.21a59.71,59.71,0,0,1-59.64,59.67Z" transform="translate(0.95)"/><path class="cls-5" d="M875.68,715.2a49.64,49.64,0,0,1,49.59,49.59V904.21a49.66,49.66,0,0,1-49.59,49.62H736.27a49.68,49.68,0,0,1-49.62-49.62V764.79a49.66,49.66,0,0,1,49.62-49.59H875.68m0-20.1H736.27a69.89,69.89,0,0,0-69.72,69.69V904.21a69.92,69.92,0,0,0,69.72,69.72H875.68a69.91,69.91,0,0,0,69.69-69.72V764.79a69.88,69.88,0,0,0-69.69-69.69Z" transform="translate(0.95)"/><path class="cls-6" d="M881.46,744.11a10.83,10.83,0,1,1-10.82,10.82A10.83,10.83,0,0,1,881.46,744.11Z" transform="translate(0.95)"/><path class="cls-2" d="M806,771.8a62.7,62.7,0,1,0,62.72,62.71A62.68,62.68,0,0,0,806,771.8Z" transform="translate(0.95)"/><path class="cls-2" d="M482.23,315V514.6a9.41,9.41,0,0,1-9.42,9.44H256a9.44,9.44,0,0,1-9.43-9.44V315a9.43,9.43,0,0,1,9.43-9.43h216.8A9.4,9.4,0,0,1,482.23,315Z" transform="translate(0.95)"/><path class="cls-7" d="M399.94,481.56a12,12,0,0,1-12,12h-46a12,12,0,0,1,0-24h46A12,12,0,0,1,399.94,481.56Z" transform="translate(0.95)"/><path class="cls-8" d="M384.83,428.33a32.94,32.94,0,0,0,22.37-57.15,19,19,0,0,0,.29-2.95,18.2,18.2,0,0,0-18.2-18.2c-.21,0-.41.05-.62.06a27.79,27.79,0,0,0-54.41,3.51c-.47,0-.93-.14-1.41-.14a14.65,14.65,0,0,0-14.65,14.65,14.39,14.39,0,0,0,.83,4.65,33.6,33.6,0,0,0,18.4,61.75" transform="translate(0.95)"/><line class="cls-9" x1="365.85" y1="365.14" x2="365.85" y2="452.4"/><line class="cls-9" x1="339.07" y1="386.43" x2="365.85" y2="414.81"/><line class="cls-9" x1="365.85" y1="398.11" x2="391.27" y2="381.97"/><path class="cls-10" d="M482.23,647.49V853.21a9.7,9.7,0,0,1-9.71,9.72H249.07a9.73,9.73,0,0,1-9.73-9.72V647.49a9.72,9.72,0,0,1,9.73-9.71H472.52A9.69,9.69,0,0,1,482.23,647.49Z" transform="translate(0.95)"/><path class="cls-8" d="M343.37,862.93h-94.3a9.73,9.73,0,0,1-9.73-9.72V754.07Z" transform="translate(0.95)"/><path class="cls-8" d="M481.41,750.36l.82,102.85a9.7,9.7,0,0,1-9.71,9.72H261L428.15,709.84Z" transform="translate(0.95)"/><path class="cls-8" d="M329.51,719.21A21.21,21.21,0,1,1,308.32,698,21.19,21.19,0,0,1,329.51,719.21Z" transform="translate(0.95)"/></g></svg>