<svg xmlns="http://www.w3.org/2000/svg" xmlns:xlink="http://www.w3.org/1999/xlink" viewBox="0 0 1344 1343"><defs><style>.cls-1{fill:url(#linear-gradient);}.cls-2,.cls-4,.cls-5{fill:#fff;}.cls-2,.cls-3,.cls-4,.cls-5,.cls-7,.cls-8{stroke:#4b5a73;}.cls-2,.cls-3,.cls-4,.cls-7,.cls-8{stroke-linecap:round;stroke-linejoin:round;}.cls-2,.cls-3,.cls-8{stroke-width:18px;}.cls-3{fill:none;}.cls-4,.cls-7{stroke-width:10px;}.cls-5{stroke-miterlimit:10;stroke-width:16px;}.cls-6{fill:#4b5a73;}.cls-7{fill:url(#New_Gradient_Swatch_1);}.cls-8{fill:url(#New_Gradient_Swatch_1-2);}</style><linearGradient id="linear-gradient" x1="674.33" y1="8.34" x2="669.66" y2="1337.36" gradientUnits="userSpaceOnUse"><stop offset="0" stop-color="#60b3fd"/><stop offset="0.8" stop-color="#5287df"/><stop offset="0.89" stop-color="#5287df"/></linearGradient><linearGradient id="New_Gradient_Swatch_1" x1="937.39" y1="628.64" x2="985.5" y2="628.64" gradientUnits="userSpaceOnUse"><stop offset="0" stop-color="#5287df"/><stop offset="1" stop-color="#60b3fd"/></linearGradient><linearGradient id="New_Gradient_Swatch_1-2" x1="654.68" y1="805.27" x2="933.01" y2="805.27" xlink:href="#New_Gradient_Swatch_1"/></defs><title>Instagram Gallery</title><g id="Layer_1" data-name="Layer 1"><rect class="cls-1" width="1344" height="1343"/></g><g id="Instagram_Gallery" data-name="Instagram Gallery"><path class="cls-2" d="M759.14,121.93V394.54a12.89,12.89,0,0,1-13,12.87h-298a12.93,12.93,0,0,1-13-12.87V121.93a12.93,12.93,0,0,1,13-12.88h298A12.88,12.88,0,0,1,759.14,121.93Z" transform="translate(72 71)"/><path class="cls-2" d="M573.94,407.41H448.18a12.93,12.93,0,0,1-13-12.87V263.15Z" transform="translate(72 71)"/><path class="cls-2" d="M758,258.24l1.1,136.3a12.89,12.89,0,0,1-13,12.87H464.08L687,204.55Z" transform="translate(72 71)"/><path class="cls-2" d="M555.47,217a28.28,28.28,0,1,1-28.27-28.1A28.18,28.18,0,0,1,555.47,217Z" transform="translate(72 71)"/><path class="cls-2" d="M388.79,121.84V392.06a12.69,12.69,0,0,1-12.66,12.78H84.9a12.74,12.74,0,0,1-12.67-12.78V121.84A12.74,12.74,0,0,1,84.9,109.05H376.13A12.7,12.7,0,0,1,388.79,121.84Z" transform="translate(72 71)"/><line class="cls-3" x1="303.03" y1="427.36" x2="303.03" y2="407.3"/><line class="cls-3" x1="345.5" y1="259.21" x2="356.22" y2="241.85"/><line class="cls-3" x1="345.5" y1="396.68" x2="356.22" y2="414.04"/><line class="cls-3" x1="387.94" y1="327.95" x2="409.41" y2="327.95"/><line class="cls-3" x1="260.57" y1="259.21" x2="249.84" y2="241.85"/><line class="cls-3" x1="395.16" y1="377.65" x2="376.59" y2="367.63"/><line class="cls-3" x1="229.48" y1="288.26" x2="210.91" y2="278.24"/><line class="cls-3" x1="218.12" y1="327.94" x2="196.66" y2="327.94"/><line class="cls-3" x1="395.16" y1="278.24" x2="376.58" y2="288.26"/><line class="cls-3" x1="210.9" y1="377.65" x2="229.47" y2="367.63"/><line class="cls-3" x1="303.03" y1="248.59" x2="303.03" y2="228.53"/><line class="cls-3" x1="260.56" y1="396.68" x2="249.84" y2="414.04"/><path class="cls-2" d="M290.71,257c0,30.79-26.72,55.77-59.68,55.77s-59.69-25-59.69-55.77,26.73-55.78,59.69-55.78S290.71,226.14,290.71,257Z" transform="translate(72 71)"/><path class="cls-2" d="M375.81,458a12.59,12.59,0,0,1,12.63,12.64V738.15a12.6,12.6,0,0,1-12.63,12.63H85.23a12.65,12.65,0,0,1-12.65-12.63V470.63A12.64,12.64,0,0,1,85.23,458Z" transform="translate(72 71)"/><path class="cls-2" d="M315.61,587.17c-4.76-14.66-34.15-18.74-54.1-16.42-3.95-19.7-16.92-46.39-32.35-46.39s-28.39,26.69-32.35,46.37c-19.95-2.32-49.34,1.78-54.1,16.45s16.6,35.24,34.11,45.09c-8.38,18.26-13.57,47.47-1.09,56.54s38.65-4.9,53.43-18.5c14.77,13.61,41,27.57,53.43,18.49s7.29-38.27-1.09-56.52C299,622.44,320.38,601.85,315.61,587.17Z" transform="translate(72 71)"/><line class="cls-3" x1="301.66" y1="660.43" x2="301.66" y2="672.01"/><line class="cls-3" x1="278.48" y1="677.33" x2="289.82" y2="680.12"/><line class="cls-3" x1="287.73" y1="703.8" x2="293.88" y2="693.87"/><line class="cls-3" x1="315.75" y1="703.18" x2="308.21" y2="694.27"/><line class="cls-3" x1="324.68" y1="677.33" x2="313.03" y2="680.75"/><circle class="cls-4" cx="302.51" cy="686.16" r="8.83"/><path class="cls-2" d="M1127.77,132.18V394.12a12.65,12.65,0,0,1-13,12.38h-298c-7.16,0-13-5.55-13-12.38V132.18c0-6.84,5.8-12.37,13-12.37h298A12.64,12.64,0,0,1,1127.77,132.18Z" transform="translate(72 71)"/><path class="cls-2" d="M1010.83,340.36a61.69,61.69,0,0,0,41.89-107,33.65,33.65,0,0,0,.56-5.53,34.09,34.09,0,0,0-34.09-34.09c-.4,0-.77.1-1.16.12a52,52,0,0,0-101.91,6.57c-.89-.08-1.74-.26-2.64-.26A27.43,27.43,0,0,0,886,227.57a27,27,0,0,0,1.55,8.71,62.94,62.94,0,0,0,34.47,115.66" transform="translate(72 71)"/><line class="cls-3" x1="1045.52" y1="293.01" x2="1045.52" y2="456.44"/><line class="cls-3" x1="995.34" y1="332.89" x2="1045.52" y2="386.04"/><line class="cls-3" x1="1045.52" y1="354.76" x2="1093.12" y2="324.53"/><path class="cls-5" d="M639.12,1102.56c-78.6,0-142.56-64-142.56-142.55V650.55c0-78.61,64-142.56,142.56-142.56H948.55c78.61,0,142.56,64,142.56,142.56V960c0,78.6-63.95,142.55-142.56,142.55Z" transform="translate(72 71)"/><path class="cls-6" d="M948.55,520.17c71.9,0,130.39,58.48,130.39,130.38V960c0,71.89-58.49,130.38-130.39,130.38H639.12c-71.89,0-130.39-58.49-130.39-130.38V650.55c0-71.9,58.5-130.38,130.39-130.38H948.55m0-24.33H639.12c-85.1,0-154.73,69.62-154.73,154.71V960c0,85.07,69.63,154.72,154.73,154.72H948.55c85.11,0,154.73-69.65,154.73-154.72V650.55c0-85.09-69.62-154.71-154.73-154.71Z" transform="translate(72 71)"/><path class="cls-7" d="M961.43,604.58a24.06,24.06,0,1,1-24,24.07A24.06,24.06,0,0,1,961.43,604.58Z" transform="translate(72 71)"/><path class="cls-8" d="M793.83,666.1A139.17,139.17,0,1,0,933,805.27,139.14,139.14,0,0,0,793.83,666.1Z" transform="translate(72 71)"/><path class="cls-2" d="M398.17,817.65V1079.6A12.64,12.64,0,0,1,385.22,1092h-298c-7.16,0-13-5.55-13-12.38V817.65c0-6.83,5.81-12.37,13-12.37h298A12.63,12.63,0,0,1,398.17,817.65Z" transform="translate(72 71)"/><path class="cls-2" d="M281.24,1025.84a61.69,61.69,0,0,0,41.89-107,34.78,34.78,0,0,0,.56-5.53,34.1,34.1,0,0,0-34.09-34.1c-.4,0-.77.11-1.17.13a52,52,0,0,0-101.9,6.57,25.94,25.94,0,0,0-2.64-.27A27.14,27.14,0,0,0,158,921.76a62.94,62.94,0,0,0,34.48,115.66" transform="translate(72 71)"/><line class="cls-3" x1="315.92" y1="978.49" x2="315.92" y2="1141.92"/><line class="cls-3" x1="265.75" y1="1018.36" x2="315.92" y2="1071.52"/><line class="cls-3" x1="315.92" y1="1040.24" x2="363.53" y2="1010"/></g></svg>