<svg xmlns="http://www.w3.org/2000/svg" xmlns:xlink="http://www.w3.org/1999/xlink" viewBox="0 0 1198 1198"><defs><style>.cls-1{fill:url(#linear-gradient);}.cls-2{fill:#fff;}.cls-2,.cls-3,.cls-4,.cls-5{stroke:#4b5a73;stroke-linecap:round;stroke-linejoin:round;stroke-width:14px;}.cls-3{fill:url(#linear-gradient-3);}.cls-4{fill:url(#linear-gradient-4);}.cls-5{fill:none;}</style><linearGradient id="linear-gradient" x1="601.08" y1="7.44" x2="596.92" y2="1192.97" gradientUnits="userSpaceOnUse"><stop offset="0" stop-color="#60b3fd"/><stop offset="0.8" stop-color="#5287df"/><stop offset="0.89" stop-color="#5287df"/></linearGradient><linearGradient id="linear-gradient-3" x1="601" y1="836.25" x2="601" y2="443.54" gradientUnits="userSpaceOnUse"><stop offset="0" stop-color="#5287df"/><stop offset="1" stop-color="#60b3fd"/></linearGradient><linearGradient id="linear-gradient-4" x1="601" y1="655.28" x2="601" y2="443.54" xlink:href="#linear-gradient-3"/></defs><title>Job Board</title><g id="Background"><rect class="cls-1" width="1198" height="1198"/></g><g id="Background_copy" data-name="Background copy"><rect class="cls-1" width="1198" height="1198"/></g><g id="Job_Board" data-name="Job Board"><rect class="cls-2" x="171" y="168.36" width="860" height="865.28" rx="31.75"/><rect class="cls-3" x="325.02" y="443.54" width="551.97" height="392.71"/><rect class="cls-4" x="325.02" y="443.54" width="551.97" height="211.74"/><path class="cls-5" d="M684.42,444.54H521.57V410.18A43.42,43.42,0,0,1,565,366.75h76a43.42,43.42,0,0,1,43.43,43.43Z" transform="translate(-2 -1)"/><path class="cls-2" d="M645.1,680.26a40.15,40.15,0,1,1-80.3,0v-24h80.3Z" transform="translate(-2 -1)"/></g></svg>