<svg xmlns="http://www.w3.org/2000/svg" xmlns:xlink="http://www.w3.org/1999/xlink" viewBox="0 0 1198 1198"><defs><style>.cls-1{fill:url(#linear-gradient);}.cls-2{fill:#fff;}.cls-2,.cls-3,.cls-4,.cls-5,.cls-6{stroke:#4b5a73;stroke-linecap:round;stroke-linejoin:round;stroke-width:14px;}.cls-3{fill:url(#linear-gradient-3);}.cls-4{fill:url(#linear-gradient-4);}.cls-5{fill:none;}.cls-6{fill:url(#linear-gradient-5);}</style><linearGradient id="linear-gradient" x1="601.08" y1="7.44" x2="596.92" y2="1192.97" gradientUnits="userSpaceOnUse"><stop offset="0" stop-color="#60b3fd"/><stop offset="0.8" stop-color="#5287df"/><stop offset="0.89" stop-color="#5287df"/></linearGradient><linearGradient id="linear-gradient-3" x1="603.37" y1="400.63" x2="603.37" y2="242.6" gradientUnits="userSpaceOnUse"><stop offset="0" stop-color="#5287df"/><stop offset="1" stop-color="#60b3fd"/></linearGradient><linearGradient id="linear-gradient-4" x1="605.37" y1="349.67" x2="605.37" y2="243.6" xlink:href="#linear-gradient-3"/><linearGradient id="linear-gradient-5" x1="603.37" y1="939.61" x2="603.37" y2="850.4" xlink:href="#linear-gradient-3"/></defs><title>Mailing List</title><g id="Background"><rect class="cls-1" width="1198" height="1198"/></g><g id="Background_copy" data-name="Background copy"><rect class="cls-1" width="1198" height="1198"/></g><g id="Mailing_List" data-name="Mailing List"><path class="cls-2" d="M1040.13,1048.14c0,13.73-12.48,24.86-27.87,24.86H195.74c-15.39,0-27.87-11.13-27.87-24.86V155.86c0-13.74,12.48-24.86,27.87-24.86h816.52c15.39,0,27.87,11.12,27.87,24.86Z" transform="translate(-2 -1)"/><rect class="cls-3" x="488.48" y="242.6" width="229.78" height="158.03"/><path class="cls-4" d="M583.63,340.42a30.16,30.16,0,0,0,43.47,0l93.16-96.82H490.48Z" transform="translate(-2 -1)"/><rect class="cls-5" x="328.15" y="511.7" width="550.43" height="82.94"/><rect class="cls-2" x="328.15" y="640.66" width="550.43" height="138.72"/><rect class="cls-6" x="328.15" y="850.4" width="550.43" height="89.2"/><line class="cls-5" x1="367.24" y1="687.01" x2="495.89" y2="687.01"/><line class="cls-5" x1="367.24" y1="553.17" x2="489.38" y2="553.17"/></g></svg>