<svg xmlns="http://www.w3.org/2000/svg" xmlns:xlink="http://www.w3.org/1999/xlink" viewBox="0 0 1198 1198"><defs><style>.cls-1{fill:url(#linear-gradient);}.cls-2,.cls-3{fill:#fff;}.cls-2,.cls-4{stroke:#4b5a73;stroke-linecap:round;stroke-linejoin:round;stroke-width:14px;}.cls-4{fill:url(#linear-gradient-3);}</style><linearGradient id="linear-gradient" x1="601.08" y1="7.44" x2="596.92" y2="1192.97" gradientUnits="userSpaceOnUse"><stop offset="0" stop-color="#60b3fd"/><stop offset="0.8" stop-color="#5287df"/><stop offset="0.89" stop-color="#5287df"/></linearGradient><linearGradient id="linear-gradient-3" x1="600" y1="797" x2="600" y2="308.7" gradientUnits="userSpaceOnUse"><stop offset="0" stop-color="#5287df"/><stop offset="1" stop-color="#60b3fd"/></linearGradient></defs><title>Map</title><g id="Background"><rect class="cls-1" width="1198" height="1198"/></g><g id="Background_copy" data-name="Background copy"><rect class="cls-1" width="1198" height="1198"/></g><g id="Map"><path class="cls-2" d="M151.2,127.3a25.07,25.07,0,0,0-25.07,25.06v897.58A25.07,25.07,0,0,0,151.2,1075h897.6a25.07,25.07,0,0,0,25.07-25.06V152.36a25.07,25.07,0,0,0-25.07-25.06Z" transform="translate(-2 -1)"/><path class="cls-2" d="M1073.85,398.79V304.56H894.3V125H800.06V304.56H399.93V125H305.69V304.56H126.14v94.23H305.69V798.94H126.14v94.22H305.69v179.55h94.24V893.16H800.06v179.55H894.3V893.16h179.55V798.94H894.3V398.79ZM800.06,798.94H399.93V398.79H800.06Z" transform="translate(-2 -1)"/><path class="cls-3" d="M702.07,473.54a103.6,103.6,0,1,1-103.6-103.61A103.6,103.6,0,0,1,702.07,473.54Z" transform="translate(-2 -1)"/><path class="cls-3" d="M575.6,841.68c-8-8.77-194.9-215.87-194.9-370.59,0-120.92,98.39-219.3,219.28-219.3s219.23,98.36,219.3,219.27C819.36,610.76,644.9,817.81,625,841l-24.3,28.28Z" transform="translate(-2 -1)"/><path class="cls-4" d="M600,308.7A170.14,170.14,0,0,0,429.86,478.85C429.86,610.1,600,797,600,797S770.19,598.93,770.13,478.85C770.1,384.88,694,308.7,600,308.7Zm0,237.53a71.88,71.88,0,1,1,71.89-71.87A71.89,71.89,0,0,1,600,546.23Z" transform="translate(-2 -1)"/></g></svg>