<svg xmlns="http://www.w3.org/2000/svg" xmlns:xlink="http://www.w3.org/1999/xlink" viewBox="0 0 1198 1198"><defs><style>.cls-1{fill:url(#linear-gradient);}.cls-2{fill:#fff;}.cls-2,.cls-3,.cls-4,.cls-5,.cls-6,.cls-7,.cls-8{stroke:#4b5a73;stroke-linecap:round;stroke-linejoin:round;stroke-width:14px;}.cls-3{fill:none;}.cls-4{fill:url(#linear-gradient-3);}.cls-5{fill:url(#New_Gradient_Swatch);}.cls-6{fill:url(#New_Gradient_Swatch-2);}.cls-7{fill:url(#New_Gradient_Swatch-3);}.cls-8{fill:url(#linear-gradient-4);}</style><linearGradient id="linear-gradient" x1="601.08" y1="7.44" x2="596.92" y2="1192.97" gradientUnits="userSpaceOnUse"><stop offset="0" stop-color="#60b3fd"/><stop offset="0.8" stop-color="#5287df"/><stop offset="0.89" stop-color="#5287df"/></linearGradient><linearGradient id="linear-gradient-3" x1="857.5" y1="971.37" x2="857.5" y2="928.84" gradientUnits="userSpaceOnUse"><stop offset="0" stop-color="#5287df"/><stop offset="1" stop-color="#60b3fd"/></linearGradient><linearGradient id="New_Gradient_Swatch" x1="648.23" y1="465.15" x2="826.72" y2="465.15" gradientUnits="userSpaceOnUse"><stop offset="0" stop-color="#60b3fd"/><stop offset="1" stop-color="#5287df"/></linearGradient><linearGradient id="New_Gradient_Swatch-2" x1="685.37" y1="427.21" x2="1065" y2="427.21" xlink:href="#New_Gradient_Swatch"/><linearGradient id="New_Gradient_Swatch-3" x1="730.18" y1="311.95" x2="802.95" y2="311.95" xlink:href="#New_Gradient_Swatch"/><linearGradient id="linear-gradient-4" x1="371.66" y1="430.86" x2="371.66" y2="297.9" xlink:href="#linear-gradient-3"/></defs><title>Media Gallery</title><g id="Background"><rect class="cls-1" width="1198" height="1198"/></g><g id="Background_copy" data-name="Background copy"><rect class="cls-1" width="1198" height="1198"/></g><g id="Media_Gallery" data-name="Media Gallery"><path class="cls-2" d="M543.1,645.2a16.63,16.63,0,0,1,16.67,16.69v353a16.63,16.63,0,0,1-16.67,16.67H159.68A16.68,16.68,0,0,1,143,1014.87v-353a16.68,16.68,0,0,1,16.68-16.69Z" transform="translate(-2 -1)"/><line class="cls-3" x1="243.96" y1="922.44" x2="455.12" y2="922.44"/><line class="cls-3" x1="286.69" y1="969.07" x2="412.39" y2="969.07"/><path class="cls-2" d="M1065,655.57v353a16.64,16.64,0,0,1-16.67,16.68H664.91a16.68,16.68,0,0,1-16.68-16.68v-353a16.67,16.67,0,0,1,16.68-16.67h383.42A16.63,16.63,0,0,1,1065,655.57Z" transform="translate(-2 -1)"/><path class="cls-4" d="M919.46,950.11a21.26,21.26,0,0,1-21.26,21.26H816.81a21.27,21.27,0,0,1,0-42.53H898.2A21.26,21.26,0,0,1,919.46,950.11Z" transform="translate(-2 -1)"/><path class="cls-2" d="M892.74,856A58.26,58.26,0,0,0,932.3,754.9a33.33,33.33,0,0,0,.52-5.22,32.2,32.2,0,0,0-32.19-32.2c-.38,0-.73.1-1.1.12a49.14,49.14,0,0,0-96.22,6.21c-.84-.08-1.64-.25-2.5-.25a25.6,25.6,0,0,0-24.45,34.13A59.43,59.43,0,0,0,808.92,866.9" transform="translate(-2 -1)"/><line class="cls-3" x1="855.5" y1="743.21" x2="855.5" y2="897.54"/><line class="cls-3" x1="808.13" y1="780.86" x2="855.5" y2="831.06"/><line class="cls-3" x1="855.5" y1="801.52" x2="900.45" y2="772.97"/><path class="cls-2" d="M1065,188.89v353a16.63,16.63,0,0,1-16.67,16.67H664.92a16.69,16.69,0,0,1-16.69-16.67v-353a16.68,16.68,0,0,1,16.69-16.67h383.41A16.63,16.63,0,0,1,1065,188.89Z" transform="translate(-2 -1)"/><path class="cls-5" d="M826.72,558.55H664.92a16.69,16.69,0,0,1-16.69-16.67V371.76Z" transform="translate(-2 -1)"/><path class="cls-6" d="M1063.59,365.39,1065,541.88a16.63,16.63,0,0,1-16.67,16.67h-363L972.21,295.87Z" transform="translate(-2 -1)"/><path class="cls-7" d="M803,312a36.39,36.39,0,1,1-36.37-36.38A36.37,36.37,0,0,1,803,312Z" transform="translate(-2 -1)"/><path class="cls-2" d="M558.06,189.63V541.14a16.58,16.58,0,0,1-16.6,16.63H159.61A16.64,16.64,0,0,1,143,541.14V189.63A16.63,16.63,0,0,1,159.61,173H541.46A16.58,16.58,0,0,1,558.06,189.63Z" transform="translate(-2 -1)"/><polygon class="cls-8" points="314.09 430.86 429.24 364.38 314.09 297.9 314.09 430.86"/><path class="cls-2" d="M441.94,767.89c-4.64-14.3-33.31-18.28-52.77-16-3.85-19.21-16.51-45.25-31.56-45.25s-27.69,26-31.56,45.24c-19.46-2.27-48.13,1.73-52.77,16s16.19,34.38,33.27,44c-8.17,17.81-13.24,46.3-1.06,55.15s37.7-4.78,52.12-18c14.41,13.28,39.95,26.9,52.13,18s7.1-37.33-1.07-55.14C425.75,802.29,446.6,782.21,441.94,767.89Z" transform="translate(-2 -1)"/><line class="cls-3" x1="356.1" y1="769.1" x2="356.1" y2="780.39"/><line class="cls-3" x1="333.49" y1="785.58" x2="344.55" y2="788.3"/><line class="cls-3" x1="342.51" y1="811.4" x2="348.51" y2="801.72"/><line class="cls-3" x1="369.85" y1="810.8" x2="362.49" y2="802.1"/><line class="cls-3" x1="378.55" y1="785.58" x2="367.19" y2="788.92"/></g></svg>