<svg xmlns="http://www.w3.org/2000/svg" xmlns:xlink="http://www.w3.org/1999/xlink" viewBox="0 0 1198 1198"><defs><style>.cls-1{fill:url(#linear-gradient);}.cls-2{fill:#fff;}.cls-2,.cls-3,.cls-4,.cls-5{stroke:#4b5a73;stroke-linecap:round;stroke-linejoin:round;stroke-width:14px;}.cls-3{fill:none;}.cls-4{fill:url(#linear-gradient-3);}.cls-5{fill:url(#linear-gradient-4);}</style><linearGradient id="linear-gradient" x1="601.08" y1="7.44" x2="596.92" y2="1192.97" gradientUnits="userSpaceOnUse"><stop offset="0" stop-color="#60b3fd"/><stop offset="0.8" stop-color="#5287df"/><stop offset="0.89" stop-color="#5287df"/></linearGradient><linearGradient id="linear-gradient-3" x1="595.98" y1="907.51" x2="595.98" y2="850.25" gradientUnits="userSpaceOnUse"><stop offset="0" stop-color="#5287df"/><stop offset="1" stop-color="#60b3fd"/></linearGradient><linearGradient id="linear-gradient-4" x1="595.98" y1="994.08" x2="595.98" y2="953.86" xlink:href="#linear-gradient-3"/></defs><title>Menu</title><g id="Background"><rect class="cls-1" width="1198" height="1198"/></g><g id="Background_copy" data-name="Background copy"><rect class="cls-1" width="1198" height="1198"/></g><g id="Menu"><polygon class="cls-2" points="819.56 1102.87 246.29 1102.87 246.29 238.98 819.56 105.27 819.56 1102.87"/><rect class="cls-2" x="246.29" y="238.98" width="703.41" height="863.89"/><circle class="cls-3" cx="598" cy="542.14" r="208.61"/><path class="cls-3" d="M524.42,481.79c0,.68-.18,1.34-.18,2,0,19.21,13.32,34.77,29.77,34.77s29.77-15.56,29.77-34.77c0-.7-.14-1.36-.18-2Z" transform="translate(-2 -1)"/><line class="cls-3" x1="522.42" y1="480.79" x2="522.42" y2="426.6"/><line class="cls-3" x1="552.01" y1="475.5" x2="552.01" y2="426.6"/><line class="cls-3" x1="581.6" y1="480.79" x2="581.6" y2="426.6"/><line class="cls-3" x1="552.01" y1="523.73" x2="552.01" y2="670.97"/><line class="cls-3" x1="662.44" y1="531.91" x2="662.44" y2="670.97"/><path class="cls-3" d="M664.44,420.35c-20.61,17.88-34.09,46.9-34.09,79.75s13.48,61.87,34.09,79.74Z" transform="translate(-2 -1)"/><rect class="cls-4" x="401.03" y="850.25" width="389.9" height="57.26"/><rect class="cls-5" x="482.83" y="953.86" width="226.31" height="40.22"/></g></svg>