<svg xmlns="http://www.w3.org/2000/svg" xmlns:xlink="http://www.w3.org/1999/xlink" viewBox="0 0 1344 1343"><defs><style>.cls-1{fill:url(#linear-gradient);}.cls-2{fill:#fff;}.cls-2,.cls-3,.cls-4{stroke:#4b5a73;stroke-linecap:round;stroke-linejoin:round;stroke-width:18px;}.cls-3{fill:none;}.cls-4{fill:url(#linear-gradient-2);}</style><linearGradient id="linear-gradient" x1="674.33" y1="8.34" x2="669.66" y2="1337.36" gradientUnits="userSpaceOnUse"><stop offset="0" stop-color="#60b3fd"/><stop offset="0.8" stop-color="#5287df"/><stop offset="0.89" stop-color="#5287df"/></linearGradient><linearGradient id="linear-gradient-2" x1="393.82" y1="601" x2="393.82" y2="179.95" gradientUnits="userSpaceOnUse"><stop offset="0" stop-color="#5287df"/><stop offset="1" stop-color="#60b3fd"/></linearGradient></defs><title>Microblog</title><g id="Layer_1" data-name="Layer 1"><rect class="cls-1" width="1344" height="1343"/></g><g id="Microblog"><rect class="cls-2" x="167" y="166" width="1010" height="1010" rx="38.13"/><line class="cls-3" x1="1116.25" y1="978" x2="227.75" y2="978"/><line class="cls-3" x1="1122.25" y1="864" x2="221.75" y2="864"/><line class="cls-3" x1="1127.21" y1="494" x2="761" y2="494"/><line class="cls-3" x1="1127.21" y1="385.7" x2="761" y2="385.7"/><path class="cls-4" d="M620.92,198.14V582.83A18.13,18.13,0,0,1,602.75,601H184.88a18.18,18.18,0,0,1-18.17-18.17V198.14A18.18,18.18,0,0,1,184.88,180H602.75A18.13,18.13,0,0,1,620.92,198.14Z" transform="translate(72 71)"/><path class="cls-2" d="M361.23,601H184.88a18.18,18.18,0,0,1-18.17-18.17V397.41Z" transform="translate(72 71)"/><path class="cls-2" d="M619.38,390.47l1.54,192.36A18.13,18.13,0,0,1,602.75,601H207.18l312.6-286.3Z" transform="translate(72 71)"/><path class="cls-2" d="M322.71,314.7a39.66,39.66,0,1,1-39.65-39.65A39.64,39.64,0,0,1,322.71,314.7Z" transform="translate(72 71)"/><line class="cls-3" x1="1110.25" y1="1104" x2="221.75" y2="1104"/><line class="cls-3" x1="1127.21" y1="614" x2="761" y2="614"/><line class="cls-3" x1="1122.25" y1="738" x2="221.75" y2="738"/><line class="cls-3" x1="1127.21" y1="272" x2="761" y2="272"/></g></svg>