<svg xmlns="http://www.w3.org/2000/svg" xmlns:xlink="http://www.w3.org/1999/xlink" viewBox="0 0 1198 1198"><defs><style>.cls-1{fill:url(#linear-gradient);}.cls-2{fill:#fff;}.cls-2,.cls-3,.cls-4,.cls-5{stroke:#4b5a73;stroke-linecap:round;stroke-linejoin:round;stroke-width:14px;}.cls-3{fill:url(#linear-gradient-3);}.cls-4{fill:url(#linear-gradient-4);}.cls-5{fill:none;}</style><linearGradient id="linear-gradient" x1="601.08" y1="7.44" x2="596.92" y2="1192.97" gradientUnits="userSpaceOnUse"><stop offset="0" stop-color="#60b3fd"/><stop offset="0.8" stop-color="#5287df"/><stop offset="0.89" stop-color="#5287df"/></linearGradient><linearGradient id="linear-gradient-3" x1="524.37" y1="570.47" x2="524.37" y2="264.35" gradientUnits="userSpaceOnUse"><stop offset="0" stop-color="#5287df"/><stop offset="1" stop-color="#60b3fd"/></linearGradient><linearGradient id="linear-gradient-4" x1="688.37" y1="785.28" x2="688.37" y2="480.42" xlink:href="#linear-gradient-3"/></defs><title>Multi Slider</title><g id="Background"><rect class="cls-1" width="1198" height="1198"/></g><g id="Background_copy" data-name="Background copy"><rect class="cls-1" width="1198" height="1198"/></g><g id="Multi_Slider" data-name="Multi Slider"><path class="cls-2" d="M1049.64,896.47c0,14.15-12.86,25.63-28.73,25.63H179.09c-15.87,0-28.73-11.48-28.73-25.63V145.76c0-14.16,12.86-25.63,28.73-25.63h841.82c15.87,0,28.73,11.47,28.73,25.63Z" transform="translate(-2 -1)"/><path class="cls-3" d="M689.48,277.56v279.7a13.18,13.18,0,0,1-13.21,13.21H372.47a13.23,13.23,0,0,1-13.22-13.21V277.56a13.23,13.23,0,0,1,13.22-13.21h303.8A13.18,13.18,0,0,1,689.48,277.56Z" transform="translate(-2 -1)"/><path class="cls-2" d="M500.68,570.47H372.47a13.23,13.23,0,0,1-13.22-13.21V422.45Z" transform="translate(-2 -1)"/><path class="cls-2" d="M688.37,417.41l1.11,139.85a13.18,13.18,0,0,1-13.21,13.21H388.68L616,362.32Z" transform="translate(-2 -1)"/><path class="cls-2" d="M472.67,362.32a28.83,28.83,0,1,1-28.82-28.83A28.82,28.82,0,0,1,472.67,362.32Z" transform="translate(-2 -1)"/><path class="cls-4" d="M852.8,493.58V772.12a13.14,13.14,0,0,1-13.15,13.16H537.09a13.18,13.18,0,0,1-13.16-13.16V493.58a13.16,13.16,0,0,1,13.16-13.16H839.65A13.12,13.12,0,0,1,852.8,493.58Z" transform="translate(-2 -1)"/><polygon class="cls-2" points="659.07 684.53 750.32 631.84 659.07 579.17 659.07 684.53"/><polyline class="cls-5" points="255.68 579.55 211.58 535.47 255.68 491.4"/><polyline class="cls-5" points="940.32 579.55 984.41 535.47 940.32 491.4"/><rect class="cls-2" x="422.03" y="1005.79" width="73.06" height="73.08"/><rect class="cls-2" x="561.67" y="1005.79" width="73.06" height="73.08"/><rect class="cls-2" x="701.31" y="1005.79" width="73.06" height="73.08"/></g></svg>