<svg xmlns="http://www.w3.org/2000/svg" xmlns:xlink="http://www.w3.org/1999/xlink" viewBox="0 0 1198 1198"><defs><style>.cls-1{fill:url(#linear-gradient);}.cls-2{fill:#fff;}.cls-2,.cls-3,.cls-4,.cls-5,.cls-6{stroke:#4b5a73;stroke-linecap:round;stroke-linejoin:round;stroke-width:14px;}.cls-3{fill:url(#linear-gradient-3);}.cls-4{fill:url(#linear-gradient-4);}.cls-5{fill:url(#linear-gradient-5);}.cls-6{fill:none;}</style><linearGradient id="linear-gradient" x1="601.08" y1="7.44" x2="596.92" y2="1192.97" gradientUnits="userSpaceOnUse"><stop offset="0" stop-color="#60b3fd"/><stop offset="0.8" stop-color="#5287df"/><stop offset="0.89" stop-color="#5287df"/></linearGradient><linearGradient id="linear-gradient-3" x1="263.81" y1="633.18" x2="263.81" y2="530.72" gradientUnits="userSpaceOnUse"><stop offset="0" stop-color="#5287df"/><stop offset="1" stop-color="#60b3fd"/></linearGradient><linearGradient id="linear-gradient-4" x1="380.14" y1="701.41" x2="380.14" y2="455.59" xlink:href="#linear-gradient-3"/><linearGradient id="linear-gradient-5" x1="291.73" y1="717.99" x2="291.73" y2="632.18" xlink:href="#linear-gradient-3"/></defs><title>Notification Bar</title><g id="Background"><rect class="cls-1" width="1198" height="1198"/></g><g id="Background_copy" data-name="Background copy"><rect class="cls-1" width="1198" height="1198"/></g><g id="Notification_Bar" data-name="Notification Bar"><path class="cls-2" d="M1011.86,399H190.16c-28.75,0-52.06,25.06-52.06,55.94V745.05c0,30.9,23.31,56,52.06,56h821.7c28.75,0,52-25,52-56V454.94C1063.9,424.06,1040.61,399,1011.86,399Z" transform="translate(-2 -1)"/><path class="cls-3" d="M265.84,530.72c-28.88,0-52.31,25.21-52.31,51.23s23.43,51.23,52.31,51.23h48.24V530.86Z" transform="translate(-2 -1)"/><path class="cls-4" d="M434.69,455.59A14.35,14.35,0,0,0,420.34,470V476c-28.76,26.82-70,57.12-109.11,54.85V633.18c37-4,81.31,25.62,109.11,49.43v4.45a14.36,14.36,0,0,0,28.71,0V470A14.37,14.37,0,0,0,434.69,455.59Z" transform="translate(-2 -1)"/><polygon class="cls-5" points="261.04 632.18 290.4 717.99 322.41 717.99 294.01 632.18 261.04 632.18"/><path class="cls-6" d="M487.72,543.91c14,22.05,14,54.05,0,76.09" transform="translate(-2 -1)"/><path class="cls-6" d="M507.1,512.65c25.54,40.17,25.54,98.45,0,138.6" transform="translate(-2 -1)"/><line class="cls-6" x1="622.14" y1="511.65" x2="946.88" y2="511.65"/><line class="cls-6" x1="620.42" y1="574.57" x2="946.88" y2="574.57"/><line class="cls-6" x1="620.42" y1="637.49" x2="946.88" y2="637.49"/><line class="cls-6" x1="620.42" y1="700.41" x2="823.02" y2="700.41"/></g></svg>