<svg xmlns="http://www.w3.org/2000/svg" xmlns:xlink="http://www.w3.org/1999/xlink" viewBox="0 0 1200 1200"><defs><style>.cls-1{fill:url(#linear-gradient);}.cls-2{fill:#fff;}.cls-10,.cls-11,.cls-12,.cls-13,.cls-14,.cls-15,.cls-16,.cls-17,.cls-18,.cls-19,.cls-2,.cls-20,.cls-22,.cls-3,.cls-4,.cls-5,.cls-6,.cls-7,.cls-8,.cls-9{stroke:#4b5a73;stroke-linecap:round;stroke-linejoin:round;stroke-width:10px;}.cls-3{fill:url(#linear-gradient-2);}.cls-4{fill:url(#linear-gradient-3);}.cls-5{fill:none;}.cls-6{fill:url(#linear-gradient-4);}.cls-7{fill:url(#linear-gradient-5);}.cls-8{fill:url(#linear-gradient-6);}.cls-9{fill:url(#linear-gradient-7);}.cls-10{fill:url(#linear-gradient-8);}.cls-11{fill:url(#linear-gradient-9);}.cls-12{fill:url(#linear-gradient-10);}.cls-13{fill:url(#linear-gradient-11);}.cls-14{fill:url(#linear-gradient-12);}.cls-15{fill:url(#linear-gradient-13);}.cls-16{fill:url(#linear-gradient-14);}.cls-17{fill:url(#linear-gradient-15);}.cls-18{fill:url(#linear-gradient-16);}.cls-19{fill:url(#linear-gradient-17);}.cls-20{fill:url(#linear-gradient-18);}.cls-21{fill:url(#linear-gradient-19);}.cls-22{fill:url(#linear-gradient-20);}.cls-23{fill:#4b5a73;}</style><linearGradient id="linear-gradient" x1="602.08" y1="7.46" x2="597.91" y2="1194.96" gradientUnits="userSpaceOnUse"><stop offset="0" stop-color="#60b3fd"/><stop offset="0.8" stop-color="#5287df"/><stop offset="0.89" stop-color="#5287df"/></linearGradient><linearGradient id="linear-gradient-2" x1="2190.52" y1="593.57" x2="2190.52" y2="538.01" gradientTransform="matrix(-1, 0, 0, 1, 2590.66, 0)" gradientUnits="userSpaceOnUse"><stop offset="0" stop-color="#5287df"/><stop offset="1" stop-color="#60b3fd"/></linearGradient><linearGradient id="linear-gradient-3" x1="2190.52" y1="668.4" x2="2190.52" y2="614.36" xlink:href="#linear-gradient-2"/><linearGradient id="linear-gradient-4" x1="518.63" y1="578.08" x2="576.46" y2="578.08" gradientTransform="matrix(1, 0, 0, 1, 0, 0)" xlink:href="#linear-gradient-2"/><linearGradient id="linear-gradient-5" x1="603.99" y1="578.08" x2="661.83" y2="578.08" gradientTransform="matrix(1, 0, 0, 1, 0, 0)" xlink:href="#linear-gradient-2"/><linearGradient id="linear-gradient-6" x1="689.35" y1="578.08" x2="747.19" y2="578.08" gradientTransform="matrix(1, 0, 0, 1, 0, 0)" xlink:href="#linear-gradient-2"/><linearGradient id="linear-gradient-7" x1="2194.11" y1="777.23" x2="2194.11" y2="721.67" xlink:href="#linear-gradient-2"/><linearGradient id="linear-gradient-8" x1="2194.12" y1="852.07" x2="2194.12" y2="798.02" xlink:href="#linear-gradient-2"/><linearGradient id="linear-gradient-9" x1="515.03" y1="761.74" x2="572.87" y2="761.74" gradientTransform="matrix(1, 0, 0, 1, 0, 0)" xlink:href="#linear-gradient-2"/><linearGradient id="linear-gradient-10" x1="600.4" y1="761.74" x2="658.23" y2="761.74" gradientTransform="matrix(1, 0, 0, 1, 0, 0)" xlink:href="#linear-gradient-2"/><linearGradient id="linear-gradient-11" x1="685.76" y1="761.74" x2="743.6" y2="761.74" gradientTransform="matrix(1, 0, 0, 1, 0, 0)" xlink:href="#linear-gradient-2"/><linearGradient id="linear-gradient-12" x1="771.12" y1="761.74" x2="828.96" y2="761.74" gradientTransform="matrix(1, 0, 0, 1, 0, 0)" xlink:href="#linear-gradient-2"/><linearGradient id="linear-gradient-13" x1="2187.05" y1="397.3" x2="2187.05" y2="341.74" xlink:href="#linear-gradient-2"/><linearGradient id="linear-gradient-14" x1="2187.05" y1="472.13" x2="2187.05" y2="418.09" xlink:href="#linear-gradient-2"/><linearGradient id="linear-gradient-15" x1="522.1" y1="381.81" x2="579.93" y2="381.81" gradientTransform="matrix(1, 0, 0, 1, 0, 0)" xlink:href="#linear-gradient-2"/><linearGradient id="linear-gradient-16" x1="607.46" y1="381.81" x2="665.3" y2="381.81" gradientTransform="matrix(1, 0, 0, 1, 0, 0)" xlink:href="#linear-gradient-2"/><linearGradient id="linear-gradient-17" x1="692.82" y1="381.81" x2="750.66" y2="381.81" gradientTransform="matrix(1, 0, 0, 1, 0, 0)" xlink:href="#linear-gradient-2"/><linearGradient id="linear-gradient-18" x1="778.19" y1="381.81" x2="836.03" y2="381.81" gradientTransform="matrix(1, 0, 0, 1, 0, 0)" xlink:href="#linear-gradient-2"/><linearGradient id="linear-gradient-19" x1="602.08" y1="7.46" x2="597.92" y2="1194.96" xlink:href="#linear-gradient"/><linearGradient id="linear-gradient-20" x1="584.81" y1="853.33" x2="584.81" y2="794.26" gradientTransform="matrix(1, 0, 0, 1, 0, 0)" xlink:href="#linear-gradient-2"/></defs><title>Order Form</title><g id="Reviews"><rect class="cls-1" width="1200" height="1200"/><rect class="cls-2" x="243.04" y="243.04" width="713.92" height="713.92" rx="25"/><path class="cls-3" d="M372.37,565.79A27.78,27.78,0,1,0,400.15,538,27.78,27.78,0,0,0,372.37,565.79Z" transform="translate(0)"/><path class="cls-4" d="M354.5,668.4h91.28V640.19c0-14.27-13.29-25.83-29.67-25.83H381c-14.62,0-26.47,10.32-26.47,23Z" transform="translate(0)"/><line class="cls-5" x1="520.98" y1="649.01" x2="739.25" y2="649.01"/><polygon class="cls-6" points="547.55 550.57 556.48 568.68 576.46 571.58 562.01 585.68 565.42 605.58 547.55 596.19 529.67 605.58 533.09 585.68 518.63 571.58 538.61 568.68 547.55 550.57"/><polygon class="cls-7" points="632.91 550.57 641.85 568.68 661.83 571.58 647.37 585.68 650.78 605.58 632.91 596.19 615.04 605.58 618.45 585.68 603.99 571.58 623.97 568.68 632.91 550.57"/><polygon class="cls-8" points="718.27 550.57 727.21 568.68 747.19 571.58 732.73 585.68 736.14 605.58 718.27 596.19 700.4 605.58 703.81 585.68 689.36 571.58 709.34 568.68 718.27 550.57"/><path class="cls-9" d="M368.77,749.46a27.78,27.78,0,1,0,27.78-27.79A27.78,27.78,0,0,0,368.77,749.46Z" transform="translate(0)"/><path class="cls-10" d="M350.91,852.07h91.27V823.86c0-14.27-13.29-25.84-29.66-25.84H377.38c-14.62,0-26.47,10.32-26.47,23.05Z" transform="translate(0)"/><line class="cls-5" x1="517.39" y1="832.68" x2="735.65" y2="832.68"/><polygon class="cls-11" points="543.95 734.24 552.89 752.35 572.87 755.25 558.41 769.35 561.82 789.25 543.95 779.85 526.08 789.25 529.49 769.35 515.03 755.25 535.01 752.35 543.95 734.24"/><polygon class="cls-12" points="629.31 734.24 638.25 752.35 658.23 755.25 643.77 769.35 647.19 789.25 629.31 779.85 611.44 789.25 614.86 769.35 600.4 755.25 620.38 752.35 629.31 734.24"/><polygon class="cls-13" points="714.68 734.24 723.61 752.35 743.6 755.25 729.14 769.35 732.55 789.25 714.68 779.85 696.81 789.25 700.22 769.35 685.76 755.25 705.74 752.35 714.68 734.24"/><polygon class="cls-14" points="800.04 734.24 808.98 752.35 828.96 755.25 814.5 769.35 817.91 789.25 800.04 779.85 782.17 789.25 785.58 769.35 771.12 755.25 791.11 752.35 800.04 734.24"/><path class="cls-15" d="M375.84,369.52a27.78,27.78,0,1,0,27.78-27.78A27.78,27.78,0,0,0,375.84,369.52Z" transform="translate(0)"/><path class="cls-16" d="M358,472.13h91.28V443.92c0-14.27-13.29-25.83-29.67-25.83H384.45c-14.63,0-26.48,10.32-26.48,23Z" transform="translate(0)"/><line class="cls-5" x1="524.45" y1="452.74" x2="742.72" y2="452.74"/><polygon class="cls-17" points="551.02 354.3 559.95 372.41 579.93 375.31 565.48 389.41 568.89 409.31 551.02 399.92 533.14 409.31 536.56 389.41 522.1 375.31 542.08 372.41 551.02 354.3"/><polygon class="cls-18" points="636.38 354.3 645.32 372.41 665.3 375.31 650.84 389.41 654.25 409.31 636.38 399.92 618.51 409.31 621.92 389.41 607.46 375.31 627.44 372.41 636.38 354.3"/><polygon class="cls-19" points="721.74 354.3 730.68 372.41 750.66 375.31 736.2 389.41 739.62 409.31 721.74 399.92 703.87 409.31 707.28 389.41 692.83 375.31 712.81 372.41 721.74 354.3"/><polygon class="cls-20" points="807.11 354.3 816.04 372.41 836.03 375.31 821.57 389.41 824.98 409.31 807.11 399.92 789.24 409.31 792.65 389.41 778.19 375.31 798.17 372.41 807.11 354.3"/></g><g id="Order_Form" data-name="Order Form"><rect class="cls-21" x="0.01" width="1199.99" height="1199.99"/><path class="cls-2" d="M916.27,961.42c0,11.37-10.34,20.6-23.09,20.6H292.07c-12.75,0-23.09-9.23-23.09-20.6V209.32c0-11.39,10.34-20.61,23.09-20.61H893.18c12.75,0,23.09,9.22,23.09,20.61Z" transform="translate(0)"/><rect class="cls-5" x="407.82" y="563.57" width="356.4" height="48.93"/><rect class="cls-2" x="407.82" y="643.22" width="356.4" height="116.58"/><rect class="cls-22" x="406.61" y="794.26" width="356.4" height="59.08"/><line class="cls-5" x1="407.82" y1="538.01" x2="498.41" y2="538.01"/><rect class="cls-5" x="407.82" y="460.94" width="356.4" height="48.94"/><line class="cls-5" x1="407.82" y1="432.8" x2="498.41" y2="432.8"/><path class="cls-23" d="M590.18,278.87h9.57V289a28.56,28.56,0,0,1,13.64,6.42l1.73,1.73-6.7,6.75a6.59,6.59,0,0,1-.54-.63,11.07,11.07,0,0,0-1.59-1.4,19,19,0,0,0-2.68-1.74,16.54,16.54,0,0,0-3.75-1.38,19,19,0,0,0-4.9-.61,12.81,12.81,0,0,0-8.36,2.58,7.61,7.61,0,0,0-3.17,6,7.36,7.36,0,0,0,2,5.21,13.45,13.45,0,0,0,5.09,3.3,60.84,60.84,0,0,0,6.91,2.16,76.94,76.94,0,0,1,7.59,2.34,36.4,36.4,0,0,1,6.92,3.35A14.76,14.76,0,0,1,617,328.7a18.17,18.17,0,0,1,2,8.72,20.72,20.72,0,0,1-1.06,6.82,15.27,15.27,0,0,1-2.74,5,24.49,24.49,0,0,1-3.75,3.52,16.51,16.51,0,0,1-4.13,2.31q-2.06.78-3.75,1.29a13.52,13.52,0,0,1-2.72.61l-1.07.1v10.07h-9.57V357.11a28.59,28.59,0,0,1-6.72-1.58,26.86,26.86,0,0,1-5.44-2.6,45.16,45.16,0,0,1-3.85-2.74,28.35,28.35,0,0,1-2.46-2.18l-.75-1,6.7-6.7c.13.18.34.46.64.82a21.71,21.71,0,0,0,2,1.87,20.51,20.51,0,0,0,3.4,2.34,22.12,22.12,0,0,0,4.86,1.83A24.11,24.11,0,0,0,595,348q6.24,0,9.85-3a9.47,9.47,0,0,0,3.61-7.57,7.25,7.25,0,0,0-2-5.18,13.42,13.42,0,0,0-5.09-3.28,60.21,60.21,0,0,0-6.91-2.16,74.58,74.58,0,0,1-7.6-2.37,36.65,36.65,0,0,1-6.91-3.37,14.81,14.81,0,0,1-5.09-5.6,18.18,18.18,0,0,1-2-8.75,17.07,17.07,0,0,1,1.77-7.87,13.88,13.88,0,0,1,4.32-5.23,33.44,33.44,0,0,1,5.09-2.93,17.23,17.23,0,0,1,4.38-1.45l1.73-.28Z" transform="translate(0)"/><circle class="cls-5" cx="592.62" cy="322.98" r="79.95"/></g></svg>