<svg xmlns="http://www.w3.org/2000/svg" xmlns:xlink="http://www.w3.org/1999/xlink" viewBox="0 0 1198 1198"><defs><style>.cls-1{fill:url(#linear-gradient);}.cls-2{fill:#fff;}.cls-3{fill:none;}.cls-3,.cls-4,.cls-5{stroke:#4b5a73;stroke-linecap:round;stroke-linejoin:round;stroke-width:14px;}.cls-4{fill:#94cdff;}.cls-5{fill:#cfe9ff;}</style><linearGradient id="linear-gradient" x1="601.08" y1="7.44" x2="596.92" y2="1192.97" gradientUnits="userSpaceOnUse"><stop offset="0" stop-color="#60b3fd"/><stop offset="0.8" stop-color="#5287df"/><stop offset="0.89" stop-color="#5287df"/></linearGradient></defs><title>PayPal Button</title><g id="Background"><rect class="cls-1" width="1198" height="1198"/></g><g id="Background_copy" data-name="Background copy"><rect class="cls-1" width="1198" height="1198"/></g><g id="PayPal_Button" data-name="PayPal Button"><path class="cls-2" d="M969.74,490.58c-6.2-50.31-36-81.36-68.47-100.48a317.46,317.46,0,0,0-1.3-88C878.51,164.55,691.12,162.53,688.3,162.54l-312.92-1.35c-12.31-.17-29.7,14-31.7,26.13L230.48,911.87c-2.82,17,3.87,30.85,21.46,30.85H419.65l12.69-77.31-23.42,148.42c-2.17,13.18,6,27,16.44,27H578.31c9.72,0,20.45-12.28,21.42-18.2l34.59-195.32c2.69-20.13,15.47-30.14,24.86-31.48,3.82-.54,62.43-2.94,75.1-3.41C896,786.42,988.52,642.85,969.74,490.58Z" transform="translate(-2 -1)"/><path class="cls-3" d="M251.94,942.72c-17.59,0-24.28-13.8-21.46-30.85l113.2-724.55c2-12.14,19.39-26.3,31.7-26.13l312.92,1.35h0c2.82,0,190.21,2,211.67,139.53,26.76,171.38-87.87,360.24-337.21,348.2-.33,0-.67,0-1,0l-68.65-1c-12.19-.18-27.41,13.06-30.51,31.88L419.65,942.72Z" transform="translate(-2 -1)"/><path class="cls-4" d="M425.36,1040.86c-10.41,0-18.61-13.85-16.44-27L509.2,378.4c1.65-10.55,11.33-14.81,21.43-18.31l277.33.09c28.81-.09,147,10.8,161.78,130.4C988.52,642.85,896,786.42,734.28,792.45c-12.67.47-71.28,2.87-75.1,3.41-9.39,1.34-22.17,11.35-24.86,31.48l-34.59,195.32c-1,5.92-11.7,18.2-21.42,18.2Z" transform="translate(-2 -1)"/><path class="cls-5" d="M901.28,390.07c.22-1.8.28-3.62.48-5.43-37.15-21.37-78.34-24.51-93.8-24.46l-277.33-.09c-10.1,3.5-19.78,7.76-21.43,18.31l-76.86,487,30.25-184.32c3.1-18.82,18.32-32.06,30.51-31.88l68.65,1c.34,0,.68,0,1,0C769.63,660.26,883.67,532,901.28,390.07Z" transform="translate(-2 -1)"/></g></svg>