<svg xmlns="http://www.w3.org/2000/svg" xmlns:xlink="http://www.w3.org/1999/xlink" viewBox="0 0 1344 1343"><defs><style>.cls-1{fill:url(#linear-gradient);}.cls-2,.cls-6{fill:#fff;}.cls-2,.cls-3,.cls-4,.cls-5,.cls-6{stroke:#4b5a73;stroke-width:18px;}.cls-2,.cls-3,.cls-4,.cls-5{stroke-linecap:round;stroke-linejoin:round;}.cls-3{fill:url(#linear-gradient-2);}.cls-4{fill:url(#linear-gradient-3);}.cls-5{fill:url(#linear-gradient-4);}.cls-6{stroke-miterlimit:10;}.cls-7{font-size:333.48px;fill:#4b5a73;font-family:ArialMT, Arial;}</style><linearGradient id="linear-gradient" x1="674.33" y1="8.34" x2="669.66" y2="1337.36" gradientUnits="userSpaceOnUse"><stop offset="0" stop-color="#60b3fd"/><stop offset="0.8" stop-color="#5287df"/><stop offset="0.89" stop-color="#5287df"/></linearGradient><linearGradient id="linear-gradient-2" x1="136.82" y1="822.76" x2="533.55" y2="822.76" xlink:href="#linear-gradient"/><linearGradient id="linear-gradient-3" x1="219.37" y1="738.42" x2="1063.18" y2="738.42" xlink:href="#linear-gradient"/><linearGradient id="linear-gradient-4" x1="318.98" y1="482.22" x2="480.73" y2="482.22" xlink:href="#linear-gradient"/></defs><title>Photo Watermark</title><g id="Layer_1" data-name="Layer 1"><rect class="cls-1" width="1344" height="1343"/></g><g id="Photo_Watermark" data-name="Photo Watermark"><path class="cls-2" d="M1063.18,208.73V993.27a37,37,0,0,1-37,37.11H173.89a37.13,37.13,0,0,1-37.07-37.11V208.73a37.11,37.11,0,0,1,37.07-37.11h852.25A37,37,0,0,1,1063.18,208.73Z" transform="translate(72 71)"/><path class="cls-2" d="M1063.18,208.7V993.31a37,37,0,0,1-37,37H173.92a37.1,37.1,0,0,1-37.1-37V208.7a37.08,37.08,0,0,1,37.1-37.06h852.21A37,37,0,0,1,1063.18,208.7Z" transform="translate(72 71)"/><path class="cls-3" d="M533.55,1030.36H173.92a37.1,37.1,0,0,1-37.1-37V615.16Z" transform="translate(72 71)"/><path class="cls-4" d="M1060.05,601l3.13,392.29a37,37,0,0,1-37,37H219.37L856.93,446.48Z" transform="translate(72 71)"/><path class="cls-5" d="M480.73,482.23a80.88,80.88,0,1,1-80.85-80.87A80.85,80.85,0,0,1,480.73,482.23Z" transform="translate(72 71)"/><circle class="cls-6" cx="979.75" cy="371.11" r="218.89"/><text class="cls-7" transform="translate(859.34 486.7)">C</text></g></svg>