<svg xmlns="http://www.w3.org/2000/svg" xmlns:xlink="http://www.w3.org/1999/xlink" viewBox="0 0 1198 1198"><defs><style>.cls-1{fill:url(#linear-gradient);}.cls-2,.cls-4,.cls-5{fill:#fff;}.cls-2,.cls-3,.cls-4,.cls-6{stroke:#4b5a73;stroke-linecap:round;stroke-linejoin:round;}.cls-2{stroke-width:2px;}.cls-3,.cls-4,.cls-6{stroke-width:14px;}.cls-3{fill:url(#linear-gradient-3);}.cls-6{fill:url(#linear-gradient-4);}</style><linearGradient id="linear-gradient" x1="601.08" y1="7.44" x2="596.92" y2="1192.97" gradientUnits="userSpaceOnUse"><stop offset="0" stop-color="#60b3fd"/><stop offset="0.8" stop-color="#5287df"/><stop offset="0.89" stop-color="#5287df"/></linearGradient><linearGradient id="linear-gradient-3" x1="602.68" y1="879.31" x2="602.68" y2="314.33" gradientUnits="userSpaceOnUse"><stop offset="0" stop-color="#5287df"/><stop offset="1" stop-color="#60b3fd"/></linearGradient><linearGradient id="linear-gradient-4" x1="872.01" y1="927.97" x2="872.01" y2="664.74" xlink:href="#linear-gradient-3"/></defs><title>Photo Editor</title><g id="Background"><rect class="cls-1" width="1198" height="1198"/></g><g id="Background_copy" data-name="Background copy"><rect class="cls-1" width="1198" height="1198"/></g><g id="Photo_Editor" data-name="Photo Editor"><rect class="cls-2" x="145.14" y="146.14" width="905.73" height="905.73" rx="31.72"/><path class="cls-3" d="M907.42,338.74V854.93A24.32,24.32,0,0,1,883,879.31H322.32a24.39,24.39,0,0,1-24.39-24.38V338.74a24.39,24.39,0,0,1,24.39-24.41H883A24.33,24.33,0,0,1,907.42,338.74Z" transform="translate(-2 -1)"/><path class="cls-4" d="M559,879.31H322.32a24.39,24.39,0,0,1-24.39-24.38V606.13Z" transform="translate(-2 -1)"/><path class="cls-4" d="M905.35,596.81l2.07,258.12A24.32,24.32,0,0,1,883,879.31H352.23L771.7,495.14Z" transform="translate(-2 -1)"/><path class="cls-4" d="M507.26,495.14a53.21,53.21,0,1,1-53.2-53.21A53.21,53.21,0,0,1,507.26,495.14Z" transform="translate(-2 -1)"/><polygon class="cls-5" points="1027.07 760.9 1027.07 718.07 928.88 619.88 740.69 808.07 723.09 791.8 712.57 836.19 695.52 853.24 705.94 863.65 674.02 994.67 805.4 962.72 815.47 972.49 831.71 956.24 878.64 944.33 861.14 926.82 1027.07 760.9"/><polygon class="cls-2" points="816.28 926.82 1003.63 739.48 928.88 664.74 741.55 852.07 741.43 851.96 741.36 852.26 740.38 853.24 740.98 853.84 717.17 951.53 814.92 927.76 815.13 927.97 815.47 927.63 816.78 927.31 816.28 926.82"/><polygon class="cls-6" points="815.13 927.97 740.38 853.24 928.88 664.74 1003.63 739.48 815.13 927.97"/><polygon class="cls-4" points="816.78 927.31 717.17 951.53 741.43 851.96 816.78 927.31"/></g></svg>