<svg id="Photo_Gallery" data-name="Photo Gallery" xmlns="http://www.w3.org/2000/svg" xmlns:xlink="http://www.w3.org/1999/xlink" viewBox="0 0 1200 1200"><defs><style>.cls-1{fill:url(#linear-gradient);}.cls-2{fill:#fff;}.cls-2,.cls-3,.cls-4,.cls-5,.cls-6,.cls-7{stroke:#4b5a73;stroke-linecap:round;stroke-linejoin:round;stroke-width:10px;}.cls-3{fill:none;}.cls-4{fill:url(#linear-gradient-2);}.cls-5{fill:url(#linear-gradient-3);}.cls-6{fill:url(#linear-gradient-4);}.cls-7{fill:url(#linear-gradient-5);}</style><linearGradient id="linear-gradient" x1="602.08" y1="7.46" x2="597.91" y2="1194.96" gradientUnits="userSpaceOnUse"><stop offset="0" stop-color="#60b3fd"/><stop offset="0.8" stop-color="#5287df"/><stop offset="0.89" stop-color="#5287df"/></linearGradient><linearGradient id="linear-gradient-2" x1="637.93" y1="500.74" x2="790.98" y2="500.74" xlink:href="#linear-gradient"/><linearGradient id="linear-gradient-3" x1="669.78" y1="468.21" x2="995.31" y2="468.21" xlink:href="#linear-gradient"/><linearGradient id="linear-gradient-4" x1="708.2" y1="369.37" x2="770.6" y2="369.37" xlink:href="#linear-gradient"/><linearGradient id="linear-gradient-5" x1="324.85" y1="415.2" x2="436.2" y2="415.2" xlink:href="#linear-gradient"/></defs><title>Photo Gallery</title><rect class="cls-1" width="1200" height="1200"/><path class="cls-2" d="M547.78,655.14a14.26,14.26,0,0,1,14.29,14.31V972.13a14.26,14.26,0,0,1-14.29,14.3H219a14.31,14.31,0,0,1-14.3-14.3V669.45A14.31,14.31,0,0,1,219,655.14Z" transform="translate(0 0)"/><path class="cls-2" d="M995.31,664V966.71A14.27,14.27,0,0,1,981,981H652.23a14.31,14.31,0,0,1-14.3-14.31V664a14.3,14.3,0,0,1,14.3-14.3H981A14.26,14.26,0,0,1,995.31,664Z" transform="translate(0 0)"/><path class="cls-2" d="M865.48,889.53a66.95,66.95,0,0,0,45.46-116.14,36.34,36.34,0,0,0-36.39-43c-.43,0-.83.12-1.26.14a56.47,56.47,0,0,0-110.58,7.13c-1-.09-1.89-.29-2.87-.29a29.77,29.77,0,0,0-29.77,29.77,29.28,29.28,0,0,0,1.68,9.45A68.3,68.3,0,0,0,769.16,902.1" transform="translate(0 0)"/><line class="cls-3" x1="824.99" y1="761.11" x2="824.99" y2="938.45"/><line class="cls-3" x1="770.55" y1="804.38" x2="824.99" y2="862.06"/><line class="cls-3" x1="824.99" y1="828.11" x2="876.64" y2="795.31"/><path class="cls-2" d="M995.31,263.84v302.7A14.26,14.26,0,0,1,981,580.84H652.24a14.31,14.31,0,0,1-14.31-14.3V263.84a14.3,14.3,0,0,1,14.31-14.29H981A14.25,14.25,0,0,1,995.31,263.84Z" transform="translate(0 0)"/><path class="cls-4" d="M791,580.84H652.24a14.31,14.31,0,0,1-14.31-14.3V420.65Z" transform="translate(0 0)"/><path class="cls-5" d="M994.1,415.2l1.21,151.34A14.26,14.26,0,0,1,981,580.84H669.78l246-225.26Z" transform="translate(0 0)"/><path class="cls-6" d="M770.6,369.37a31.2,31.2,0,1,1-31.18-31.2A31.18,31.18,0,0,1,770.6,369.37Z" transform="translate(0 0)"/><path class="cls-2" d="M560.61,264.48V565.91a14.22,14.22,0,0,1-14.24,14.25H218.93a14.26,14.26,0,0,1-14.24-14.25V264.48a14.26,14.26,0,0,1,14.24-14.26H546.37A14.22,14.22,0,0,1,560.61,264.48Z" transform="translate(0 0)"/><path class="cls-2" d="M486.58,791.77c-5.38-16.59-38.64-21.21-61.21-18.58-4.47-22.28-19.15-52.48-36.6-52.48s-32.13,30.19-36.61,52.46c-22.57-2.62-55.82,2-61.21,18.61s18.78,39.87,38.59,51c-9.48,20.66-15.36,53.71-1.23,64s43.73-5.55,60.46-20.93c16.7,15.39,46.33,31.19,60.45,20.92s8.24-43.3-1.24-64C467.8,831.67,492,808.38,486.58,791.77Z" transform="translate(0 0)"/><line class="cls-3" x1="389.33" y1="794.33" x2="389.33" y2="807.42"/><line class="cls-3" x1="363.11" y1="813.45" x2="375.94" y2="816.6"/><line class="cls-3" x1="373.57" y1="843.39" x2="380.53" y2="832.17"/><line class="cls-3" x1="405.28" y1="842.7" x2="396.74" y2="832.61"/><line class="cls-3" x1="415.37" y1="813.45" x2="402.19" y2="817.32"/><line class="cls-3" x1="380.52" y1="514.43" x2="380.52" y2="494.41"/><line class="cls-3" x1="420.14" y1="346.58" x2="430.14" y2="329.25"/><line class="cls-3" x1="420.14" y1="483.81" x2="430.14" y2="501.13"/><line class="cls-3" x1="459.73" y1="415.19" x2="479.76" y2="415.19"/><line class="cls-3" x1="340.91" y1="346.58" x2="330.91" y2="329.25"/><line class="cls-3" x1="466.47" y1="464.81" x2="449.14" y2="454.81"/><line class="cls-3" x1="311.91" y1="375.57" x2="294.59" y2="365.58"/><line class="cls-3" x1="301.31" y1="415.19" x2="281.29" y2="415.19"/><line class="cls-3" x1="466.47" y1="365.58" x2="449.13" y2="375.58"/><line class="cls-3" x1="294.58" y1="464.81" x2="311.91" y2="454.8"/><line class="cls-3" x1="380.52" y1="335.98" x2="380.52" y2="315.96"/><line class="cls-3" x1="340.9" y1="483.8" x2="330.9" y2="501.13"/><path class="cls-7" d="M436.2,415.2a55.68,55.68,0,1,1-55.68-55.68A55.68,55.68,0,0,1,436.2,415.2Z" transform="translate(0 0)"/></svg>