<svg xmlns="http://www.w3.org/2000/svg" xmlns:xlink="http://www.w3.org/1999/xlink" viewBox="0 0 1344 1343"><defs><style>.cls-1{fill:url(#linear-gradient);}.cls-2{fill:#fff;}.cls-2,.cls-3,.cls-4,.cls-5,.cls-6{stroke:#4b5a73;stroke-linecap:round;stroke-linejoin:round;stroke-width:18px;}.cls-3{fill:url(#New_Gradient_Swatch_1);}.cls-4{fill:url(#New_Gradient_Swatch_1-2);}.cls-5{fill:url(#New_Gradient_Swatch_1-3);}.cls-6{fill:none;}</style><linearGradient id="linear-gradient" x1="674.33" y1="8.34" x2="669.66" y2="1337.36" gradientUnits="userSpaceOnUse"><stop offset="0" stop-color="#60b3fd"/><stop offset="0.8" stop-color="#5287df"/><stop offset="0.89" stop-color="#5287df"/></linearGradient><linearGradient id="New_Gradient_Swatch_1" x1="187" y1="675.92" x2="540.75" y2="675.92" gradientUnits="userSpaceOnUse"><stop offset="0" stop-color="#5287df"/><stop offset="1" stop-color="#60b3fd"/></linearGradient><linearGradient id="New_Gradient_Swatch_1-2" x1="260.61" y1="600.72" x2="1013" y2="600.72" xlink:href="#New_Gradient_Swatch_1"/><linearGradient id="New_Gradient_Swatch_1-3" x1="349.42" y1="372.27" x2="493.65" y2="372.27" xlink:href="#New_Gradient_Swatch_1"/></defs><title>Photo Filter</title><g id="Layer_1" data-name="Layer 1"><rect class="cls-1" width="1344" height="1343"/></g><g id="Photo_Filter" data-name="Photo Filter"><path class="cls-2" d="M1013,128.39V828a33,33,0,0,1-33,33H220.08A33.09,33.09,0,0,1,187,828V128.39a33.06,33.06,0,0,1,33.08-33H980A33,33,0,0,1,1013,128.39Z" transform="translate(72 71)"/><path class="cls-3" d="M540.75,861H220.08A33.09,33.09,0,0,1,187,828V490.81Z" transform="translate(72 71)"/><path class="cls-4" d="M1010.21,478.2,1013,828a33,33,0,0,1-33,33H260.61L829.09,340.41Z" transform="translate(72 71)"/><path class="cls-5" d="M493.65,372.29a72.12,72.12,0,1,1-72.08-72.11A72.07,72.07,0,0,1,493.65,372.29Z" transform="translate(72 71)"/><line class="cls-6" x1="167" y1="1082" x2="1177" y2="1082"/><circle class="cls-2" cx="1007" cy="1082" r="92"/></g></svg>