<svg xmlns="http://www.w3.org/2000/svg" xmlns:xlink="http://www.w3.org/1999/xlink" viewBox="0 0 1344 1343"><defs><style>.cls-1{fill:url(#linear-gradient);}.cls-2,.cls-4{fill:#fff;}.cls-10,.cls-2,.cls-3,.cls-4,.cls-5,.cls-6,.cls-7,.cls-8,.cls-9{stroke:#4b5a73;}.cls-2,.cls-3,.cls-4,.cls-5,.cls-6,.cls-7,.cls-8,.cls-9{stroke-linecap:round;stroke-linejoin:round;}.cls-2{stroke-width:18px;}.cls-3,.cls-4,.cls-5,.cls-6{stroke-width:14px;}.cls-3{fill:url(#New_Gradient_Swatch_1);}.cls-5{fill:url(#linear-gradient-2);}.cls-6,.cls-7{fill:none;}.cls-10,.cls-7,.cls-8{stroke-width:10px;}.cls-8{fill:url(#linear-gradient-3);}.cls-9{stroke-width:4px;fill:url(#New_Gradient_Swatch_1-2);}.cls-10{stroke-miterlimit:10;fill:url(#New_Gradient_Swatch_1-3);}</style><linearGradient id="linear-gradient" x1="674.33" y1="8.34" x2="669.66" y2="1337.36" gradientUnits="userSpaceOnUse"><stop offset="0" stop-color="#60b3fd"/><stop offset="0.8" stop-color="#5287df"/><stop offset="0.89" stop-color="#5287df"/></linearGradient><linearGradient id="New_Gradient_Swatch_1" x1="221.51" y1="289.01" x2="474.45" y2="289.01" gradientUnits="userSpaceOnUse"><stop offset="0" stop-color="#5287df"/><stop offset="1" stop-color="#60b3fd"/></linearGradient><linearGradient id="linear-gradient-2" x1="344.32" y1="800.77" x2="344.32" y2="774.77" xlink:href="#New_Gradient_Swatch_1"/><linearGradient id="linear-gradient-3" x1="745.75" y1="715.6" x2="845.87" y2="715.6" xlink:href="#linear-gradient"/><linearGradient id="New_Gradient_Swatch_1-2" x1="845.96" y1="367.25" x2="868.81" y2="367.25" xlink:href="#New_Gradient_Swatch_1"/><linearGradient id="New_Gradient_Swatch_1-3" x1="715.45" y1="852.26" x2="988.78" y2="852.26" xlink:href="#New_Gradient_Swatch_1"/></defs><title>Pinterest Feed</title><g id="Layer_1" data-name="Layer 1"><rect class="cls-1" width="1344" height="1343"/></g><g id="Pinterest_Feed" data-name="Pinterest Feed"><rect class="cls-2" x="199.92" y="162.88" width="888.06" height="888.06" rx="33.53"/><path class="cls-3" d="M474.45,181.9V396.13a10.1,10.1,0,0,1-10.12,10.12H231.64a10.13,10.13,0,0,1-10.13-10.12V181.9a10.13,10.13,0,0,1,10.13-10.12H464.33A10.09,10.09,0,0,1,474.45,181.9Z" transform="translate(72 71)"/><path class="cls-4" d="M329.83,406.25H231.64a10.13,10.13,0,0,1-10.13-10.12V292.88Z" transform="translate(72 71)"/><path class="cls-4" d="M473.59,289l.86,107.11a10.1,10.1,0,0,1-10.12,10.12H244.05L418.13,246.82Z" transform="translate(72 71)"/><path class="cls-4" d="M315.41,256.58a22.08,22.08,0,1,1-22.07-22.08A22.08,22.08,0,0,1,315.41,256.58Z" transform="translate(72 71)"/><path class="cls-4" d="M923.28,608.48V822.71a10.1,10.1,0,0,1-10.11,10.12H680.47a10.13,10.13,0,0,1-10.13-10.12V608.48a10.13,10.13,0,0,1,10.13-10.12h232.7A10.09,10.09,0,0,1,923.28,608.48Z" transform="translate(72 71)"/><path class="cls-4" d="M482.23,607.68V823.5c0,5.64-4.92,10.21-11.08,10.21H216.32c-6.12,0-11.09-4.57-11.09-10.21V607.68c0-5.63,5-10.19,11.09-10.19H471.15C477.31,597.49,482.23,602.05,482.23,607.68Z" transform="translate(72 71)"/><path class="cls-5" d="M385.49,787.77c0,7.18-6.32,13-14.13,13H317.27c-7.8,0-14.13-5.82-14.13-13s6.33-13,14.13-13h54.09C379.17,774.77,385.49,780.59,385.49,787.77Z" transform="translate(72 71)"/><path class="cls-4" d="M367.74,730.21c21.4,0,38.75-16,38.75-35.65A34.25,34.25,0,0,0,394,668.42a18.88,18.88,0,0,0,.35-3.2c0-10.87-9.59-19.68-21.4-19.68-.25,0-.48.06-.73.07-3.71-12.86-16.42-22.36-31.56-22.36-16.61,0-30.29,11.4-32.39,26.15-.56,0-1.09-.15-1.66-.15-9.51,0-17.22,7.09-17.22,15.84a14.6,14.6,0,0,0,1,5c-10.78,6.48-17.92,17.64-17.92,30.38,0,20.1,17.71,36.39,39.56,36.39" transform="translate(72 71)"/><line class="cls-6" x1="416.32" y1="732.88" x2="416.32" y2="827.24"/><line class="cls-6" x1="384.83" y1="755.9" x2="416.32" y2="786.59"/><line class="cls-6" x1="416.32" y1="768.53" x2="446.19" y2="751.07"/><path class="cls-4" d="M912.8,176c6.17,0,11.08,4.51,11.08,10.1V399.7c0,5.57-4.91,10.09-11.08,10.09H658c-6.12,0-11.08-4.52-11.08-10.09V186.07c0-5.59,5-10.1,11.08-10.1Z" transform="translate(72 71)"/><path class="cls-4" d="M868.57,272.92c-4.55-14-32.67-17.93-51.75-15.71-3.79-18.84-16.2-44.38-31-44.38s-27.17,25.53-31,44.36c-19.08-2.22-47.2,1.7-51.76,15.74s15.89,33.72,32.63,43.14c-8,17.47-13,45.42-1,54.09s37-4.69,51.13-17.7c14.12,13,39.17,26.38,51.12,17.7s7-36.62-1-54.08C852.69,306.66,873.14,287,868.57,272.92Z" transform="translate(72 71)"/><line class="cls-4" x1="857.94" y1="344.78" x2="857.94" y2="355.85"/><line class="cls-4" x1="835.76" y1="360.95" x2="846.61" y2="363.62"/><line class="cls-4" x1="844.61" y1="386.27" x2="850.49" y2="376.78"/><line class="cls-4" x1="871.42" y1="385.68" x2="864.2" y2="377.15"/><line class="cls-4" x1="879.96" y1="360.95" x2="868.81" y2="364.22"/><line class="cls-6" x1="308.8" y1="522.03" x2="531.15" y2="522.03"/><line class="cls-6" x1="353.8" y1="566.75" x2="486.16" y2="566.75"/><line class="cls-6" x1="746.76" y1="522.03" x2="969.11" y2="522.03"/><line class="cls-6" x1="791.75" y1="566.75" x2="924.12" y2="566.75"/><line class="cls-6" x1="305.14" y1="943.97" x2="527.49" y2="943.97"/><line class="cls-6" x1="350.14" y1="988.69" x2="482.5" y2="988.69"/><line class="cls-7" x1="867.81" y1="875.82" x2="867.81" y2="857.82"/><line class="cls-7" x1="903.43" y1="724.91" x2="912.42" y2="709.32"/><line class="cls-7" x1="903.43" y1="848.28" x2="912.42" y2="863.86"/><line class="cls-7" x1="939.03" y1="786.59" x2="957.03" y2="786.59"/><line class="cls-7" x1="832.2" y1="724.91" x2="823.2" y2="709.32"/><line class="cls-7" x1="945.08" y1="831.2" x2="929.5" y2="822.21"/><line class="cls-7" x1="806.12" y1="750.97" x2="790.55" y2="741.99"/><line class="cls-7" x1="796.59" y1="786.59" x2="778.59" y2="786.59"/><line class="cls-7" x1="945.08" y1="741.99" x2="929.5" y2="750.98"/><line class="cls-7" x1="790.54" y1="831.2" x2="806.12" y2="822.21"/><line class="cls-7" x1="867.81" y1="715.38" x2="867.81" y2="697.37"/><line class="cls-7" x1="832.19" y1="848.28" x2="823.2" y2="863.86"/><path class="cls-8" d="M845.87,715.6a50.06,50.06,0,1,1-50.06-50.06A50.06,50.06,0,0,1,845.87,715.6Z" transform="translate(72 71)"/><circle class="cls-2" cx="835.67" cy="835.49" r="236.94" transform="translate(-274.02 906.62) rotate(-45)"/><circle class="cls-9" cx="857.38" cy="367.25" r="11.43"/><path class="cls-10" d="M753.82,714.84c-19.32,13.18-31.78,35-36.26,58s-1.47,46.91,5.61,69.19c2.63,8.27,6,16.66,12.37,22.55a44.37,44.37,0,0,0,11.1,7.15c9.68,4.64,22.08,7.29,30.51.64s8.74-19.22,5.52-29.31-9.24-19.21-11.57-29.55c-4.14-18.39,4-37.24,13.72-53.42,4.39-7.37,9.25-14.65,15.93-20,5.68-4.6,12.45-7.64,19.24-10.37,10.18-4.11,20.73-7.68,31.68-8.49a64.72,64.72,0,0,1,68.73,54.6c2.15,13.81-.22,27.9-2.9,41.62-3,15.51-6.77,31.57-16.77,43.81s-28.13,19.29-42.11,11.93a16.19,16.19,0,0,1-7-6.56c-2.3-4.47-1.46-9.88-.17-14.74,4.05-15.14,11.93-29,16.45-44s5.16-32.57-4.25-45.11c-10.82-14.41-32.91-17.43-48.84-9s-25.65,26.05-27.69,44a45.3,45.3,0,0,0,.62,15.67c1.44,6,4.52,11.44,5.5,17.47,1.14,7-.63,14.09-2.49,20.92-7.57,27.84-16.79,55.31-21.63,83.75S764,993.78,774,1020.82c21.48-18.07,43.9-37.46,53-64,5.05-14.74,5.57-30.62,5.4-46.2,17.94,10.56,38,16.27,58.71,13.7a96.11,96.11,0,0,0,55.2-26.77c5.13-5.06,9.68-10.7,15-15.55,34.06-31,32.56-90.81,16.23-133.87a68.91,68.91,0,0,0-7.19-14.49c-4.12-6-9.6-11-15-15.88-7.87-7.1-15.86-14.27-25.28-19.12a97.27,97.27,0,0,0-19-6.93,229.53,229.53,0,0,0-98.18-4.81,123,123,0,0,0-19,4.56C779.3,696.4,766.54,706.17,753.82,714.84Z" transform="translate(72 71)"/></g></svg>