<svg xmlns="http://www.w3.org/2000/svg" xmlns:xlink="http://www.w3.org/1999/xlink" viewBox="0 0 1198 1198"><defs><style>.cls-1{fill:url(#linear-gradient);}.cls-2{fill:#fff;}.cls-2,.cls-3,.cls-4,.cls-6,.cls-7{stroke:#4b5a73;stroke-linecap:round;stroke-linejoin:round;stroke-width:14px;}.cls-3{fill:none;}.cls-4{fill:url(#linear-gradient-3);}.cls-5{fill:#4b5a73;}.cls-6{fill:url(#linear-gradient-4);}.cls-7{fill:url(#linear-gradient-5);}</style><linearGradient id="linear-gradient" x1="601.08" y1="7.44" x2="596.92" y2="1192.97" gradientUnits="userSpaceOnUse"><stop offset="0" stop-color="#60b3fd"/><stop offset="0.8" stop-color="#5287df"/><stop offset="0.89" stop-color="#5287df"/></linearGradient><linearGradient id="linear-gradient-3" x1="260.38" y1="761.97" x2="260.38" y2="704.15" gradientUnits="userSpaceOnUse"><stop offset="0" stop-color="#5287df"/><stop offset="1" stop-color="#60b3fd"/></linearGradient><linearGradient id="linear-gradient-4" x1="600" y1="852.5" x2="600" y2="794.68" xlink:href="#linear-gradient-3"/><linearGradient id="linear-gradient-5" x1="939.61" y1="910.75" x2="939.61" y2="852.94" xlink:href="#linear-gradient-3"/></defs><title>Plan Comparison</title><g id="Background"><rect class="cls-1" width="1198" height="1198"/></g><g id="Background_copy" data-name="Background copy"><rect class="cls-1" width="1198" height="1198"/></g><g id="Plan_Comparison" data-name="Plan Comparison"><rect class="cls-2" x="88.58" y="194.68" width="339.62" height="657.26"/><line class="cls-3" x1="173.22" y1="553.48" x2="343.54" y2="553.48"/><line class="cls-3" x1="173.22" y1="603.04" x2="343.54" y2="603.04"/><path class="cls-4" d="M353.68,733.06A28.91,28.91,0,0,1,324.77,762H196a28.91,28.91,0,0,1,0-57.82H324.77A28.91,28.91,0,0,1,353.68,733.06Z" transform="translate(-2 -1)"/><path class="cls-5" d="M251.35,254.56H267.8v17.35a44,44,0,0,1,13.88,4.63,43.17,43.17,0,0,1,9.6,6.42l3,3-11.54,11.61a13.19,13.19,0,0,1-.93-1.09,17.65,17.65,0,0,0-2.74-2.41,33.62,33.62,0,0,0-4.6-3,29.38,29.38,0,0,0-6.46-2.38,33,33,0,0,0-8.42-1.05q-9,0-14.41,4.43c-3.62,3-5.44,6.43-5.44,10.41a12.66,12.66,0,0,0,3.38,9,23.2,23.2,0,0,0,8.76,5.69,105,105,0,0,0,11.9,3.71q6.53,1.65,13.07,4a62,62,0,0,1,11.9,5.77,25.33,25.33,0,0,1,8.75,9.69,31.06,31.06,0,0,1,3.39,15,36,36,0,0,1-1.81,11.74,26.45,26.45,0,0,1-4.72,8.67,40.13,40.13,0,0,1-6.45,6.05,28.46,28.46,0,0,1-7.1,4c-2.38.89-4.52,1.63-6.46,2.23a24.68,24.68,0,0,1-4.68,1l-1.86.16v17.35H251.35V389.21a48.77,48.77,0,0,1-11.58-2.7,47.07,47.07,0,0,1-9.36-4.48,78.65,78.65,0,0,1-6.62-4.72,42.68,42.68,0,0,1-4.23-3.75l-1.3-1.69,11.54-11.54c.22.33.59.79,1.09,1.41a33.59,33.59,0,0,0,3.48,3.23,34.16,34.16,0,0,0,5.85,4,38.4,38.4,0,0,0,8.35,3.14,41.83,41.83,0,0,0,11,1.41q10.73,0,16.94-5.2a16.31,16.31,0,0,0,6.21-13,12.47,12.47,0,0,0-3.39-8.91,23.27,23.27,0,0,0-8.75-5.66,107.79,107.79,0,0,0-11.9-3.7A131.18,131.18,0,0,1,245.61,333a63.15,63.15,0,0,1-11.89-5.81,25.49,25.49,0,0,1-8.76-9.64,31.27,31.27,0,0,1-3.39-15,29.17,29.17,0,0,1,3.07-13.55,24,24,0,0,1,7.42-9,57.32,57.32,0,0,1,8.76-5.05,29.56,29.56,0,0,1,7.54-2.5l3-.48Z" transform="translate(-2 -1)"/><line class="cls-3" x1="96.91" y1="461.66" x2="419.85" y2="461.66"/><rect class="cls-2" x="428.2" y="194.68" width="339.61" height="735.04"/><line class="cls-3" x1="512.84" y1="553.48" x2="683.16" y2="553.48"/><line class="cls-3" x1="512.84" y1="605.73" x2="683.16" y2="605.73"/><line class="cls-3" x1="512.84" y1="658.01" x2="683.16" y2="658.01"/><line class="cls-3" x1="512.84" y1="710.27" x2="683.16" y2="710.27"/><path class="cls-6" d="M693.29,823.59a28.9,28.9,0,0,1-28.9,28.91H535.61a28.91,28.91,0,0,1,0-57.82H664.38A28.92,28.92,0,0,1,693.29,823.59Z" transform="translate(-2 -1)"/><path class="cls-5" d="M591,254.56h16.46v17.35a43.82,43.82,0,0,1,13.87,4.63A43,43,0,0,1,630.9,283l3,3-11.54,11.61a13.57,13.57,0,0,1-.92-1.09,17.88,17.88,0,0,0-2.75-2.41,32.91,32.91,0,0,0-4.59-3,29.38,29.38,0,0,0-6.46-2.38,33.06,33.06,0,0,0-8.43-1.05q-9,0-14.4,4.43c-3.63,3-5.45,6.43-5.45,10.41a12.62,12.62,0,0,0,3.39,9,23.16,23.16,0,0,0,8.75,5.69,105.83,105.83,0,0,0,11.91,3.71q6.52,1.65,13.07,4a62.24,62.24,0,0,1,11.9,5.77,25.4,25.4,0,0,1,8.75,9.69,31.17,31.17,0,0,1,3.39,15,35.75,35.75,0,0,1-1.82,11.74,26.44,26.44,0,0,1-4.71,8.67,40.2,40.2,0,0,1-6.46,6.05,28.28,28.28,0,0,1-7.1,4q-3.55,1.34-6.46,2.23a24.77,24.77,0,0,1-4.67,1l-1.86.16v17.35H591V389.21a48.58,48.58,0,0,1-11.57-2.7A46.8,46.8,0,0,1,570,382a77,77,0,0,1-6.62-4.72,41.54,41.54,0,0,1-4.23-3.75l-1.3-1.69,11.54-11.54a17.13,17.13,0,0,0,1.09,1.41A34.24,34.24,0,0,0,574,365a35,35,0,0,0,5.85,4,38.81,38.81,0,0,0,8.35,3.14,41.94,41.94,0,0,0,11,1.41q10.72,0,16.94-5.2a16.31,16.31,0,0,0,6.21-13,12.46,12.46,0,0,0-3.38-8.91,23.35,23.35,0,0,0-8.75-5.66,108.67,108.67,0,0,0-11.91-3.7A131,131,0,0,1,585.23,333a63.55,63.55,0,0,1-11.9-5.81,25.39,25.39,0,0,1-8.75-9.64,31.16,31.16,0,0,1-3.39-15,29.29,29.29,0,0,1,3.06-13.55,23.91,23.91,0,0,1,7.43-9,57.23,57.23,0,0,1,8.75-5.05,29.81,29.81,0,0,1,7.54-2.5l3-.48Z" transform="translate(-2 -1)"/><line class="cls-3" x1="436.52" y1="461.66" x2="759.47" y2="461.66"/><rect class="cls-2" x="767.81" y="194.68" width="339.61" height="808.65"/><line class="cls-3" x1="852.45" y1="553.48" x2="1022.77" y2="553.48"/><line class="cls-3" x1="852.45" y1="605.73" x2="1022.77" y2="605.73"/><line class="cls-3" x1="852.45" y1="658.01" x2="1022.77" y2="658.01"/><line class="cls-3" x1="852.45" y1="710.27" x2="1022.77" y2="710.27"/><line class="cls-3" x1="852.45" y1="763.05" x2="1022.77" y2="763.05"/><path class="cls-7" d="M1032.9,881.85a28.9,28.9,0,0,1-28.9,28.9H875.22a28.91,28.91,0,0,1,0-57.81H1004A28.91,28.91,0,0,1,1032.9,881.85Z" transform="translate(-2 -1)"/><path class="cls-5" d="M930.57,254.56H947v17.35a44,44,0,0,1,13.88,4.63,43.28,43.28,0,0,1,9.61,6.42l3,3L962,297.56a11.47,11.47,0,0,1-.93-1.09,18.16,18.16,0,0,0-2.74-2.41,34.89,34.89,0,0,0-4.6-3,29.78,29.78,0,0,0-6.46-2.38,33,33,0,0,0-8.43-1.05q-9,0-14.4,4.43c-3.63,3-5.44,6.43-5.44,10.41a12.61,12.61,0,0,0,3.38,9,23,23,0,0,0,8.76,5.69A104.8,104.8,0,0,0,943,320.84a136,136,0,0,1,13.07,4A62.34,62.34,0,0,1,968,330.64a25.3,25.3,0,0,1,8.74,9.69,31.06,31.06,0,0,1,3.4,15,36,36,0,0,1-1.82,11.74,26.27,26.27,0,0,1-4.72,8.67,39.72,39.72,0,0,1-6.45,6.05,28.46,28.46,0,0,1-7.1,4q-3.56,1.34-6.46,2.23a24.52,24.52,0,0,1-4.68,1l-1.86.16v17.35H930.57V389.21a48.77,48.77,0,0,1-11.58-2.7,47.34,47.34,0,0,1-9.36-4.48,78.65,78.65,0,0,1-6.62-4.72,43.88,43.88,0,0,1-4.23-3.75l-1.29-1.69L909,360.33c.22.33.58.79,1.09,1.41a33.13,33.13,0,0,0,3.47,3.23,34.56,34.56,0,0,0,5.85,4,38.6,38.6,0,0,0,8.35,3.14,41.94,41.94,0,0,0,11,1.41q10.74,0,16.94-5.2a16.32,16.32,0,0,0,6.22-13,12.47,12.47,0,0,0-3.4-8.91,23.19,23.19,0,0,0-8.75-5.66,107.79,107.79,0,0,0-11.9-3.7A131,131,0,0,1,924.84,333,62.85,62.85,0,0,1,913,327.17a25.43,25.43,0,0,1-8.77-9.64,31.27,31.27,0,0,1-3.38-15,29.29,29.29,0,0,1,3.06-13.55,23.91,23.91,0,0,1,7.43-9,57.23,57.23,0,0,1,8.75-5.05,29.62,29.62,0,0,1,7.55-2.5l3-.48Z" transform="translate(-2 -1)"/><line class="cls-3" x1="776.13" y1="461.66" x2="1099.08" y2="461.66"/></g></svg>