<svg xmlns="http://www.w3.org/2000/svg" xmlns:xlink="http://www.w3.org/1999/xlink" viewBox="0 0 1198 1198"><defs><style>.cls-1{fill:url(#linear-gradient);}.cls-2{fill:#fff;}.cls-2,.cls-3,.cls-4,.cls-5,.cls-6{stroke:#4b5a73;stroke-linecap:round;stroke-linejoin:round;stroke-width:14px;}.cls-3{fill:none;}.cls-4{fill:url(#linear-gradient-3);}.cls-5{fill:url(#linear-gradient-4);}.cls-6{fill:url(#linear-gradient-5);}.cls-7{fill:#4b5a73;}</style><linearGradient id="linear-gradient" x1="601.08" y1="7.44" x2="596.92" y2="1192.97" gradientUnits="userSpaceOnUse"><stop offset="0" stop-color="#60b3fd"/><stop offset="0.8" stop-color="#5287df"/><stop offset="0.89" stop-color="#5287df"/></linearGradient><linearGradient id="linear-gradient-3" x1="528.22" y1="398.09" x2="528.22" y2="301.77" gradientUnits="userSpaceOnUse"><stop offset="0" stop-color="#5287df"/><stop offset="1" stop-color="#60b3fd"/></linearGradient><linearGradient id="linear-gradient-4" x1="465.01" y1="571.68" x2="465.01" y2="475.35" xlink:href="#linear-gradient-3"/><linearGradient id="linear-gradient-5" x1="515.17" y1="745.26" x2="515.17" y2="648.94" xlink:href="#linear-gradient-3"/></defs><title>Poll</title><g id="Background"><rect class="cls-1" width="1198" height="1198"/></g><g id="Background_copy" data-name="Background copy"><rect class="cls-1" width="1198" height="1198"/></g><g id="Poll"><path class="cls-2" d="M1011,148.47H197.73c-29.86,0-54.06,26-54.06,58.1V842.45c0,32.09,24.2,58.1,54.06,58.1h95.69v154.58L476,900.55H1011c29.86,0,54-26,54-58.1V206.57C1065,174.49,1040.82,148.47,1011,148.47Z" transform="translate(-2 -1)"/><line class="cls-3" x1="269.35" y1="301.77" x2="269.35" y2="745.26"/><rect class="cls-4" x="269.35" y="301.77" width="517.75" height="96.32"/><rect class="cls-5" x="269.35" y="475.35" width="391.32" height="96.32"/><rect class="cls-6" x="269.35" y="648.94" width="491.66" height="96.32"/><path class="cls-7" d="M900.44,305.47a20.23,20.23,0,0,1,0,29.57,21.73,21.73,0,0,1-30.86,0,20.21,20.21,0,0,1,0-29.57,21.8,21.8,0,0,1,30.86,0Zm-25.06,85.41L931.89,301h16.05l-56.5,89.92Zm3.2-77.07a9.33,9.33,0,1,0,6.43-2.57A8.75,8.75,0,0,0,878.58,313.81Zm44.31,72.59a20.18,20.18,0,0,1,0-29.54,21.72,21.72,0,0,1,30.85,0,20.18,20.18,0,0,1,0,29.54,21.72,21.72,0,0,1-30.85,0ZM944.74,378a9.32,9.32,0,1,0-6.43,2.57A8.71,8.71,0,0,0,944.74,378Z" transform="translate(-2 -1)"/><path class="cls-7" d="M758,479.24a20.23,20.23,0,0,1,0,29.57,21.75,21.75,0,0,1-30.86,0,20.21,20.21,0,0,1,0-29.57,21.8,21.8,0,0,1,30.86,0ZM732.9,564.65l56.51-89.93h16.05L749,564.65Zm3.2-77.07a9.33,9.33,0,1,0,6.43-2.57A8.68,8.68,0,0,0,736.1,487.58Zm44.31,72.59a20.18,20.18,0,0,1,0-29.54,21.72,21.72,0,0,1,30.85,0,20.18,20.18,0,0,1,0,29.54,21.74,21.74,0,0,1-30.85,0Zm21.85-8.38a9.29,9.29,0,1,0-6.43,2.58A8.67,8.67,0,0,0,802.26,551.79Z" transform="translate(-2 -1)"/><path class="cls-7" d="M868.33,657.84a20.21,20.21,0,0,1,0,29.57,21.73,21.73,0,0,1-30.86,0,20.23,20.23,0,0,1,0-29.57,21.8,21.8,0,0,1,30.86,0Zm-25.05,85.41,56.5-89.93h16.05l-56.5,89.93Zm3.19-77.07a9.33,9.33,0,1,0,6.43-2.57A8.75,8.75,0,0,0,846.47,666.18Zm44.31,72.59a20.18,20.18,0,0,1,0-29.54,21.72,21.72,0,0,1,30.85,0,20.18,20.18,0,0,1,0,29.54,21.72,21.72,0,0,1-30.85,0Zm21.85-8.37a9.32,9.32,0,1,0-6.42,2.57A8.72,8.72,0,0,0,912.63,730.4Z" transform="translate(-2 -1)"/></g></svg>