<svg xmlns="http://www.w3.org/2000/svg" xmlns:xlink="http://www.w3.org/1999/xlink" viewBox="0 0 1198 1198"><defs><style>.cls-1{fill:url(#linear-gradient);}.cls-2{fill:#fff;}.cls-2,.cls-3,.cls-4{stroke:#4b5a73;stroke-linecap:round;stroke-linejoin:round;stroke-width:14px;}.cls-3{fill:none;}.cls-4{fill:url(#linear-gradient-3);}</style><linearGradient id="linear-gradient" x1="601.08" y1="7.44" x2="596.92" y2="1192.97" gradientUnits="userSpaceOnUse"><stop offset="0" stop-color="#60b3fd"/><stop offset="0.8" stop-color="#5287df"/><stop offset="0.89" stop-color="#5287df"/></linearGradient><linearGradient id="linear-gradient-3" x1="598.26" y1="542.08" x2="598.26" y2="327.25" gradientUnits="userSpaceOnUse"><stop offset="0" stop-color="#5287df"/><stop offset="1" stop-color="#60b3fd"/></linearGradient></defs><title>Popup</title><g id="Background"><rect class="cls-1" width="1198" height="1198"/></g><g id="Background_copy" data-name="Background copy"><rect class="cls-1" width="1198" height="1198"/></g><g id="Popup"><path class="cls-2" d="M1028,204.21H172c-31.43,0-56.91,27.38-56.91,61.14v669.3c0,33.77,25.48,61.14,56.91,61.14h856c31.42,0,56.88-27.37,56.88-61.14V265.35C1084.87,231.59,1059.41,204.21,1028,204.21Z" transform="translate(-2 -1)"/><rect class="cls-2" x="493.52" y="802.4" width="208.97" height="68.04"/><line class="cls-3" x1="286.74" y1="630.5" x2="909.78" y2="630.5"/><line class="cls-3" x1="286.23" y1="696.92" x2="909.78" y2="696.92"/><polygon class="cls-4" points="598.26 327.25 633.16 397.96 711.21 409.3 654.74 464.36 668.07 542.08 598.26 505.39 528.45 542.08 541.79 464.36 485.31 409.3 563.36 397.96 598.26 327.25"/><line class="cls-3" x1="944.63" y1="268.91" x2="1020.42" y2="344.69"/><line class="cls-3" x1="1020.43" y1="268.91" x2="944.65" y2="344.69"/></g></svg>