<svg xmlns="http://www.w3.org/2000/svg" xmlns:xlink="http://www.w3.org/1999/xlink" viewBox="0 0 1198 1198"><defs><style>.cls-1{fill:url(#linear-gradient);}.cls-2{fill:#fff;}.cls-2,.cls-3,.cls-4,.cls-6,.cls-7{stroke:#4b5a73;stroke-linecap:round;stroke-linejoin:round;stroke-width:14px;}.cls-3{fill:none;}.cls-4{fill:url(#linear-gradient-3);}.cls-5{fill:#4b5a73;}.cls-6{fill:url(#linear-gradient-4);}.cls-7{fill:url(#linear-gradient-5);}</style><linearGradient id="linear-gradient" x1="601.08" y1="7.44" x2="596.92" y2="1192.97" gradientUnits="userSpaceOnUse"><stop offset="0" stop-color="#60b3fd"/><stop offset="0.8" stop-color="#5287df"/><stop offset="0.89" stop-color="#5287df"/></linearGradient><linearGradient id="linear-gradient-3" x1="938.32" y1="818.88" x2="938.32" y2="774.75" gradientUnits="userSpaceOnUse"><stop offset="0" stop-color="#5287df"/><stop offset="1" stop-color="#60b3fd"/></linearGradient><linearGradient id="linear-gradient-4" x1="266.71" y1="818.88" x2="266.71" y2="774.75" xlink:href="#linear-gradient-3"/><linearGradient id="linear-gradient-5" x1="603.49" y1="880.71" x2="603.49" y2="821.3" xlink:href="#linear-gradient-3"/></defs><title>Price Table</title><g id="Background"><rect class="cls-1" width="1198" height="1198"/></g><g id="Background_copy" data-name="Background copy"><rect class="cls-1" width="1198" height="1198"/></g><g id="Price_Table" data-name="Price Table"><rect class="cls-2" x="774.74" y="330.33" width="317.7" height="539.4"/><line class="cls-3" x1="865.1" y1="622.64" x2="1017.55" y2="622.64"/><line class="cls-3" x1="891.41" y1="653.4" x2="991.24" y2="653.4"/><path class="cls-4" d="M1009.53,796.81a22.07,22.07,0,0,1-22.07,22.07H889.17a22.07,22.07,0,0,1,0-44.13h98.29A22.06,22.06,0,0,1,1009.53,796.81Z" transform="translate(-2 -1)"/><path class="cls-5" d="M935.47,445.61h11.09V457.3a33.28,33.28,0,0,1,15.83,7.45l2,2-7.78,7.83c-.14-.15-.35-.39-.62-.74a12.66,12.66,0,0,0-1.86-1.62,20.5,20.5,0,0,0-3.09-2,19.92,19.92,0,0,0-4.35-1.61,22.32,22.32,0,0,0-5.68-.71q-6,0-9.7,3a8.84,8.84,0,0,0-3.67,7,8.52,8.52,0,0,0,2.28,6,15.65,15.65,0,0,0,5.9,3.83,70.68,70.68,0,0,0,8,2.5,89.75,89.75,0,0,1,8.8,2.72,41.42,41.42,0,0,1,8,3.88,17,17,0,0,1,5.89,6.53,20.85,20.85,0,0,1,2.3,10.11,24.13,24.13,0,0,1-1.23,7.91,17.71,17.71,0,0,1-3.18,5.84,26.76,26.76,0,0,1-4.36,4.08,19.21,19.21,0,0,1-4.78,2.69c-1.59.6-3,1.1-4.35,1.49a16.6,16.6,0,0,1-3.15.71l-1.25.11V548H935.47V536.34a33,33,0,0,1-7.8-1.82,32.27,32.27,0,0,1-6.3-3,52.14,52.14,0,0,1-4.46-3.18,29.38,29.38,0,0,1-2.85-2.53l-.87-1.13,7.77-7.78a11,11,0,0,0,.74,1A21.89,21.89,0,0,0,924,520a22.94,22.94,0,0,0,3.94,2.71,26,26,0,0,0,5.62,2.13,28.47,28.47,0,0,0,7.42.94c4.82,0,8.62-1.16,11.42-3.51a11,11,0,0,0,4.18-8.77,8.44,8.44,0,0,0-2.28-6,15.67,15.67,0,0,0-5.89-3.8,70.56,70.56,0,0,0-8-2.5,89.26,89.26,0,0,1-8.81-2.74,43,43,0,0,1-8-3.92,17.23,17.23,0,0,1-5.9-6.49,21.08,21.08,0,0,1-2.28-10.15,19.67,19.67,0,0,1,2.06-9.13,16.26,16.26,0,0,1,5-6.06,39.69,39.69,0,0,1,5.9-3.4,20,20,0,0,1,5.08-1.68l2-.33Z" transform="translate(-2 -1)"/><path class="cls-3" d="M1031,496.77a92.71,92.71,0,1,1-92.72-92.71A92.71,92.71,0,0,1,1031,496.77Z" transform="translate(-2 -1)"/><line class="cls-3" x1="779.75" y1="714.25" x2="1092.87" y2="714.25"/><rect class="cls-2" x="103.13" y="330.33" width="317.7" height="539.4"/><line class="cls-3" x1="193.5" y1="622.64" x2="345.94" y2="622.64"/><line class="cls-3" x1="219.8" y1="653.4" x2="319.63" y2="653.4"/><path class="cls-6" d="M337.92,796.81a22.07,22.07,0,0,1-22.07,22.07H217.56a22.07,22.07,0,0,1,0-44.13h98.29A22.06,22.06,0,0,1,337.92,796.81Z" transform="translate(-2 -1)"/><path class="cls-5" d="M263.87,445.61H275V457.3a33.3,33.3,0,0,1,15.82,7.45l2,2L285,474.59c-.15-.15-.35-.39-.63-.74a11.88,11.88,0,0,0-1.85-1.62,21,21,0,0,0-3.09-2,19.83,19.83,0,0,0-4.36-1.61,22.24,22.24,0,0,0-5.67-.71q-6,0-9.71,3a8.83,8.83,0,0,0-3.66,7,8.52,8.52,0,0,0,2.28,6,15.49,15.49,0,0,0,5.9,3.83,70.48,70.48,0,0,0,8,2.5,89.93,89.93,0,0,1,8.81,2.72,42,42,0,0,1,8,3.88A17.18,17.18,0,0,1,295,503.4a21,21,0,0,1,2.29,10.11,24.4,24.4,0,0,1-1.22,7.91,17.9,17.9,0,0,1-3.18,5.84,27.61,27.61,0,0,1-4.36,4.08,19.39,19.39,0,0,1-4.78,2.69c-1.59.6-3,1.1-4.35,1.49a16.94,16.94,0,0,1-3.15.71l-1.25.11V548H263.87V536.34a33,33,0,0,1-7.8-1.82,32,32,0,0,1-6.3-3,50.6,50.6,0,0,1-4.46-3.18,28.54,28.54,0,0,1-2.86-2.53l-.86-1.13,7.77-7.78c.14.21.39.54.73,1a23,23,0,0,0,2.34,2.18,23.33,23.33,0,0,0,3.94,2.71,26.07,26.07,0,0,0,5.63,2.13,28.36,28.36,0,0,0,7.42.94c4.82,0,8.62-1.16,11.41-3.51a11,11,0,0,0,4.19-8.77,8.41,8.41,0,0,0-2.29-6,15.67,15.67,0,0,0-5.89-3.8,69.94,69.94,0,0,0-8-2.5,90.1,90.1,0,0,1-8.81-2.74,42.6,42.6,0,0,1-8-3.92,17.17,17.17,0,0,1-5.91-6.49,21.19,21.19,0,0,1-2.27-10.15,19.67,19.67,0,0,1,2.06-9.13,16.16,16.16,0,0,1,5-6.06,38.71,38.71,0,0,1,5.9-3.4,19.91,19.91,0,0,1,5.08-1.68l2-.33Z" transform="translate(-2 -1)"/><path class="cls-3" d="M359.41,496.77a92.71,92.71,0,1,1-92.71-92.71A92.7,92.7,0,0,1,359.41,496.77Z" transform="translate(-2 -1)"/><line class="cls-3" x1="108.15" y1="714.25" x2="421.26" y2="714.25"/><rect class="cls-2" x="390.69" y="242.11" width="421.61" height="715.84"/><line class="cls-3" x1="505.61" y1="616.83" x2="710.87" y2="616.83"/><line class="cls-3" x1="541.03" y1="658.25" x2="675.45" y2="658.25"/><path class="cls-7" d="M699.37,851a29.71,29.71,0,0,1-29.71,29.7H537.32a29.71,29.71,0,1,1,0-59.41H669.66A29.71,29.71,0,0,1,699.37,851Z" transform="translate(-2 -1)"/><path class="cls-5" d="M599.68,378.11h14.93v15.74a40,40,0,0,1,12.59,4.2,39.54,39.54,0,0,1,8.71,5.83l2.7,2.71-10.46,10.53a11.52,11.52,0,0,1-.84-1,16.45,16.45,0,0,0-2.49-2.2,30.27,30.27,0,0,0-4.18-2.71,27.07,27.07,0,0,0-5.85-2.16,30.14,30.14,0,0,0-7.65-.95q-8.13,0-13.06,4c-3.29,2.68-5,5.83-5,9.44a11.41,11.41,0,0,0,3.09,8.12,20.66,20.66,0,0,0,7.94,5.16A94.52,94.52,0,0,0,611,438.24a120.35,120.35,0,0,1,11.85,3.66,56.34,56.34,0,0,1,10.8,5.23,23.06,23.06,0,0,1,7.95,8.79,28.4,28.4,0,0,1,3.07,13.61A32.6,32.6,0,0,1,643,480.18a24,24,0,0,1-4.28,7.87,36.68,36.68,0,0,1-5.86,5.49,26,26,0,0,1-6.44,3.62c-2.14.8-4.09,1.48-5.85,2a22.16,22.16,0,0,1-4.25.95l-1.68.15V516H599.68V500.27a44.31,44.31,0,0,1-10.5-2.45,42.66,42.66,0,0,1-8.49-4.06,70.67,70.67,0,0,1-6-4.29,40,40,0,0,1-3.84-3.4l-1.17-1.53,10.46-10.47c.2.29.53.72,1,1.28a33.13,33.13,0,0,0,3.15,2.93,31.44,31.44,0,0,0,5.31,3.65,34.67,34.67,0,0,0,7.57,2.86,37.78,37.78,0,0,0,10,1.28q9.74,0,15.38-4.72a14.82,14.82,0,0,0,5.63-11.82,11.37,11.37,0,0,0-3.07-8.09,21.06,21.06,0,0,0-8-5.12A96.56,96.56,0,0,0,606.34,453a117.15,117.15,0,0,1-11.86-3.69,57.65,57.65,0,0,1-10.8-5.28,23.1,23.1,0,0,1-7.94-8.74,28.4,28.4,0,0,1-3.07-13.65,26.59,26.59,0,0,1,2.78-12.3,21.67,21.67,0,0,1,6.74-8.16,51.54,51.54,0,0,1,7.94-4.57,27.09,27.09,0,0,1,6.84-2.28l2.71-.43Z" transform="translate(-2 -1)"/><circle class="cls-3" cx="601.49" cy="445.99" r="124.83"/><line class="cls-3" x1="390.69" y1="740.17" x2="812.3" y2="740.17"/></g></svg>