<svg id="Resume" xmlns="http://www.w3.org/2000/svg" xmlns:xlink="http://www.w3.org/1999/xlink" viewBox="0 0 1197.88 1197.88"><defs><style>.cls-1{fill:url(#linear-gradient);}.cls-2{fill:#fff;}.cls-10,.cls-11,.cls-12,.cls-2,.cls-3,.cls-4,.cls-5,.cls-6,.cls-7,.cls-8,.cls-9{stroke:#4b5a73;stroke-linecap:round;stroke-linejoin:round;}.cls-2,.cls-8,.cls-9{stroke-width:10px;}.cls-3,.cls-6{fill:none;}.cls-3{stroke-width:5px;}.cls-10,.cls-12,.cls-4,.cls-5,.cls-6,.cls-7{stroke-width:4px;}.cls-4{fill:url(#linear-gradient-2);}.cls-5{fill:url(#linear-gradient-3);}.cls-7{fill:url(#linear-gradient-4);}.cls-8{fill:url(#linear-gradient-5);}.cls-9{fill:url(#linear-gradient-6);}.cls-10{fill:url(#linear-gradient-7);}.cls-11{stroke-width:3px;fill:url(#linear-gradient-8);}.cls-12{fill:url(#linear-gradient-9);}</style><linearGradient id="linear-gradient" x1="601.02" y1="7.44" x2="596.86" y2="1192.85" gradientUnits="userSpaceOnUse"><stop offset="0" stop-color="#60b3fd"/><stop offset="0.8" stop-color="#5287df"/><stop offset="0.89" stop-color="#5287df"/></linearGradient><linearGradient id="linear-gradient-2" x1="329.38" y1="583.88" x2="329.38" y2="526.44" gradientUnits="userSpaceOnUse"><stop offset="0" stop-color="#5287df"/><stop offset="1" stop-color="#60b3fd"/></linearGradient><linearGradient id="linear-gradient-3" x1="329.38" y1="557.41" x2="329.38" y2="526.44" xlink:href="#linear-gradient-2"/><linearGradient id="linear-gradient-4" x1="331.78" y1="568.85" x2="331.78" y2="559.47" xlink:href="#linear-gradient-2"/><linearGradient id="linear-gradient-5" x1="604.16" y1="336.16" x2="604.16" y2="261.46" xlink:href="#linear-gradient-2"/><linearGradient id="linear-gradient-6" x1="604.17" y1="436.8" x2="604.17" y2="363.23" xlink:href="#linear-gradient-2"/><linearGradient id="linear-gradient-7" x1="343.4" y1="721.02" x2="343.4" y2="642.05" xlink:href="#linear-gradient-2"/><linearGradient id="linear-gradient-8" x1="329.66" y1="838.45" x2="329.66" y2="775.07" xlink:href="#linear-gradient-2"/><linearGradient id="linear-gradient-9" x1="331.78" y1="819.67" x2="331.78" y2="777.13" xlink:href="#linear-gradient-2"/></defs><title>Resume</title><rect class="cls-1" width="1197.88" height="1197.88"/><path class="cls-2" d="M961.93,970.16c0,11.35-10.33,20.57-23.07,20.57H263.25c-12.73,0-23.06-9.22-23.06-20.57V231.86c0-11.37,10.33-20.57,23.06-20.57H938.86c12.74,0,23.07,9.2,23.07,20.57Z" transform="translate(-2.12 -2.06)"/><line class="cls-3" x1="458.96" y1="665.81" x2="856.63" y2="665.81"/><line class="cls-3" x1="459.3" y1="799.27" x2="870.49" y2="799.27"/><line class="cls-3" x1="458.96" y1="818" x2="681.47" y2="818"/><line class="cls-3" x1="458.96" y1="684.85" x2="745.15" y2="684.85"/><line class="cls-3" x1="452.93" y1="545.17" x2="850.6" y2="545.17"/><line class="cls-3" x1="452.93" y1="564.96" x2="850.6" y2="564.96"/><rect class="cls-4" x="289.01" y="526.44" width="80.73" height="57.44"/><rect class="cls-5" x="289.01" y="526.44" width="80.73" height="30.97"/><path class="cls-6" d="M343.4,528.5H319.58v-5a6.36,6.36,0,0,1,6.36-6.36h11.11a6.35,6.35,0,0,1,6.35,6.36Z" transform="translate(-2.12 -2.06)"/><path class="cls-7" d="M337.65,563a5.87,5.87,0,0,1-11.74,0v-3.51h11.74Z" transform="translate(-2.12 -2.06)"/><path class="cls-8" d="M641.51,298.82a37.35,37.35,0,1,1-37.35-37.36A37.35,37.35,0,0,1,641.51,298.82Z" transform="translate(-2.12 -2.06)"/><path class="cls-9" d="M665.54,436.8H542.8V398.39c0-19.42,17.86-35.16,39.89-35.16H630c19.65,0,35.59,14,35.59,31.37Z" transform="translate(-2.12 -2.06)"/><path class="cls-10" d="M321.68,642.15c4.66-.89,7.71,4.36,10,8s5,7.65,3.92,12.22c-.62,2.57-2.94,4-4.71,5.49s-4.36,2.88-5,5.17c-1,3.73,1.24,7.65,2.67,9.88a56.37,56.37,0,0,0,12.07,13.64c2.4,2,5.73,4.6,9.09,3.92,5-1,6.31-7.17,11.76-8,5.18-.78,8.68,3,11.6,5.49s7.36,5.55,7,9.73c-.18,2.39-2.1,3.87-3.77,5.32a50.53,50.53,0,0,1-4.85,4.23A25,25,0,0,1,356.79,721c-5.6-.17-10.06-2.08-14.11-4.23-7.91-4.22-14.16-10.16-20.05-16.78s-11.15-14.21-14.12-22.73c-3.69-10.62-1.73-21.55,4.24-28.36a41.25,41.25,0,0,1,4.07-3.61C318.28,644,319.63,642.53,321.68,642.15Z" transform="translate(-2.12 -2.06)"/><rect class="cls-11" x="283.58" y="775.07" width="92.16" height="63.38"/><path class="cls-12" d="M323.06,816a12.09,12.09,0,0,0,17.43,0l37.37-38.83H285.7Z" transform="translate(-2.12 -2.06)"/></svg>