<svg id="Reviews" xmlns="http://www.w3.org/2000/svg" xmlns:xlink="http://www.w3.org/1999/xlink" viewBox="0 0 1200 1200"><defs><style>.cls-1{fill:url(#linear-gradient);}.cls-2{fill:#fff;}.cls-10,.cls-11,.cls-12,.cls-13,.cls-14,.cls-15,.cls-16,.cls-17,.cls-18,.cls-19,.cls-2,.cls-20,.cls-3,.cls-4,.cls-5,.cls-6,.cls-7,.cls-8,.cls-9{stroke:#4b5a73;stroke-linecap:round;stroke-linejoin:round;stroke-width:10px;}.cls-3{fill:url(#linear-gradient-2);}.cls-4{fill:url(#linear-gradient-3);}.cls-5{fill:none;}.cls-6{fill:url(#linear-gradient-4);}.cls-7{fill:url(#linear-gradient-5);}.cls-8{fill:url(#linear-gradient-6);}.cls-9{fill:url(#linear-gradient-7);}.cls-10{fill:url(#linear-gradient-8);}.cls-11{fill:url(#linear-gradient-9);}.cls-12{fill:url(#linear-gradient-10);}.cls-13{fill:url(#linear-gradient-11);}.cls-14{fill:url(#linear-gradient-12);}.cls-15{fill:url(#linear-gradient-13);}.cls-16{fill:url(#linear-gradient-14);}.cls-17{fill:url(#linear-gradient-15);}.cls-18{fill:url(#linear-gradient-16);}.cls-19{fill:url(#linear-gradient-17);}.cls-20{fill:url(#linear-gradient-18);}</style><linearGradient id="linear-gradient" x1="602.08" y1="7.46" x2="597.91" y2="1194.96" gradientUnits="userSpaceOnUse"><stop offset="0" stop-color="#60b3fd"/><stop offset="0.8" stop-color="#5287df"/><stop offset="0.89" stop-color="#5287df"/></linearGradient><linearGradient id="linear-gradient-2" x1="2190.52" y1="593.57" x2="2190.52" y2="538.01" gradientTransform="matrix(-1, 0, 0, 1, 2590.66, 0)" gradientUnits="userSpaceOnUse"><stop offset="0" stop-color="#5287df"/><stop offset="1" stop-color="#60b3fd"/></linearGradient><linearGradient id="linear-gradient-3" x1="2190.52" y1="668.4" x2="2190.52" y2="614.36" xlink:href="#linear-gradient-2"/><linearGradient id="linear-gradient-4" x1="518.63" y1="578.08" x2="576.46" y2="578.08" gradientTransform="matrix(1, 0, 0, 1, 0, 0)" xlink:href="#linear-gradient-2"/><linearGradient id="linear-gradient-5" x1="603.99" y1="578.08" x2="661.83" y2="578.08" gradientTransform="matrix(1, 0, 0, 1, 0, 0)" xlink:href="#linear-gradient-2"/><linearGradient id="linear-gradient-6" x1="689.35" y1="578.08" x2="747.19" y2="578.08" gradientTransform="matrix(1, 0, 0, 1, 0, 0)" xlink:href="#linear-gradient-2"/><linearGradient id="linear-gradient-7" x1="2194.11" y1="777.23" x2="2194.11" y2="721.67" xlink:href="#linear-gradient-2"/><linearGradient id="linear-gradient-8" x1="2194.12" y1="852.07" x2="2194.12" y2="798.02" xlink:href="#linear-gradient-2"/><linearGradient id="linear-gradient-9" x1="515.03" y1="761.74" x2="572.87" y2="761.74" gradientTransform="matrix(1, 0, 0, 1, 0, 0)" xlink:href="#linear-gradient-2"/><linearGradient id="linear-gradient-10" x1="600.4" y1="761.74" x2="658.23" y2="761.74" gradientTransform="matrix(1, 0, 0, 1, 0, 0)" xlink:href="#linear-gradient-2"/><linearGradient id="linear-gradient-11" x1="685.76" y1="761.74" x2="743.6" y2="761.74" gradientTransform="matrix(1, 0, 0, 1, 0, 0)" xlink:href="#linear-gradient-2"/><linearGradient id="linear-gradient-12" x1="771.12" y1="761.74" x2="828.96" y2="761.74" gradientTransform="matrix(1, 0, 0, 1, 0, 0)" xlink:href="#linear-gradient-2"/><linearGradient id="linear-gradient-13" x1="2187.05" y1="397.3" x2="2187.05" y2="341.74" xlink:href="#linear-gradient-2"/><linearGradient id="linear-gradient-14" x1="2187.05" y1="472.13" x2="2187.05" y2="418.09" xlink:href="#linear-gradient-2"/><linearGradient id="linear-gradient-15" x1="522.1" y1="381.81" x2="579.93" y2="381.81" gradientTransform="matrix(1, 0, 0, 1, 0, 0)" xlink:href="#linear-gradient-2"/><linearGradient id="linear-gradient-16" x1="607.46" y1="381.81" x2="665.3" y2="381.81" gradientTransform="matrix(1, 0, 0, 1, 0, 0)" xlink:href="#linear-gradient-2"/><linearGradient id="linear-gradient-17" x1="692.82" y1="381.81" x2="750.66" y2="381.81" gradientTransform="matrix(1, 0, 0, 1, 0, 0)" xlink:href="#linear-gradient-2"/><linearGradient id="linear-gradient-18" x1="778.19" y1="381.81" x2="836.03" y2="381.81" gradientTransform="matrix(1, 0, 0, 1, 0, 0)" xlink:href="#linear-gradient-2"/></defs><title>Reviews</title><rect class="cls-1" width="1200" height="1200"/><rect class="cls-2" x="243.04" y="243.04" width="713.92" height="713.92" rx="25"/><path class="cls-3" d="M372.37,565.79A27.78,27.78,0,1,0,400.15,538,27.78,27.78,0,0,0,372.37,565.79Z" transform="translate(0)"/><path class="cls-4" d="M354.5,668.4h91.28V640.19c0-14.27-13.29-25.83-29.67-25.83H381c-14.62,0-26.47,10.32-26.47,23Z" transform="translate(0)"/><line class="cls-5" x1="520.98" y1="649.01" x2="739.25" y2="649.01"/><polygon class="cls-6" points="547.55 550.57 556.48 568.68 576.46 571.58 562.01 585.68 565.42 605.58 547.55 596.19 529.67 605.58 533.09 585.68 518.63 571.58 538.61 568.68 547.55 550.57"/><polygon class="cls-7" points="632.91 550.57 641.85 568.68 661.83 571.58 647.37 585.68 650.78 605.58 632.91 596.19 615.04 605.58 618.45 585.68 603.99 571.58 623.97 568.68 632.91 550.57"/><polygon class="cls-8" points="718.27 550.57 727.21 568.68 747.19 571.58 732.73 585.68 736.14 605.58 718.27 596.19 700.4 605.58 703.81 585.68 689.36 571.58 709.34 568.68 718.27 550.57"/><path class="cls-9" d="M368.77,749.46a27.78,27.78,0,1,0,27.78-27.79A27.78,27.78,0,0,0,368.77,749.46Z" transform="translate(0)"/><path class="cls-10" d="M350.91,852.07h91.27V823.86c0-14.27-13.29-25.84-29.66-25.84H377.38c-14.62,0-26.47,10.32-26.47,23.05Z" transform="translate(0)"/><line class="cls-5" x1="517.39" y1="832.68" x2="735.65" y2="832.68"/><polygon class="cls-11" points="543.95 734.24 552.89 752.35 572.87 755.25 558.41 769.35 561.82 789.25 543.95 779.85 526.08 789.25 529.49 769.35 515.03 755.25 535.01 752.35 543.95 734.24"/><polygon class="cls-12" points="629.31 734.24 638.25 752.35 658.23 755.25 643.77 769.35 647.19 789.25 629.31 779.85 611.44 789.25 614.86 769.35 600.4 755.25 620.38 752.35 629.31 734.24"/><polygon class="cls-13" points="714.68 734.24 723.61 752.35 743.6 755.25 729.14 769.35 732.55 789.25 714.68 779.85 696.81 789.25 700.22 769.35 685.76 755.25 705.74 752.35 714.68 734.24"/><polygon class="cls-14" points="800.04 734.24 808.98 752.35 828.96 755.25 814.5 769.35 817.91 789.25 800.04 779.85 782.17 789.25 785.58 769.35 771.12 755.25 791.11 752.35 800.04 734.24"/><path class="cls-15" d="M375.84,369.52a27.78,27.78,0,1,0,27.78-27.78A27.78,27.78,0,0,0,375.84,369.52Z" transform="translate(0)"/><path class="cls-16" d="M358,472.13h91.28V443.92c0-14.27-13.29-25.83-29.67-25.83H384.45c-14.63,0-26.48,10.32-26.48,23Z" transform="translate(0)"/><line class="cls-5" x1="524.45" y1="452.74" x2="742.72" y2="452.74"/><polygon class="cls-17" points="551.02 354.3 559.95 372.41 579.93 375.31 565.48 389.41 568.89 409.31 551.02 399.92 533.14 409.31 536.56 389.41 522.1 375.31 542.08 372.41 551.02 354.3"/><polygon class="cls-18" points="636.38 354.3 645.32 372.41 665.3 375.31 650.84 389.41 654.25 409.31 636.38 399.92 618.51 409.31 621.92 389.41 607.46 375.31 627.44 372.41 636.38 354.3"/><polygon class="cls-19" points="721.74 354.3 730.68 372.41 750.66 375.31 736.2 389.41 739.62 409.31 721.74 399.92 703.87 409.31 707.28 389.41 692.83 375.31 712.81 372.41 721.74 354.3"/><polygon class="cls-20" points="807.11 354.3 816.04 372.41 836.03 375.31 821.57 389.41 824.98 409.31 807.11 399.92 789.24 409.31 792.65 389.41 778.19 375.31 798.17 372.41 807.11 354.3"/></svg>