<svg xmlns="http://www.w3.org/2000/svg" xmlns:xlink="http://www.w3.org/1999/xlink" viewBox="0 0 1344 1343"><defs><style>.cls-1{fill:url(#linear-gradient);}.cls-2{fill:#fff;}.cls-2,.cls-3,.cls-4,.cls-5,.cls-6,.cls-8{stroke:#4b5a73;stroke-linecap:round;stroke-linejoin:round;}.cls-2,.cls-3,.cls-4,.cls-5,.cls-6{stroke-width:18px;}.cls-3{fill:url(#New_Gradient_Swatch_1);}.cls-4{fill:url(#New_Gradient_Swatch_1-2);}.cls-5{fill:url(#New_Gradient_Swatch_1-3);}.cls-6,.cls-8{fill:none;}.cls-7{fill:#4b5a73;}.cls-8{stroke-width:30px;}</style><linearGradient id="linear-gradient" x1="674.33" y1="8.34" x2="669.66" y2="1337.36" gradientUnits="userSpaceOnUse"><stop offset="0" stop-color="#60b3fd"/><stop offset="0.8" stop-color="#5287df"/><stop offset="0.89" stop-color="#5287df"/></linearGradient><linearGradient id="New_Gradient_Swatch_1" x1="328.12" y1="377.46" x2="499.05" y2="377.46" gradientUnits="userSpaceOnUse"><stop offset="0" stop-color="#5287df"/><stop offset="1" stop-color="#60b3fd"/></linearGradient><linearGradient id="New_Gradient_Swatch_1-2" x1="328.12" y1="629.19" x2="499.05" y2="629.19" xlink:href="#New_Gradient_Swatch_1"/><linearGradient id="New_Gradient_Swatch_1-3" x1="328.12" y1="885.16" x2="499.05" y2="885.16" xlink:href="#New_Gradient_Swatch_1"/></defs><title>RSS Feed</title><g id="Layer_1" data-name="Layer 1"><rect class="cls-1" width="1344" height="1343"/></g><g id="RSS_Feed" data-name="RSS Feed"><rect class="cls-2" x="184.53" y="176.91" width="916.98" height="916.98" rx="34.62"/><rect class="cls-3" x="328.12" y="300.58" width="170.93" height="153.77"/><rect class="cls-4" x="328.12" y="552.3" width="170.93" height="153.77"/><rect class="cls-5" x="328.12" y="808.27" width="170.93" height="153.79"/><line class="cls-6" x1="611.56" y1="335.43" x2="973.96" y2="335.43"/><line class="cls-6" x1="611.56" y1="393.85" x2="814.94" y2="393.85"/><line class="cls-6" x1="611.56" y1="586.41" x2="973.96" y2="586.41"/><line class="cls-6" x1="611.56" y1="647.18" x2="743.54" y2="647.18"/><line class="cls-6" x1="611.56" y1="837.46" x2="973.96" y2="837.46"/><line class="cls-6" x1="611.56" y1="898.23" x2="743.54" y2="898.23"/><circle class="cls-2" cx="843.34" cy="873.74" r="244.66" transform="translate(-298.82 923.25) rotate(-45)"/><circle class="cls-7" cx="863.84" cy="1023.16" r="53.43"/><path class="cls-8" d="M771.51,825.11c78.2-11.65,128.9,29.78,141.71,115.77" transform="translate(72 71)"/><path class="cls-8" d="M727,746.07c155.52-23.17,255.08,50.58,278.25,206.1" transform="translate(72 71)"/></g></svg>