<svg xmlns="http://www.w3.org/2000/svg" xmlns:xlink="http://www.w3.org/1999/xlink" viewBox="0 0 1200 1200"><defs><style>.cls-1{fill:url(#linear-gradient);}.cls-2,.cls-3{fill:#fff;stroke:#4b5a73;stroke-linecap:round;stroke-linejoin:round;}.cls-2{stroke-width:10px;}.cls-3{stroke-width:8px;}.cls-4{fill:#333;stroke:#333;stroke-miterlimit:10;}</style><linearGradient id="linear-gradient" x1="602.08" y1="7.46" x2="597.91" y2="1194.96" gradientUnits="userSpaceOnUse"><stop offset="0" stop-color="#60b3fd"/><stop offset="0.8" stop-color="#5287df"/><stop offset="0.89" stop-color="#5287df"/></linearGradient></defs><title>Scroll To Top</title><g id="Background"><rect class="cls-1" width="1200" height="1200"/></g><g id="Layer_4" data-name="Layer 4"><ellipse class="cls-2" cx="601.28" cy="600" rx="387.5" ry="388.25"/><path class="cls-3" d="M737.64,687.36"/></g><g id="Layer_1" data-name="Layer 1"><path class="cls-4" d="M840.26,716.4l1.23-1c22.08-18.4,24.93-49.15,6.37-68.67L644.61,432.93c-18.56-19.52-51.51-20.43-73.6-2l-1.22,1c-22.09,18.41-24.94,49.15-6.38,68.68L766.66,714.37C785.23,733.9,818.18,734.81,840.26,716.4Z"/><path class="cls-4" d="M358.1,705.49l1,1.22c18.6,21.92,49.36,24.52,68.73,5.79l212-205.07c19.36-18.73,20-51.69,1.4-73.62l-1-1.21c-18.59-21.93-49.36-24.52-68.73-5.79l-212,205.07C340.14,650.61,339.51,683.57,358.1,705.49Z"/></g></svg>