<svg xmlns="http://www.w3.org/2000/svg" xmlns:xlink="http://www.w3.org/1999/xlink" viewBox="0 0 1198 1198"><defs><style>.cls-1{fill:url(#linear-gradient);}.cls-10,.cls-2{fill:#fff;}.cls-10,.cls-2,.cls-3,.cls-4,.cls-5,.cls-6,.cls-7{stroke:#4b5a73;stroke-linecap:round;stroke-linejoin:round;}.cls-2,.cls-3,.cls-4,.cls-5,.cls-6,.cls-7{stroke-width:14px;}.cls-3{fill:none;}.cls-4{fill:url(#linear-gradient-3);}.cls-5{fill:url(#linear-gradient-4);}.cls-6{fill:url(#linear-gradient-5);}.cls-7{fill:url(#linear-gradient-6);}.cls-8{fill:url(#linear-gradient-7);}.cls-9{fill:#4b5a73;}.cls-10{stroke-width:7px;}</style><linearGradient id="linear-gradient" x1="601.08" y1="7.44" x2="596.92" y2="1192.97" gradientUnits="userSpaceOnUse"><stop offset="0" stop-color="#60b3fd"/><stop offset="0.8" stop-color="#5287df"/><stop offset="0.89" stop-color="#5287df"/></linearGradient><linearGradient id="linear-gradient-3" x1="740.58" y1="900.22" x2="740.58" y2="820.59" gradientUnits="userSpaceOnUse"><stop offset="0" stop-color="#5287df"/><stop offset="1" stop-color="#60b3fd"/></linearGradient><linearGradient id="linear-gradient-4" x1="888.93" y1="790.09" x2="888.93" y2="710.45" xlink:href="#linear-gradient-3"/><linearGradient id="linear-gradient-5" x1="888.93" y1="994.7" x2="888.93" y2="915.06" xlink:href="#linear-gradient-3"/><linearGradient id="linear-gradient-6" x1="372.89" y1="510.7" x2="372.89" y2="239.49" xlink:href="#linear-gradient-3"/><linearGradient id="linear-gradient-7" x1="372.89" y1="862.16" x2="372.89" y2="647.37" xlink:href="#linear-gradient-3"/></defs><title>Social Feed</title><g id="Background"><rect class="cls-1" width="1198" height="1198"/></g><g id="Background_copy" data-name="Background copy"><rect class="cls-1" width="1198" height="1198"/></g><g id="Social_Feed" data-name="Social Feed"><rect class="cls-2" x="128.86" y="112.05" width="883.89" height="883.89" rx="33.37"/><line class="cls-3" x1="562.69" y1="374.1" x2="875.97" y2="374.1"/><line class="cls-3" x1="562.69" y1="310.73" x2="875.97" y2="310.73"/><line class="cls-3" x1="562.69" y1="437.46" x2="738.5" y2="437.46"/><line class="cls-3" x1="562.69" y1="816.65" x2="750.7" y2="816.65"/><line class="cls-3" x1="562.69" y1="690.89" x2="902.99" y2="690.89"/><line class="cls-3" x1="562.69" y1="756.3" x2="686.61" y2="756.3"/><path class="cls-2" d="M1071.14,853.17c0,130.24-105.6,235.83-235.84,235.83S599.47,983.41,599.47,853.17,705.06,617.34,835.3,617.34,1071.14,722.93,1071.14,853.17Z" transform="translate(-2 -1)"/><line class="cls-3" x1="738.58" y1="859.41" x2="886.95" y2="746.72"/><line class="cls-3" x1="738.58" y1="859.41" x2="886.95" y2="953.87"/><path class="cls-4" d="M780.39,860.41a39.82,39.82,0,1,1-39.81-39.82A39.81,39.81,0,0,1,780.39,860.41Z" transform="translate(-2 -1)"/><path class="cls-5" d="M928.75,750.27A39.82,39.82,0,1,1,889,710.45,39.81,39.81,0,0,1,928.75,750.27Z" transform="translate(-2 -1)"/><path class="cls-6" d="M928.75,954.87A39.82,39.82,0,1,1,889,915.06,39.81,39.81,0,0,1,928.75,954.87Z" transform="translate(-2 -1)"/><path id="path3176" class="cls-7" d="M332.9,505.44V375.2H309.28a5.26,5.26,0,0,1-5.25-5.26v-39a5,5,0,0,1,5.25-5.19H332.9v-21c0-38.66,16.87-65.27,51.82-65.27,36.9,0,52.79,4.94,53.36,5.08a5.31,5.31,0,0,1,3.59,5.94l-7.22,40a5.28,5.28,0,0,1-6.55,4.13s-11.44-3.08-21.9-3.08c-6.38,0-16.08,1.37-16.08,9v25.2h40.83a5.23,5.23,0,0,1,5.22,5.67l-3.2,39a5.21,5.21,0,0,1-5.2,4.81H389.92V505.44a5.25,5.25,0,0,1-5.24,5.26H338.14A5.26,5.26,0,0,1,332.9,505.44Z" transform="translate(-2 -1)"/><path class="cls-8" d="M315,862.16a49.59,49.59,0,0,1-49.54-49.53V696.89A49.59,49.59,0,0,1,315,647.37H430.77a49.57,49.57,0,0,1,49.51,49.52V812.63a49.58,49.58,0,0,1-49.51,49.53Z" transform="translate(-2 -1)"/><path class="cls-9" d="M430.77,655.72a41.2,41.2,0,0,1,41.16,41.17V812.63a41.22,41.22,0,0,1-41.16,41.19H315a41.25,41.25,0,0,1-41.2-41.19V696.89A41.23,41.23,0,0,1,315,655.72H430.77m0-16.69H315a58,58,0,0,0-57.88,57.86V812.63A58,58,0,0,0,315,870.5H430.77a58,58,0,0,0,57.85-57.87V696.89A58,58,0,0,0,430.77,639Z" transform="translate(-2 -1)"/><path class="cls-10" d="M435.57,679.72a9,9,0,1,1-9,9A9,9,0,0,1,435.57,679.72Z" transform="translate(-2 -1)"/><path class="cls-2" d="M372.89,702.71a52,52,0,1,0,52.06,52A52,52,0,0,0,372.89,702.71Z" transform="translate(-2 -1)"/></g></svg>