<svg xmlns="http://www.w3.org/2000/svg" xmlns:xlink="http://www.w3.org/1999/xlink" viewBox="0 0 1198 1198"><defs><style>.cls-1{fill:url(#linear-gradient);}.cls-2{fill:#fff;}.cls-2,.cls-3{stroke:#4b5a73;stroke-linecap:round;stroke-linejoin:round;stroke-width:14px;}.cls-3{fill:none;}.cls-4{fill:url(#linear-gradient-3);}.cls-5{fill:#4b5a73;}.cls-6{fill:url(#linear-gradient-4);}.cls-7{fill:url(#linear-gradient-5);}</style><linearGradient id="linear-gradient" x1="601.08" y1="7.44" x2="596.92" y2="1192.97" gradientUnits="userSpaceOnUse"><stop offset="0" stop-color="#60b3fd"/><stop offset="0.8" stop-color="#5287df"/><stop offset="0.89" stop-color="#5287df"/></linearGradient><linearGradient id="linear-gradient-3" x1="370.82" y1="655.27" x2="457.26" y2="655.27" gradientUnits="userSpaceOnUse"><stop offset="0" stop-color="#5287df"/><stop offset="1" stop-color="#60b3fd"/></linearGradient><linearGradient id="linear-gradient-4" x1="355.39" y1="437.81" x2="473.72" y2="437.81" xlink:href="#linear-gradient-3"/><linearGradient id="linear-gradient-5" x1="355.39" y1="872.74" x2="473.72" y2="872.74" xlink:href="#linear-gradient-3"/></defs><title>Survey</title><g id="Background"><rect class="cls-1" width="1198" height="1198"/></g><g id="Background_copy" data-name="Background copy"><rect class="cls-1" width="1198" height="1198"/></g><g id="Survey"><rect class="cls-2" x="241.75" y="210.51" width="720.31" height="879.94" rx="32.29"/><line class="cls-3" x1="579.95" y1="852.22" x2="826.81" y2="852.22"/><line class="cls-3" x1="579.95" y1="900.65" x2="712.96" y2="900.65"/><path class="cls-2" d="M712.07,172.77H656.93a52.34,52.34,0,1,0-104.67,0H497.13a32.3,32.3,0,0,0-32.3,32.29v47.43H744.36V205.06A32.29,32.29,0,0,0,712.07,172.77Zm-107.47,16a16,16,0,1,1,16-16A16,16,0,0,1,604.6,188.79Z" transform="translate(-2 -1)"/><line class="cls-3" x1="578.69" y1="630.56" x2="826.81" y2="630.56"/><line class="cls-3" x1="578.69" y1="679" x2="826.81" y2="679"/><path class="cls-4" d="M439.51,698.51A17.72,17.72,0,0,1,427,693.32L414,680.38l-12.93,12.93A17.75,17.75,0,1,1,376,668.2L389,655.27,376,642.35a17.78,17.78,0,0,1,0-25.11,17.73,17.73,0,0,1,25.09,0L414,630.17,427,617.24a17.75,17.75,0,0,1,25.09,25.11l-12.93,12.92,12.92,12.93a17.75,17.75,0,0,1-12.55,30.31Z" transform="translate(-2 -1)"/><path class="cls-5" d="M439.53,620.11a9.69,9.69,0,0,1,6.83,16.53l-18.63,18.63,18.62,18.64a9.68,9.68,0,1,1-13.69,13.69L414,669,395.4,687.6a9.68,9.68,0,0,1-13.68-13.69l18.64-18.64-18.64-18.63A9.67,9.67,0,1,1,395.39,623L414,641.59,432.69,623a9.64,9.64,0,0,1,6.84-2.84m0-16.14a25.67,25.67,0,0,0-18.27,7.57L414,618.77l-7.23-7.23a25.82,25.82,0,1,0-36.51,36.51l7.22,7.22-7.21,7.23A25.82,25.82,0,1,0,406.82,699L414,691.8l7.21,7.21a25.83,25.83,0,0,0,36.55-36.51l-7.23-7.23,7.22-7.22A25.83,25.83,0,0,0,439.53,604Z" transform="translate(-2 -1)"/><line class="cls-3" x1="576.48" y1="408.91" x2="826.81" y2="408.91"/><line class="cls-3" x1="576.48" y1="457.35" x2="826.81" y2="457.35"/><path class="cls-6" d="M398.78,485.79a17.5,17.5,0,0,1-12.95-6l-26.27-30.63a17.36,17.36,0,0,1,26.34-22.61l13.66,15.93,44.15-47.12A17.35,17.35,0,0,1,469,419.05L411.65,480.3A17.35,17.35,0,0,1,399,485.79Z" transform="translate(-2 -1)"/><path class="cls-5" d="M456.35,397.9a9.29,9.29,0,0,1,6.79,15.63l-57.38,61.26a9.28,9.28,0,0,1-6.77,2.93h-.21a9.34,9.34,0,0,1-6.83-3.23l-26.26-30.63a9.29,9.29,0,0,1,14.09-12.1l19.52,22.77,50.29-53.69a9.17,9.17,0,0,1,6.76-2.94m0-16.14a25.42,25.42,0,0,0-18.57,8.08l-38,40.51L392,421.26a25.43,25.43,0,0,0-38.63,33.09L379.69,485a25.51,25.51,0,0,0,18.7,8.86h.6a25.51,25.51,0,0,0,18.58-8.06l57.35-61.23a25.43,25.43,0,0,0-18.57-42.81Z" transform="translate(-2 -1)"/><path class="cls-7" d="M398.78,920.72a17.5,17.5,0,0,1-12.95-6L359.56,884a17.36,17.36,0,0,1,26.34-22.61l13.66,15.94,44.15-47.13A17.35,17.35,0,0,1,469,854l-57.38,61.26A17.39,17.39,0,0,1,399,920.72Z" transform="translate(-2 -1)"/><path class="cls-5" d="M456.35,832.83a9.29,9.29,0,0,1,6.79,15.63l-57.38,61.25a9.24,9.24,0,0,1-6.77,2.93h-.21a9.3,9.3,0,0,1-6.83-3.23l-26.26-30.63a9.28,9.28,0,0,1,14.09-12.09l19.52,22.77,50.29-53.7a9.2,9.2,0,0,1,6.76-2.93m0-16.15a25.42,25.42,0,0,0-18.57,8.08l-38,40.51L392,856.18a25.44,25.44,0,0,0-38.63,33.1l26.28,30.64a25.47,25.47,0,0,0,18.7,8.86h.6a25.51,25.51,0,0,0,18.58-8.06l57.35-61.24a25.43,25.43,0,0,0-18.57-42.81Z" transform="translate(-2 -1)"/></g></svg>