<svg xmlns="http://www.w3.org/2000/svg" xmlns:xlink="http://www.w3.org/1999/xlink" viewBox="0 0 1198 1198"><defs><style>.cls-1{fill:url(#linear-gradient);}.cls-2{fill:#fff;}.cls-2,.cls-3,.cls-4{stroke:#4b5a73;stroke-linecap:round;stroke-linejoin:round;stroke-width:14px;}.cls-3{fill:url(#linear-gradient-3);}.cls-4{fill:none;}</style><linearGradient id="linear-gradient" x1="601.08" y1="7.44" x2="596.92" y2="1192.97" gradientUnits="userSpaceOnUse"><stop offset="0" stop-color="#60b3fd"/><stop offset="0.8" stop-color="#5287df"/><stop offset="0.89" stop-color="#5287df"/></linearGradient><linearGradient id="linear-gradient-3" x1="600" y1="725.72" x2="600" y2="308.7" gradientUnits="userSpaceOnUse"><stop offset="0" stop-color="#5287df"/><stop offset="1" stop-color="#60b3fd"/></linearGradient></defs><title>Video Slider</title><g id="Background"><rect class="cls-1" width="1198" height="1198"/></g><g id="Background_copy" data-name="Background copy"><rect class="cls-1" width="1198" height="1198"/></g><g id="Video_Slider" data-name="Video Slider"><path class="cls-2" d="M1061.87,905.55c0,14.54-13.22,26.33-29.52,26.33H167.65c-16.3,0-29.52-11.79-29.52-26.33V134.44c0-14.55,13.22-26.32,29.52-26.32h864.7c16.3,0,29.52,11.77,29.52,26.32Z" transform="translate(-2 -1)"/><path class="cls-3" d="M824.93,326.7v381a18,18,0,0,1-18,18H393.07a18,18,0,0,1-18-18v-381a18,18,0,0,1,18-18H807A17.94,17.94,0,0,1,824.93,326.7Z" transform="translate(-2 -1)"/><polygon class="cls-2" points="560.67 588.27 685.49 516.2 560.67 444.15 560.67 588.27"/><polyline class="cls-4" points="262.28 579.58 217.05 534.24 262.41 489.03"/><polyline class="cls-4" points="933.59 580.52 978.95 535.3 933.72 489.97"/><rect class="cls-2" x="417.04" y="1017.87" width="75.05" height="75.06"/><rect class="cls-2" x="560.48" y="1017.87" width="75.05" height="75.06"/><rect class="cls-2" x="703.91" y="1017.87" width="75.05" height="75.06"/></g></svg>