<svg xmlns="http://www.w3.org/2000/svg" xmlns:xlink="http://www.w3.org/1999/xlink" viewBox="0 0 1200.89 1200"><defs><style>.cls-1{fill:url(#linear-gradient);}.cls-2{fill:#fff;stroke-width:18px;}.cls-2,.cls-3,.cls-4,.cls-5,.cls-6{stroke:#4b5a73;stroke-linecap:round;stroke-linejoin:round;}.cls-3,.cls-4,.cls-5,.cls-6{stroke-width:10px;}.cls-3{fill:url(#linear-gradient-2);}.cls-4{fill:url(#linear-gradient-3);}.cls-5{fill:url(#linear-gradient-4);}.cls-6{fill:url(#linear-gradient-5);}</style><linearGradient id="linear-gradient" x1="602.53" y1="7.46" x2="598.36" y2="1194.96" gradientUnits="userSpaceOnUse"><stop offset="0" stop-color="#60b3fd"/><stop offset="0.8" stop-color="#5287df"/><stop offset="0.89" stop-color="#5287df"/></linearGradient><linearGradient id="linear-gradient-2" x1="389.37" y1="451.39" x2="389.37" y2="327.38" gradientUnits="userSpaceOnUse"><stop offset="0" stop-color="#5287df"/><stop offset="1" stop-color="#60b3fd"/></linearGradient><linearGradient id="linear-gradient-3" x1="381.73" y1="872.65" x2="381.73" y2="748.63" xlink:href="#linear-gradient-2"/><linearGradient id="linear-gradient-4" x1="839.27" y1="872.64" x2="839.27" y2="748.63" xlink:href="#linear-gradient-2"/><linearGradient id="linear-gradient-5" x1="838.81" y1="451.37" x2="838.81" y2="327.36" xlink:href="#linear-gradient-2"/></defs><title>Video Gallery</title><g id="Layer_1" data-name="Layer 1"><rect class="cls-1" width="1200.89" height="1200"/></g><g id="Video_Gallery" data-name="Video Gallery"><path class="cls-2" d="M556.74,239.16V539.57a14.11,14.11,0,0,1-14.07,14.21H218.9a14.16,14.16,0,0,1-14.08-14.21V239.16A14.15,14.15,0,0,1,218.9,225H542.67A14.11,14.11,0,0,1,556.74,239.16Z" transform="translate(0.95)"/><polygon class="cls-3" points="335.67 451.39 443.08 389.38 335.67 327.38 335.67 451.39"/><path class="cls-2" d="M549.1,660.43V960.85A14.12,14.12,0,0,1,535,975.05H211.26a14.16,14.16,0,0,1-14.09-14.2V660.43a14.16,14.16,0,0,1,14.09-14.21H535A14.12,14.12,0,0,1,549.1,660.43Z" transform="translate(0.95)"/><polygon class="cls-4" points="328.03 872.65 435.43 810.64 328.03 748.63 328.03 872.65"/><path class="cls-2" d="M1002.83,660.43V960.85a14.12,14.12,0,0,1-14.08,14.2H665a14.16,14.16,0,0,1-14.09-14.2V660.43A14.16,14.16,0,0,1,665,646.22H988.75A14.12,14.12,0,0,1,1002.83,660.43Z" transform="translate(0.95)"/><polygon class="cls-5" points="785.57 872.64 892.97 810.63 785.57 748.63 785.57 872.64"/><path class="cls-2" d="M1002.83,239.15V539.57a14.13,14.13,0,0,1-14.08,14.21H665a14.17,14.17,0,0,1-14.09-14.21V239.15A14.15,14.15,0,0,1,665,225H988.75A14.11,14.11,0,0,1,1002.83,239.15Z" transform="translate(0.95)"/><polygon class="cls-6" points="785.11 451.38 892.51 389.37 785.11 327.36 785.11 451.38"/></g></svg>