<svg xmlns="http://www.w3.org/2000/svg" xmlns:xlink="http://www.w3.org/1999/xlink" viewBox="0 0 1344 1343"><defs><style>.cls-1{fill:url(#linear-gradient);}.cls-2,.cls-8{fill:#fff;stroke-width:18px;}.cls-2,.cls-3,.cls-4,.cls-5,.cls-6,.cls-7,.cls-8{stroke:#4b5a73;}.cls-2,.cls-3,.cls-4,.cls-5,.cls-6,.cls-7{stroke-linecap:round;stroke-linejoin:round;}.cls-3,.cls-4,.cls-5,.cls-6,.cls-7{stroke-width:10px;}.cls-3{fill:url(#linear-gradient-2);}.cls-4{fill:url(#linear-gradient-3);}.cls-5{fill:url(#linear-gradient-4);}.cls-6{fill:url(#linear-gradient-5);}.cls-7{fill:url(#linear-gradient-6);}.cls-8{stroke-miterlimit:10;}</style><linearGradient id="linear-gradient" x1="674.33" y1="8.34" x2="669.66" y2="1337.36" gradientUnits="userSpaceOnUse"><stop offset="0" stop-color="#60b3fd"/><stop offset="0.8" stop-color="#5287df"/><stop offset="0.89" stop-color="#5287df"/></linearGradient><linearGradient id="linear-gradient-2" x1="308.79" y1="378.74" x2="308.79" y2="267.19" gradientUnits="userSpaceOnUse"><stop offset="0" stop-color="#5287df"/><stop offset="1" stop-color="#60b3fd"/></linearGradient><linearGradient id="linear-gradient-3" x1="308.79" y1="726.78" x2="308.79" y2="615.23" xlink:href="#linear-gradient-2"/><linearGradient id="linear-gradient-4" x1="308.79" y1="1074.84" x2="308.79" y2="963.28" xlink:href="#linear-gradient-2"/><linearGradient id="linear-gradient-5" x1="680.61" y1="378.71" x2="680.61" y2="267.16" xlink:href="#linear-gradient-2"/><linearGradient id="linear-gradient-6" x1="1051.98" y1="378.72" x2="1051.98" y2="267.16" xlink:href="#linear-gradient-2"/></defs><title>Vimeo Gallery</title><g id="Layer_1" data-name="Layer 1"><rect class="cls-1" width="1344" height="1343"/></g><g id="Vimeo_Gallery" data-name="Vimeo Gallery"><path class="cls-2" d="M388.19,116.84V387.06a12.7,12.7,0,0,1-12.66,12.78H84.3a12.74,12.74,0,0,1-12.67-12.78V116.84A12.74,12.74,0,0,1,84.3,104.06H375.53A12.69,12.69,0,0,1,388.19,116.84Z" transform="translate(72 71)"/><polygon class="cls-3" points="260.48 378.74 357.1 322.97 260.48 267.19 260.48 378.74"/><path class="cls-2" d="M388.7,464.9V735.12A12.69,12.69,0,0,1,376,747.9H84.82a12.74,12.74,0,0,1-12.67-12.78V464.9a12.74,12.74,0,0,1,12.67-12.79H376A12.7,12.7,0,0,1,388.7,464.9Z" transform="translate(72 71)"/><polygon class="cls-4" points="260.48 726.78 357.1 671.01 260.48 615.23 260.48 726.78"/><path class="cls-2" d="M388.19,813v270.22A12.71,12.71,0,0,1,375.53,1096H84.3a12.75,12.75,0,0,1-12.67-12.79V813A12.74,12.74,0,0,1,84.3,800.17H375.53A12.69,12.69,0,0,1,388.19,813Z" transform="translate(72 71)"/><polygon class="cls-5" points="260.48 1074.84 357.1 1019.06 260.48 963.28 260.48 1074.84"/><path class="cls-2" d="M756.58,116.83V387.05a12.7,12.7,0,0,1-12.66,12.79H452.7A12.74,12.74,0,0,1,440,387.05V116.83a12.73,12.73,0,0,1,12.67-12.78H743.92A12.69,12.69,0,0,1,756.58,116.83Z" transform="translate(72 71)"/><polygon class="cls-6" points="632.3 378.71 728.92 322.94 632.3 267.16 632.3 378.71"/><path class="cls-2" d="M1128.37,116.83V387.05a12.7,12.7,0,0,1-12.66,12.78H824.48a12.74,12.74,0,0,1-12.67-12.78V116.83A12.74,12.74,0,0,1,824.48,104h291.23A12.7,12.7,0,0,1,1128.37,116.83Z" transform="translate(72 71)"/><polygon class="cls-7" points="1003.68 378.72 1100.29 322.94 1003.68 267.17 1003.68 378.72"/><path class="cls-8" d="M487.73,647.61c2.84,3.51,5.84,7.16,9.87,8.79,14.21,5.75,24.65-15.49,38.71-21.64,11.12-4.87,24.28.76,32.53,10.22s12.61,22,16.64,34.29c35,106.6,59.51,217.24,99.24,321.88,8.8,23.19,19.45,47.46,39.26,60.39,28.81,18.79,66.44,6.87,95.2-12,39.19-25.69,70.87-62.68,101.18-99.92,16.7-20.52,33.16-41.27,48.81-62.73,41-56.28,76.35-117.37,106.15-181.43,17.27-37.11,33-76.42,34.35-118s-14.36-86.06-47.48-106.95c-30.3-19.11-69.15-15.1-101.31,0-48.15,22.59-86.17,69.2-101,123.8,13.94-2.16,28.13-4.32,42-2s27.79,9.83,35,23c10.07,18.42,4.69,41.84-1.36,62.22-19,64.13-46.52,132.24-102,162.54-3.46,1.89-7.17,3.65-11,3.44-5.83-.31-10.65-5-14.38-9.85-16.83-22-21.38-51.79-26.13-79.93a1485.24,1485.24,0,0,0-55.35-222.21c-10-30-25.21-63.74-54-70.17-16.93-3.77-34.28,3.3-49.6,12-26.47,15-50.23,34.87-73.83,54.68l-62.69,52.61c-6.17,5.18-24.82,15.74-24.46,24.68C462.36,623.17,482.77,641.45,487.73,647.61Z" transform="translate(72 71)"/></g></svg>