<svg xmlns="http://www.w3.org/2000/svg" xmlns:xlink="http://www.w3.org/1999/xlink" viewBox="0 0 1198 1198"><defs><style>.cls-1{fill:url(#linear-gradient);}.cls-2{fill:none;}.cls-2,.cls-3{stroke:#4b5a73;stroke-linecap:round;stroke-linejoin:round;stroke-width:14px;}.cls-3{fill:#fff;}</style><linearGradient id="linear-gradient" x1="601.08" y1="7.44" x2="596.92" y2="1192.97" gradientUnits="userSpaceOnUse"><stop offset="0" stop-color="#60b3fd"/><stop offset="0.8" stop-color="#5287df"/><stop offset="0.89" stop-color="#5287df"/></linearGradient></defs><title>Weather</title><g id="Background"><rect class="cls-1" width="1198" height="1198"/></g><g id="Background_copy" data-name="Background copy"><rect class="cls-1" width="1198" height="1198"/></g><g id="Weather"><line class="cls-2" x1="759.03" y1="802.99" x2="759.03" y2="741.7"/><line class="cls-2" x1="880.32" y1="289.11" x2="910.95" y2="236.04"/><line class="cls-2" x1="880.32" y1="709.24" x2="910.95" y2="762.3"/><line class="cls-2" x1="1001.55" y1="499.17" x2="1062.87" y2="499.17"/><line class="cls-2" x1="637.76" y1="289.11" x2="607.13" y2="236.04"/><line class="cls-2" x1="1022.16" y1="651.07" x2="969.12" y2="620.47"/><line class="cls-2" x1="548.97" y1="377.87" x2="495.93" y2="347.26"/><line class="cls-2" x1="516.51" y1="499.15" x2="455.22" y2="499.15"/><line class="cls-2" x1="1022.16" y1="347.26" x2="969.1" y2="377.89"/><line class="cls-2" x1="495.91" y1="651.07" x2="548.95" y2="620.45"/><line class="cls-2" x1="759.03" y1="256.66" x2="759.03" y2="195.35"/><line class="cls-2" x1="637.73" y1="709.23" x2="607.11" y2="762.28"/><path class="cls-3" d="M931.49,500.2A170.47,170.47,0,1,1,761,329.72,170.46,170.46,0,0,1,931.49,500.2Z" transform="translate(-2 -1)"/><path class="cls-3" d="M928.39,797.42c0-113.91-92.35-206.25-206.26-206.25-4.72,0-9.32.38-14,.68a253.42,253.42,0,0,0-206-105.54c-122.73,0-225.09,87.09-248.68,202.88-67.16,19.11-116.4,80.8-116.4,154.09a160.37,160.37,0,0,0,160.38,160.37H742.57v-1C846.88,992.37,928.39,904.41,928.39,797.42Z" transform="translate(-2 -1)"/><path class="cls-2" d="M297.51,1003.65a160.37,160.37,0,1,1,54.27-311.32" transform="translate(-2 -1)"/><path class="cls-2" d="M644.51,606.28a205.48,205.48,0,0,1,77.62-15.11c113.91,0,206.26,92.34,206.26,206.25S836,1003.65,722.13,1003.65" transform="translate(-2 -1)"/><path class="cls-2" d="M298,682.91A159.25,159.25,0,0,1,457.22,842.15" transform="translate(-2 -1)"/></g></svg>