<svg xmlns="http://www.w3.org/2000/svg" xmlns:xlink="http://www.w3.org/1999/xlink" viewBox="0 0 1344 1343"><defs><style>.cls-1{fill:url(#linear-gradient);}.cls-2{fill:#fff;}.cls-2,.cls-5,.cls-6,.cls-7,.cls-8,.cls-9{stroke:#4b5a73;}.cls-2,.cls-3,.cls-5,.cls-6,.cls-7,.cls-8,.cls-9{stroke-linecap:round;stroke-linejoin:round;stroke-width:10px;}.cls-3{stroke:#fff;fill:url(#New_Gradient_Swatch_1);}.cls-4{fill:#4b5a73;}.cls-5{fill:url(#New_Gradient_Swatch_1-2);}.cls-6{fill:url(#New_Gradient_Swatch_1-3);}.cls-7{fill:url(#New_Gradient_Swatch_1-4);}.cls-8{fill:url(#New_Gradient_Swatch_1-5);}.cls-9{fill:url(#New_Gradient_Swatch_1-6);}</style><linearGradient id="linear-gradient" x1="674.33" y1="8.34" x2="669.66" y2="1337.36" gradientUnits="userSpaceOnUse"><stop offset="0" stop-color="#60b3fd"/><stop offset="0.8" stop-color="#5287df"/><stop offset="0.89" stop-color="#5287df"/></linearGradient><linearGradient id="New_Gradient_Swatch_1" x1="556.1" y1="825.22" x2="1181.63" y2="825.22" gradientUnits="userSpaceOnUse"><stop offset="0" stop-color="#5287df"/><stop offset="1" stop-color="#60b3fd"/></linearGradient><linearGradient id="New_Gradient_Swatch_1-2" x1="237.04" y1="281.2" x2="329.27" y2="281.2" xlink:href="#New_Gradient_Swatch_1"/><linearGradient id="New_Gradient_Swatch_1-3" x1="626.17" y1="289.83" x2="718.4" y2="289.83" xlink:href="#New_Gradient_Swatch_1"/><linearGradient id="New_Gradient_Swatch_1-4" x1="1019.33" y1="290.83" x2="1111.56" y2="290.83" xlink:href="#New_Gradient_Swatch_1"/><linearGradient id="New_Gradient_Swatch_1-5" x1="232.91" y1="642.99" x2="325.14" y2="642.99" xlink:href="#New_Gradient_Swatch_1"/><linearGradient id="New_Gradient_Swatch_1-6" x1="232.91" y1="1015.77" x2="325.14" y2="1015.77" xlink:href="#New_Gradient_Swatch_1"/></defs><title>YouTube Gallery</title><g id="Layer_1" data-name="Layer 1"><rect class="cls-1" width="1344" height="1343"/></g><g id="YouTube_Gallery" data-name="YouTube Gallery"><path class="cls-2" d="M1162.66,444.43V1064a29.24,29.24,0,0,1-29.26,29.3h-673a29.32,29.32,0,0,1-29.28-29.3V444.43a29.31,29.31,0,0,1,29.28-29.31h673A29.23,29.23,0,0,1,1162.66,444.43Z" transform="translate(72 71)"/><rect class="cls-3" x="556.1" y="629.37" width="625.53" height="391.69" rx="28"/><polygon class="cls-4" points="797.22 909.56 940.51 825.22 797.22 740.87 797.22 909.56"/><path class="cls-2" d="M375.43,74.52V361.13a13.53,13.53,0,0,1-13.54,13.56H50.55A13.57,13.57,0,0,1,37,361.13V74.52A13.56,13.56,0,0,1,50.55,61H361.89A13.52,13.52,0,0,1,375.43,74.52Z" transform="translate(72 71)"/><polygon class="cls-5" points="237.04 335.49 329.27 281.2 237.04 226.91 237.04 335.49"/><path class="cls-2" d="M769.5,75.52V362.13A13.52,13.52,0,0,1,756,375.69H444.62a13.56,13.56,0,0,1-13.54-13.56V75.52A13.55,13.55,0,0,1,444.62,62H756A13.51,13.51,0,0,1,769.5,75.52Z" transform="translate(72 71)"/><polygon class="cls-6" points="626.17 344.12 718.4 289.83 626.17 235.53 626.17 344.12"/><path class="cls-2" d="M1162.66,76.52V363.13a13.53,13.53,0,0,1-13.54,13.56H837.78a13.57,13.57,0,0,1-13.55-13.56V76.52A13.56,13.56,0,0,1,837.78,63h311.34A13.52,13.52,0,0,1,1162.66,76.52Z" transform="translate(72 71)"/><polygon class="cls-7" points="1019.33 345.12 1111.56 290.83 1019.33 236.53 1019.33 345.12"/><path class="cls-2" d="M375.43,428.68V715.29a13.53,13.53,0,0,1-13.54,13.56H50.55A13.57,13.57,0,0,1,37,715.29V428.68a13.56,13.56,0,0,1,13.55-13.56H361.89A13.52,13.52,0,0,1,375.43,428.68Z" transform="translate(72 71)"/><polygon class="cls-8" points="232.91 697.28 325.14 642.99 232.91 588.69 232.91 697.28"/><path class="cls-2" d="M375.43,793.84v286.61A13.53,13.53,0,0,1,361.89,1094H50.55A13.57,13.57,0,0,1,37,1080.45V793.84a13.56,13.56,0,0,1,13.55-13.56H361.89A13.52,13.52,0,0,1,375.43,793.84Z" transform="translate(72 71)"/><polygon class="cls-9" points="232.91 1070.07 325.14 1015.77 232.91 961.48 232.91 1070.07"/></g></svg>